%TF.GenerationSoftware,KiCad,Pcbnew,6.0.11+dfsg-1~bpo11+1*%
%TF.CreationDate,2024-02-01T17:53:29-05:00*%
%TF.ProjectId,POE,504f452e-6b69-4636-9164-5f7063625858,1.0.0*%
%TF.SameCoordinates,Original*%
%TF.FileFunction,Copper,L1,Top*%
%TF.FilePolarity,Positive*%
%FSLAX46Y46*%
G04 Gerber Fmt 4.6, Leading zero omitted, Abs format (unit mm)*
G04 Created by KiCad (PCBNEW 6.0.11+dfsg-1~bpo11+1) date 2024-02-01 17:53:29*
%MOMM*%
%LPD*%
G01*
G04 APERTURE LIST*
G04 Aperture macros list*
%AMRoundRect*
0 Rectangle with rounded corners*
0 $1 Rounding radius*
0 $2 $3 $4 $5 $6 $7 $8 $9 X,Y pos of 4 corners*
0 Add a 4 corners polygon primitive as box body*
4,1,4,$2,$3,$4,$5,$6,$7,$8,$9,$2,$3,0*
0 Add four circle primitives for the rounded corners*
1,1,$1+$1,$2,$3*
1,1,$1+$1,$4,$5*
1,1,$1+$1,$6,$7*
1,1,$1+$1,$8,$9*
0 Add four rect primitives between the rounded corners*
20,1,$1+$1,$2,$3,$4,$5,0*
20,1,$1+$1,$4,$5,$6,$7,0*
20,1,$1+$1,$6,$7,$8,$9,0*
20,1,$1+$1,$8,$9,$2,$3,0*%
G04 Aperture macros list end*
%TA.AperFunction,ComponentPad*%
%ADD10C,1.422400*%
%TD*%
%TA.AperFunction,SMDPad,CuDef*%
%ADD11R,0.800000X1.000000*%
%TD*%
%TA.AperFunction,ComponentPad*%
%ADD12R,1.700000X1.700000*%
%TD*%
%TA.AperFunction,ComponentPad*%
%ADD13O,1.700000X1.700000*%
%TD*%
%TA.AperFunction,SMDPad,CuDef*%
%ADD14RoundRect,0.250000X1.500000X0.550000X-1.500000X0.550000X-1.500000X-0.550000X1.500000X-0.550000X0*%
%TD*%
%TA.AperFunction,SMDPad,CuDef*%
%ADD15RoundRect,0.250000X-0.350000X-0.450000X0.350000X-0.450000X0.350000X0.450000X-0.350000X0.450000X0*%
%TD*%
%TA.AperFunction,SMDPad,CuDef*%
%ADD16R,1.800000X2.500000*%
%TD*%
%TA.AperFunction,ComponentPad*%
%ADD17C,1.650000*%
%TD*%
%TA.AperFunction,SMDPad,CuDef*%
%ADD18RoundRect,0.250000X0.250000X0.475000X-0.250000X0.475000X-0.250000X-0.475000X0.250000X-0.475000X0*%
%TD*%
%TA.AperFunction,SMDPad,CuDef*%
%ADD19RoundRect,0.250000X0.350000X0.450000X-0.350000X0.450000X-0.350000X-0.450000X0.350000X-0.450000X0*%
%TD*%
%TA.AperFunction,SMDPad,CuDef*%
%ADD20RoundRect,0.195000X-0.195000X0.805000X-0.195000X-0.805000X0.195000X-0.805000X0.195000X0.805000X0*%
%TD*%
%TA.AperFunction,SMDPad,CuDef*%
%ADD21RoundRect,0.243750X-0.243750X-0.456250X0.243750X-0.456250X0.243750X0.456250X-0.243750X0.456250X0*%
%TD*%
%TA.AperFunction,SMDPad,CuDef*%
%ADD22R,1.250000X2.500000*%
%TD*%
%TA.AperFunction,SMDPad,CuDef*%
%ADD23RoundRect,0.250000X-0.250000X-0.475000X0.250000X-0.475000X0.250000X0.475000X-0.250000X0.475000X0*%
%TD*%
%TA.AperFunction,ViaPad*%
%ADD24C,0.500000*%
%TD*%
%TA.AperFunction,Conductor*%
%ADD25C,0.250000*%
%TD*%
%TA.AperFunction,Conductor*%
%ADD26C,0.600000*%
%TD*%
G04 APERTURE END LIST*
D10*
%TO.P,J1,1,1*%
%TO.N,Net-(J1-Pad1)*%
X84444000Y-121515000D03*
%TO.P,J1,2,2*%
%TO.N,Net-(J1-Pad2)*%
X85460000Y-123293000D03*
%TO.P,J1,3,3*%
%TO.N,Net-(J1-Pad3)*%
X86476000Y-121515000D03*
%TO.P,J1,4,4*%
%TO.N,Net-(J1-Pad4)*%
X87492000Y-123293000D03*
%TO.P,J1,5,5*%
%TO.N,Net-(J1-Pad5)*%
X88508000Y-121515000D03*
%TO.P,J1,6,6*%
%TO.N,Net-(J1-Pad6)*%
X89524000Y-123293000D03*
%TO.P,J1,7,7*%
%TO.N,Net-(J1-Pad7)*%
X90540000Y-121515000D03*
%TO.P,J1,8,8*%
%TO.N,Net-(J1-Pad8)*%
X91556000Y-123293000D03*
%TD*%
D11*
%TO.P,D2,1*%
%TO.N,VA2*%
X86260000Y-89075000D03*
%TO.P,D2,2*%
%TO.N,VA1*%
X88800000Y-89075000D03*
%TO.P,D2,3,+*%
%TO.N,Vin+*%
X88800000Y-82925000D03*
%TO.P,D2,4,-*%
%TO.N,Vin-*%
X86260000Y-82925000D03*
%TD*%
D12*
%TO.P,J2,1,Pin_1*%
%TO.N,GND*%
X116520054Y-86000000D03*
D13*
%TO.P,J2,2,Pin_2*%
%TO.N,VoutF*%
X113980054Y-86000000D03*
%TD*%
D14*
%TO.P,C1,1*%
%TO.N,Vout*%
X102800000Y-86000000D03*
%TO.P,C1,2*%
%TO.N,GND*%
X97200000Y-86000000D03*
%TD*%
D15*
%TO.P,R4,1*%
%TO.N,Vout*%
X115500000Y-124000000D03*
%TO.P,R4,2*%
%TO.N,Net-(D4-Pad2)*%
X117500000Y-124000000D03*
%TD*%
D16*
%TO.P,D3,1,K*%
%TO.N,Vin+*%
X88800000Y-71700000D03*
%TO.P,D3,2,A*%
%TO.N,Vin-*%
X88800000Y-67700000D03*
%TD*%
D17*
%TO.P,MOD-1,1,+VDC_1*%
%TO.N,Vout*%
X93090387Y-78937467D03*
%TO.P,MOD-1,2,+VDC_2*%
X95630387Y-78937467D03*
%TO.P,MOD-1,3,-VDC*%
%TO.N,GND*%
X109200387Y-78937467D03*
%TO.P,MOD-1,4,ADJ*%
%TO.N,ADJ*%
X111740387Y-78937467D03*
%TO.P,MOD-1,5,VIN+_1*%
%TO.N,Vin+*%
X111740387Y-67557467D03*
%TO.P,MOD-1,6,VIN+_2*%
X109200387Y-67557467D03*
%TO.P,MOD-1,7,VIN-_1*%
%TO.N,Vin-*%
X95630387Y-67557467D03*
%TO.P,MOD-1,8,VIN-_2*%
X93090387Y-67557467D03*
%TD*%
D18*
%TO.P,C3,1*%
%TO.N,VoutF*%
X108415599Y-89000000D03*
%TO.P,C3,2*%
%TO.N,GND*%
X106515599Y-89000000D03*
%TD*%
D11*
%TO.P,D1,1*%
%TO.N,VB2*%
X86260000Y-81075000D03*
%TO.P,D1,2*%
%TO.N,VB1*%
X88800000Y-81075000D03*
%TO.P,D1,3,+*%
%TO.N,Vin+*%
X88800000Y-74925000D03*
%TO.P,D1,4,-*%
%TO.N,Vin-*%
X86260000Y-74925000D03*
%TD*%
D19*
%TO.P,R3,1*%
%TO.N,Vout*%
X117500000Y-73000000D03*
%TO.P,R3,2*%
%TO.N,GND*%
X115500000Y-73000000D03*
%TD*%
D20*
%TO.P,TR3,1,TCT1*%
%TO.N,VA1*%
X110580000Y-118300000D03*
%TO.P,TR3,2,TD1+*%
%TO.N,Net-(J1-Pad2)*%
X109580000Y-118300000D03*
%TO.P,TR3,3,TD1-*%
%TO.N,Net-(J1-Pad1)*%
X108580000Y-118300000D03*
%TO.P,TR3,4,TCT2*%
%TO.N,VB1*%
X107580000Y-118300000D03*
%TO.P,TR3,5,TD2+*%
%TO.N,Net-(J1-Pad5)*%
X106580000Y-118300000D03*
%TO.P,TR3,6,TD2-*%
%TO.N,Net-(J1-Pad4)*%
X105580000Y-118300000D03*
%TO.P,TR3,7,TCT3*%
%TO.N,VB2*%
X104580000Y-118300000D03*
%TO.P,TR3,8,TD3+*%
%TO.N,Net-(J1-Pad8)*%
X103580000Y-118300000D03*
%TO.P,TR3,9,TD3-*%
%TO.N,Net-(J1-Pad7)*%
X102580000Y-118300000D03*
%TO.P,TR3,10,TCT4*%
%TO.N,VA2*%
X101580000Y-118300000D03*
%TO.P,TR3,11,TD4+*%
%TO.N,Net-(J1-Pad6)*%
X100580000Y-118300000D03*
%TO.P,TR3,12,TD4-*%
%TO.N,Net-(J1-Pad3)*%
X99580000Y-118300000D03*
%TO.P,TR3,13,MX4-*%
%TO.N,unconnected-(TR3-Pad13)*%
X99580000Y-127700000D03*
%TO.P,TR3,14,MX4+*%
%TO.N,unconnected-(TR3-Pad14)*%
X100580000Y-127700000D03*
%TO.P,TR3,15,MCT4*%
%TO.N,unconnected-(TR3-Pad15)*%
X101580000Y-127700000D03*
%TO.P,TR3,16,MTX3-*%
%TO.N,unconnected-(TR3-Pad16)*%
X102580000Y-127700000D03*
%TO.P,TR3,17,MTX3+*%
%TO.N,unconnected-(TR3-Pad17)*%
X103580000Y-127700000D03*
%TO.P,TR3,18,MCT3*%
%TO.N,unconnected-(TR3-Pad18)*%
X104580000Y-127700000D03*
%TO.P,TR3,19,MTX2-*%
%TO.N,unconnected-(TR3-Pad19)*%
X105580000Y-127700000D03*
%TO.P,TR3,20,MTX2+*%
%TO.N,unconnected-(TR3-Pad20)*%
X106580000Y-127700000D03*
%TO.P,TR3,21,MCT2*%
%TO.N,unconnected-(TR3-Pad21)*%
X107580000Y-127700000D03*
%TO.P,TR3,22,MTX1-*%
%TO.N,unconnected-(TR3-Pad22)*%
X108580000Y-127700000D03*
%TO.P,TR3,23,MTX1+*%
%TO.N,unconnected-(TR3-Pad23)*%
X109580000Y-127700000D03*
%TO.P,TR3,24,MTC1*%
%TO.N,unconnected-(TR3-Pad24)*%
X110580000Y-127700000D03*
%TD*%
D21*
%TO.P,D4,1,K*%
%TO.N,GND*%
X115562500Y-122000000D03*
%TO.P,D4,2,A*%
%TO.N,Net-(D4-Pad2)*%
X117437500Y-122000000D03*
%TD*%
D19*
%TO.P,R1,1*%
%TO.N,Vout*%
X117500000Y-79000000D03*
%TO.P,R1,2*%
%TO.N,ADJ*%
X115500000Y-79000000D03*
%TD*%
D15*
%TO.P,R2,1*%
%TO.N,ADJ*%
X115500000Y-77000000D03*
%TO.P,R2,2*%
%TO.N,GND*%
X117500000Y-77000000D03*
%TD*%
D22*
%TO.P,L1,1,1*%
%TO.N,Vout*%
X106340599Y-86000000D03*
%TO.P,L1,2,2*%
%TO.N,VoutF*%
X108590599Y-86000000D03*
%TD*%
D23*
%TO.P,C2,1*%
%TO.N,Vout*%
X106515599Y-83000000D03*
%TO.P,C2,2*%
%TO.N,GND*%
X108415599Y-83000000D03*
%TD*%
D24*
%TO.N,GND*%
X116000000Y-73000000D03*
X117000000Y-77000000D03*
X107965599Y-83000000D03*
X106965599Y-89000000D03*
X116000000Y-122000000D03*
X99000000Y-86000000D03*
%TO.N,Net-(J1-Pad1)*%
X108580000Y-119180000D03*
%TO.N,Net-(J1-Pad2)*%
X109580000Y-119180000D03*
%TO.N,Net-(J1-Pad4)*%
X105580000Y-119180000D03*
%TO.N,Net-(J1-Pad5)*%
X106580000Y-119180000D03*
%TO.N,Net-(J1-Pad7)*%
X102580000Y-119180000D03*
%TO.N,Net-(J1-Pad8)*%
X103580000Y-119180000D03*
%TD*%
D25*
%TO.N,ADJ*%
X111740387Y-78937467D02*
X115488553Y-78937467D01*
X115500000Y-79000000D02*
X115500000Y-77000000D01*
D26*
%TO.N,VB2*%
X93474620Y-113844701D02*
X103634811Y-113844701D01*
X86260000Y-81075000D02*
X85260000Y-82075000D01*
X85260000Y-82075000D02*
X85260000Y-83650000D01*
X87200000Y-85590000D02*
X87200000Y-107570079D01*
X85260000Y-83650000D02*
X87200000Y-85590000D01*
X87200000Y-107570079D02*
X93474620Y-113844701D01*
X103634811Y-113844701D02*
X104580000Y-114789890D01*
X104580000Y-114789890D02*
X104580000Y-118300000D01*
%TO.N,VB1*%
X93785280Y-113094701D02*
X106153535Y-113094701D01*
X88420000Y-107729421D02*
X88612370Y-107921791D01*
X89650000Y-81925000D02*
X88800000Y-81075000D01*
X89201078Y-108510498D02*
X93785280Y-113094701D01*
X89201078Y-108510498D02*
X88612370Y-107921791D01*
X89650000Y-83944067D02*
X89650000Y-81925000D01*
X106153535Y-113094701D02*
X107580000Y-114521166D01*
X87950000Y-85644067D02*
X89650000Y-83944067D01*
X87950000Y-85644067D02*
X87950000Y-107259420D01*
X107580000Y-114521166D02*
X107580000Y-118300000D01*
X87950000Y-107259420D02*
X89201078Y-108510498D01*
%TO.N,Vin+*%
X107763126Y-68976061D02*
X107772459Y-68985394D01*
X88798439Y-71696122D02*
X91518500Y-68976061D01*
X88800000Y-74925000D02*
X88800000Y-71700000D01*
X88800000Y-82925000D02*
X87950000Y-82075000D01*
X107772459Y-68985394D02*
X109200387Y-67557467D01*
X87950000Y-82075000D02*
X87950000Y-75775000D01*
X91518500Y-68976061D02*
X107763126Y-68976061D01*
X111240387Y-67557468D02*
X108700387Y-67557468D01*
X87950000Y-75775000D02*
X88800000Y-74925000D01*
%TO.N,Vin-*%
X88937094Y-67557467D02*
X88798439Y-67696122D01*
X86260000Y-74925000D02*
X86260000Y-70234560D01*
X87110000Y-75775000D02*
X86260000Y-74925000D01*
X93090387Y-67557467D02*
X88937094Y-67557467D01*
X92590386Y-67557468D02*
X95130387Y-67557468D01*
X87110000Y-82075000D02*
X87110000Y-75775000D01*
X86260000Y-82925000D02*
X87110000Y-82075000D01*
X88407280Y-68087280D02*
X88798439Y-67696122D01*
X86260000Y-70234560D02*
X88407280Y-68087280D01*
%TO.N,VA2*%
X101014468Y-114594701D02*
X101580000Y-115160233D01*
X88412129Y-109842870D02*
X93163960Y-114594701D01*
X101580000Y-115160233D02*
X101580000Y-118300000D01*
X86260000Y-89075000D02*
X86260000Y-107690740D01*
X93163960Y-114594701D02*
X101014468Y-114594701D01*
X86260000Y-107690740D02*
X89284630Y-110715370D01*
%TO.N,VA1*%
X88800000Y-89075000D02*
X88800000Y-107048760D01*
X110580000Y-114083078D02*
X110580000Y-118300000D01*
X108841623Y-112344701D02*
X110580000Y-114083078D01*
X88800000Y-107048760D02*
X94095940Y-112344701D01*
X94095940Y-112344701D02*
X108841623Y-112344701D01*
%TO.N,VoutF*%
X108590599Y-86000000D02*
X108590599Y-88825000D01*
X108590599Y-86000000D02*
X113980054Y-86000000D01*
X108590599Y-88825000D02*
X108415599Y-89000000D01*
D25*
%TO.N,Net-(D4-Pad2)*%
X117500000Y-124000000D02*
X117500000Y-122062500D01*
X117500000Y-122062500D02*
X117437500Y-122000000D01*
D26*
%TO.N,Net-(J1-Pad3)*%
X88288222Y-116504489D02*
X99181312Y-116504489D01*
X86476000Y-121515000D02*
X86476000Y-118316711D01*
X86476000Y-118316711D02*
X88288222Y-116504489D01*
X99181312Y-116504489D02*
X99580000Y-116903177D01*
X99580000Y-116903177D02*
X99580000Y-118300000D01*
%TO.N,Net-(J1-Pad6)*%
X98946420Y-125119638D02*
X100580000Y-123486058D01*
X89524000Y-124269660D02*
X89524000Y-123293000D01*
X100580000Y-123486058D02*
X100580000Y-118300000D01*
X98946420Y-125119638D02*
X90373978Y-125119638D01*
X90373978Y-125119638D02*
X89524000Y-124269660D01*
%TD*%
%TA.AperFunction,Conductor*%
%TO.N,Vout*%
G36*
X117987103Y-65256921D02*
G01*
X118000000Y-65259486D01*
X118012172Y-65257065D01*
X118024579Y-65257065D01*
X118024579Y-65257262D01*
X118035506Y-65256494D01*
X118300337Y-65271366D01*
X118314369Y-65272947D01*
X118459164Y-65297549D01*
X118603955Y-65322150D01*
X118617730Y-65325294D01*
X118705913Y-65350699D01*
X118899992Y-65406612D01*
X118913311Y-65411273D01*
X119184695Y-65523684D01*
X119197418Y-65529811D01*
X119454506Y-65671899D01*
X119466454Y-65679406D01*
X119663653Y-65819326D01*
X119706027Y-65849392D01*
X119717062Y-65858192D01*
X119936086Y-66053923D01*
X119946076Y-66063913D01*
X120141808Y-66282938D01*
X120150606Y-66293971D01*
X120320594Y-66533546D01*
X120328101Y-66545494D01*
X120468650Y-66799797D01*
X120470187Y-66802578D01*
X120476316Y-66815305D01*
X120588727Y-67086689D01*
X120593388Y-67100008D01*
X120637039Y-67251523D01*
X120674706Y-67382270D01*
X120677850Y-67396045D01*
X120696367Y-67505025D01*
X120722587Y-67659345D01*
X120727052Y-67685626D01*
X120728634Y-67699663D01*
X120743388Y-67962383D01*
X120743506Y-67964491D01*
X120742738Y-67975421D01*
X120742935Y-67975421D01*
X120742935Y-67987828D01*
X120740514Y-68000000D01*
X120742935Y-68012170D01*
X120743079Y-68012894D01*
X120745500Y-68037476D01*
X120745500Y-131962524D01*
X120743079Y-131987103D01*
X120740514Y-132000000D01*
X120742935Y-132012172D01*
X120742935Y-132024579D01*
X120742738Y-132024579D01*
X120743506Y-132035506D01*
X120743131Y-132042186D01*
X120728634Y-132300333D01*
X120727053Y-132314369D01*
X120702451Y-132459165D01*
X120677850Y-132603955D01*
X120674706Y-132617730D01*
X120593388Y-132899992D01*
X120588727Y-132913311D01*
X120530779Y-133053210D01*
X120476318Y-133184691D01*
X120470189Y-133197418D01*
X120328101Y-133454506D01*
X120320594Y-133466454D01*
X120150608Y-133706027D01*
X120141808Y-133717062D01*
X119964409Y-133915572D01*
X119946077Y-133936086D01*
X119936087Y-133946076D01*
X119717062Y-134141808D01*
X119706029Y-134150606D01*
X119466454Y-134320594D01*
X119454506Y-134328101D01*
X119197418Y-134470189D01*
X119184695Y-134476316D01*
X118913311Y-134588727D01*
X118899992Y-134593388D01*
X118750142Y-134636559D01*
X118617730Y-134674706D01*
X118603955Y-134677850D01*
X118459165Y-134702451D01*
X118314369Y-134727053D01*
X118300337Y-134728634D01*
X118035506Y-134743506D01*
X118024579Y-134742738D01*
X118024579Y-134742935D01*
X118012172Y-134742935D01*
X118000000Y-134740514D01*
X117987103Y-134743079D01*
X117962524Y-134745500D01*
X82037476Y-134745500D01*
X82012897Y-134743079D01*
X82000000Y-134740514D01*
X81987828Y-134742935D01*
X81975421Y-134742935D01*
X81975421Y-134742738D01*
X81964494Y-134743506D01*
X81699663Y-134728634D01*
X81685631Y-134727053D01*
X81540835Y-134702451D01*
X81396045Y-134677850D01*
X81382270Y-134674706D01*
X81249858Y-134636559D01*
X81100008Y-134593388D01*
X81086689Y-134588727D01*
X80815305Y-134476316D01*
X80802582Y-134470189D01*
X80545494Y-134328101D01*
X80533546Y-134320594D01*
X80293971Y-134150606D01*
X80282938Y-134141808D01*
X80063913Y-133946076D01*
X80053923Y-133936086D01*
X80035591Y-133915572D01*
X79858192Y-133717062D01*
X79849392Y-133706027D01*
X79679406Y-133466454D01*
X79671899Y-133454506D01*
X79529811Y-133197418D01*
X79523682Y-133184691D01*
X79469221Y-133053210D01*
X79411273Y-132913311D01*
X79406612Y-132899992D01*
X79325294Y-132617730D01*
X79322150Y-132603955D01*
X79297549Y-132459165D01*
X79272947Y-132314369D01*
X79271366Y-132300333D01*
X79256869Y-132042186D01*
X80141018Y-132042186D01*
X80166579Y-132310100D01*
X80167664Y-132314534D01*
X80167665Y-132314540D01*
X80209665Y-132486180D01*
X80230547Y-132571518D01*
X80331583Y-132820963D01*
X80467569Y-133053210D01*
X80635658Y-133263395D01*
X80832327Y-133447113D01*
X81053457Y-133600516D01*
X81294416Y-133720391D01*
X81298750Y-133721812D01*
X81298753Y-133721813D01*
X81545823Y-133802807D01*
X81545829Y-133802808D01*
X81550156Y-133804227D01*
X81554647Y-133805007D01*
X81554648Y-133805007D01*
X81811538Y-133849611D01*
X81811546Y-133849612D01*
X81815319Y-133850267D01*
X81819156Y-133850458D01*
X81898777Y-133854422D01*
X81898785Y-133854422D01*
X81900348Y-133854500D01*
X82068374Y-133854500D01*
X82070642Y-133854335D01*
X82070654Y-133854335D01*
X82201457Y-133844844D01*
X82268425Y-133839985D01*
X82272880Y-133839001D01*
X82272883Y-133839001D01*
X82526770Y-133782947D01*
X82526772Y-133782946D01*
X82531226Y-133781963D01*
X82782900Y-133686613D01*
X82885754Y-133629483D01*
X83014179Y-133558149D01*
X83014180Y-133558148D01*
X83018172Y-133555931D01*
X83068943Y-133517184D01*
X83228491Y-133395421D01*
X83228495Y-133395417D01*
X83232116Y-133392654D01*
X83420249Y-133200203D01*
X83527242Y-133053210D01*
X83575942Y-132986304D01*
X83575947Y-132986297D01*
X83578630Y-132982610D01*
X83703941Y-132744433D01*
X83793557Y-132490662D01*
X83823123Y-132340655D01*
X83844720Y-132231083D01*
X83844721Y-132231077D01*
X83845601Y-132226611D01*
X83854782Y-132042186D01*
X116141018Y-132042186D01*
X116166579Y-132310100D01*
X116167664Y-132314534D01*
X116167665Y-132314540D01*
X116209665Y-132486180D01*
X116230547Y-132571518D01*
X116331583Y-132820963D01*
X116467569Y-133053210D01*
X116635658Y-133263395D01*
X116832327Y-133447113D01*
X117053457Y-133600516D01*
X117294416Y-133720391D01*
X117298750Y-133721812D01*
X117298753Y-133721813D01*
X117545823Y-133802807D01*
X117545829Y-133802808D01*
X117550156Y-133804227D01*
X117554647Y-133805007D01*
X117554648Y-133805007D01*
X117811538Y-133849611D01*
X117811546Y-133849612D01*
X117815319Y-133850267D01*
X117819156Y-133850458D01*
X117898777Y-133854422D01*
X117898785Y-133854422D01*
X117900348Y-133854500D01*
X118068374Y-133854500D01*
X118070642Y-133854335D01*
X118070654Y-133854335D01*
X118201457Y-133844844D01*
X118268425Y-133839985D01*
X118272880Y-133839001D01*
X118272883Y-133839001D01*
X118526770Y-133782947D01*
X118526772Y-133782946D01*
X118531226Y-133781963D01*
X118782900Y-133686613D01*
X118885754Y-133629483D01*
X119014179Y-133558149D01*
X119014180Y-133558148D01*
X119018172Y-133555931D01*
X119068943Y-133517184D01*
X119228491Y-133395421D01*
X119228495Y-133395417D01*
X119232116Y-133392654D01*
X119420249Y-133200203D01*
X119527242Y-133053210D01*
X119575942Y-132986304D01*
X119575947Y-132986297D01*
X119578630Y-132982610D01*
X119703941Y-132744433D01*
X119793557Y-132490662D01*
X119823123Y-132340655D01*
X119844720Y-132231083D01*
X119844721Y-132231077D01*
X119845601Y-132226611D01*
X119854782Y-132042186D01*
X119858755Y-131962383D01*
X119858755Y-131962377D01*
X119858982Y-131957814D01*
X119833421Y-131689900D01*
X119769453Y-131428482D01*
X119668417Y-131179037D01*
X119532431Y-130946790D01*
X119364342Y-130736605D01*
X119167673Y-130552887D01*
X118946543Y-130399484D01*
X118705584Y-130279609D01*
X118701250Y-130278188D01*
X118701247Y-130278187D01*
X118454177Y-130197193D01*
X118454171Y-130197192D01*
X118449844Y-130195773D01*
X118445352Y-130194993D01*
X118188462Y-130150389D01*
X118188454Y-130150388D01*
X118184681Y-130149733D01*
X118174718Y-130149237D01*
X118101223Y-130145578D01*
X118101215Y-130145578D01*
X118099652Y-130145500D01*
X117931626Y-130145500D01*
X117929358Y-130145665D01*
X117929346Y-130145665D01*
X117798543Y-130155156D01*
X117731575Y-130160015D01*
X117727120Y-130160999D01*
X117727117Y-130160999D01*
X117473230Y-130217053D01*
X117473228Y-130217054D01*
X117468774Y-130218037D01*
X117217100Y-130313387D01*
X116981828Y-130444069D01*
X116978196Y-130446841D01*
X116771509Y-130604579D01*
X116771505Y-130604583D01*
X116767884Y-130607346D01*
X116579751Y-130799797D01*
X116577066Y-130803486D01*
X116424058Y-131013696D01*
X116424053Y-131013703D01*
X116421370Y-131017390D01*
X116296059Y-131255567D01*
X116206443Y-131509338D01*
X116205560Y-131513820D01*
X116170855Y-131689900D01*
X116154399Y-131773389D01*
X116154172Y-131777942D01*
X116154172Y-131777945D01*
X116143724Y-131987830D01*
X116141018Y-132042186D01*
X83854782Y-132042186D01*
X83858755Y-131962383D01*
X83858755Y-131962377D01*
X83858982Y-131957814D01*
X83833421Y-131689900D01*
X83769453Y-131428482D01*
X83668417Y-131179037D01*
X83532431Y-130946790D01*
X83364342Y-130736605D01*
X83167673Y-130552887D01*
X82946543Y-130399484D01*
X82705584Y-130279609D01*
X82701250Y-130278188D01*
X82701247Y-130278187D01*
X82454177Y-130197193D01*
X82454171Y-130197192D01*
X82449844Y-130195773D01*
X82445352Y-130194993D01*
X82188462Y-130150389D01*
X82188454Y-130150388D01*
X82184681Y-130149733D01*
X82174718Y-130149237D01*
X82101223Y-130145578D01*
X82101215Y-130145578D01*
X82099652Y-130145500D01*
X81931626Y-130145500D01*
X81929358Y-130145665D01*
X81929346Y-130145665D01*
X81798543Y-130155156D01*
X81731575Y-130160015D01*
X81727120Y-130160999D01*
X81727117Y-130160999D01*
X81473230Y-130217053D01*
X81473228Y-130217054D01*
X81468774Y-130218037D01*
X81217100Y-130313387D01*
X80981828Y-130444069D01*
X80978196Y-130446841D01*
X80771509Y-130604579D01*
X80771505Y-130604583D01*
X80767884Y-130607346D01*
X80579751Y-130799797D01*
X80577066Y-130803486D01*
X80424058Y-131013696D01*
X80424053Y-131013703D01*
X80421370Y-131017390D01*
X80296059Y-131255567D01*
X80206443Y-131509338D01*
X80205560Y-131513820D01*
X80170855Y-131689900D01*
X80154399Y-131773389D01*
X80154172Y-131777942D01*
X80154172Y-131777945D01*
X80143724Y-131987830D01*
X80141018Y-132042186D01*
X79256869Y-132042186D01*
X79256494Y-132035506D01*
X79257262Y-132024579D01*
X79257065Y-132024579D01*
X79257065Y-132012172D01*
X79259486Y-132000000D01*
X79256921Y-131987103D01*
X79254500Y-131962524D01*
X79254500Y-128558708D01*
X98935500Y-128558708D01*
X98938475Y-128590179D01*
X98983260Y-128717710D01*
X98988852Y-128725280D01*
X98988853Y-128725283D01*
X99046971Y-128803966D01*
X99063566Y-128826434D01*
X99071137Y-128832026D01*
X99164717Y-128901147D01*
X99164720Y-128901148D01*
X99172290Y-128906740D01*
X99299821Y-128951525D01*
X99307467Y-128952248D01*
X99307468Y-128952248D01*
X99313070Y-128952777D01*
X99331292Y-128954500D01*
X99828708Y-128954500D01*
X99846930Y-128952777D01*
X99852532Y-128952248D01*
X99852533Y-128952248D01*
X99860179Y-128951525D01*
X99987710Y-128906740D01*
X99995280Y-128901149D01*
X99995287Y-128901145D01*
X100005141Y-128893866D01*
X100071819Y-128869483D01*
X100141095Y-128885020D01*
X100154859Y-128893866D01*
X100164713Y-128901145D01*
X100164720Y-128901149D01*
X100172290Y-128906740D01*
X100299821Y-128951525D01*
X100307467Y-128952248D01*
X100307468Y-128952248D01*
X100313070Y-128952777D01*
X100331292Y-128954500D01*
X100828708Y-128954500D01*
X100846930Y-128952777D01*
X100852532Y-128952248D01*
X100852533Y-128952248D01*
X100860179Y-128951525D01*
X100987710Y-128906740D01*
X100995280Y-128901149D01*
X100995287Y-128901145D01*
X101005141Y-128893866D01*
X101071819Y-128869483D01*
X101141095Y-128885020D01*
X101154859Y-128893866D01*
X101164713Y-128901145D01*
X101164720Y-128901149D01*
X101172290Y-128906740D01*
X101299821Y-128951525D01*
X101307467Y-128952248D01*
X101307468Y-128952248D01*
X101313070Y-128952777D01*
X101331292Y-128954500D01*
X101828708Y-128954500D01*
X101846930Y-128952777D01*
X101852532Y-128952248D01*
X101852533Y-128952248D01*
X101860179Y-128951525D01*
X101987710Y-128906740D01*
X101995280Y-128901149D01*
X101995287Y-128901145D01*
X102005141Y-128893866D01*
X102071819Y-128869483D01*
X102141095Y-128885020D01*
X102154859Y-128893866D01*
X102164713Y-128901145D01*
X102164720Y-128901149D01*
X102172290Y-128906740D01*
X102299821Y-128951525D01*
X102307467Y-128952248D01*
X102307468Y-128952248D01*
X102313070Y-128952777D01*
X102331292Y-128954500D01*
X102828708Y-128954500D01*
X102846930Y-128952777D01*
X102852532Y-128952248D01*
X102852533Y-128952248D01*
X102860179Y-128951525D01*
X102987710Y-128906740D01*
X102995280Y-128901149D01*
X102995287Y-128901145D01*
X103005141Y-128893866D01*
X103071819Y-128869483D01*
X103141095Y-128885020D01*
X103154859Y-128893866D01*
X103164713Y-128901145D01*
X103164720Y-128901149D01*
X103172290Y-128906740D01*
X103299821Y-128951525D01*
X103307467Y-128952248D01*
X103307468Y-128952248D01*
X103313070Y-128952777D01*
X103331292Y-128954500D01*
X103828708Y-128954500D01*
X103846930Y-128952777D01*
X103852532Y-128952248D01*
X103852533Y-128952248D01*
X103860179Y-128951525D01*
X103987710Y-128906740D01*
X103995280Y-128901149D01*
X103995287Y-128901145D01*
X104005141Y-128893866D01*
X104071819Y-128869483D01*
X104141095Y-128885020D01*
X104154859Y-128893866D01*
X104164713Y-128901145D01*
X104164720Y-128901149D01*
X104172290Y-128906740D01*
X104299821Y-128951525D01*
X104307467Y-128952248D01*
X104307468Y-128952248D01*
X104313070Y-128952777D01*
X104331292Y-128954500D01*
X104828708Y-128954500D01*
X104846930Y-128952777D01*
X104852532Y-128952248D01*
X104852533Y-128952248D01*
X104860179Y-128951525D01*
X104987710Y-128906740D01*
X104995280Y-128901149D01*
X104995287Y-128901145D01*
X105005141Y-128893866D01*
X105071819Y-128869483D01*
X105141095Y-128885020D01*
X105154859Y-128893866D01*
X105164713Y-128901145D01*
X105164720Y-128901149D01*
X105172290Y-128906740D01*
X105299821Y-128951525D01*
X105307467Y-128952248D01*
X105307468Y-128952248D01*
X105313070Y-128952777D01*
X105331292Y-128954500D01*
X105828708Y-128954500D01*
X105846930Y-128952777D01*
X105852532Y-128952248D01*
X105852533Y-128952248D01*
X105860179Y-128951525D01*
X105987710Y-128906740D01*
X105995280Y-128901149D01*
X105995287Y-128901145D01*
X106005141Y-128893866D01*
X106071819Y-128869483D01*
X106141095Y-128885020D01*
X106154859Y-128893866D01*
X106164713Y-128901145D01*
X106164720Y-128901149D01*
X106172290Y-128906740D01*
X106299821Y-128951525D01*
X106307467Y-128952248D01*
X106307468Y-128952248D01*
X106313070Y-128952777D01*
X106331292Y-128954500D01*
X106828708Y-128954500D01*
X106846930Y-128952777D01*
X106852532Y-128952248D01*
X106852533Y-128952248D01*
X106860179Y-128951525D01*
X106987710Y-128906740D01*
X106995280Y-128901149D01*
X106995287Y-128901145D01*
X107005141Y-128893866D01*
X107071819Y-128869483D01*
X107141095Y-128885020D01*
X107154859Y-128893866D01*
X107164713Y-128901145D01*
X107164720Y-128901149D01*
X107172290Y-128906740D01*
X107299821Y-128951525D01*
X107307467Y-128952248D01*
X107307468Y-128952248D01*
X107313070Y-128952777D01*
X107331292Y-128954500D01*
X107828708Y-128954500D01*
X107846930Y-128952777D01*
X107852532Y-128952248D01*
X107852533Y-128952248D01*
X107860179Y-128951525D01*
X107987710Y-128906740D01*
X107995280Y-128901149D01*
X107995287Y-128901145D01*
X108005141Y-128893866D01*
X108071819Y-128869483D01*
X108141095Y-128885020D01*
X108154859Y-128893866D01*
X108164713Y-128901145D01*
X108164720Y-128901149D01*
X108172290Y-128906740D01*
X108299821Y-128951525D01*
X108307467Y-128952248D01*
X108307468Y-128952248D01*
X108313070Y-128952777D01*
X108331292Y-128954500D01*
X108828708Y-128954500D01*
X108846930Y-128952777D01*
X108852532Y-128952248D01*
X108852533Y-128952248D01*
X108860179Y-128951525D01*
X108987710Y-128906740D01*
X108995280Y-128901149D01*
X108995287Y-128901145D01*
X109005141Y-128893866D01*
X109071819Y-128869483D01*
X109141095Y-128885020D01*
X109154859Y-128893866D01*
X109164713Y-128901145D01*
X109164720Y-128901149D01*
X109172290Y-128906740D01*
X109299821Y-128951525D01*
X109307467Y-128952248D01*
X109307468Y-128952248D01*
X109313070Y-128952777D01*
X109331292Y-128954500D01*
X109828708Y-128954500D01*
X109846930Y-128952777D01*
X109852532Y-128952248D01*
X109852533Y-128952248D01*
X109860179Y-128951525D01*
X109987710Y-128906740D01*
X109995280Y-128901149D01*
X109995287Y-128901145D01*
X110005141Y-128893866D01*
X110071819Y-128869483D01*
X110141095Y-128885020D01*
X110154859Y-128893866D01*
X110164713Y-128901145D01*
X110164720Y-128901149D01*
X110172290Y-128906740D01*
X110299821Y-128951525D01*
X110307467Y-128952248D01*
X110307468Y-128952248D01*
X110313070Y-128952777D01*
X110331292Y-128954500D01*
X110828708Y-128954500D01*
X110846930Y-128952777D01*
X110852532Y-128952248D01*
X110852533Y-128952248D01*
X110860179Y-128951525D01*
X110987710Y-128906740D01*
X110995280Y-128901148D01*
X110995283Y-128901147D01*
X111088863Y-128832026D01*
X111096434Y-128826434D01*
X111113029Y-128803966D01*
X111171147Y-128725283D01*
X111171148Y-128725280D01*
X111176740Y-128717710D01*
X111221525Y-128590179D01*
X111224500Y-128558708D01*
X111224500Y-126841292D01*
X111221525Y-126809821D01*
X111176740Y-126682290D01*
X111171148Y-126674720D01*
X111171147Y-126674717D01*
X111102026Y-126581137D01*
X111096434Y-126573566D01*
X111073966Y-126556971D01*
X110995283Y-126498853D01*
X110995280Y-126498852D01*
X110987710Y-126493260D01*
X110860179Y-126448475D01*
X110852533Y-126447752D01*
X110852532Y-126447752D01*
X110846930Y-126447223D01*
X110828708Y-126445500D01*
X110331292Y-126445500D01*
X110313070Y-126447223D01*
X110307468Y-126447752D01*
X110307467Y-126447752D01*
X110299821Y-126448475D01*
X110172290Y-126493260D01*
X110164720Y-126498851D01*
X110164713Y-126498855D01*
X110154859Y-126506134D01*
X110088181Y-126530517D01*
X110018905Y-126514980D01*
X110005141Y-126506134D01*
X109995287Y-126498855D01*
X109995280Y-126498851D01*
X109987710Y-126493260D01*
X109860179Y-126448475D01*
X109852533Y-126447752D01*
X109852532Y-126447752D01*
X109846930Y-126447223D01*
X109828708Y-126445500D01*
X109331292Y-126445500D01*
X109313070Y-126447223D01*
X109307468Y-126447752D01*
X109307467Y-126447752D01*
X109299821Y-126448475D01*
X109172290Y-126493260D01*
X109164720Y-126498851D01*
X109164713Y-126498855D01*
X109154859Y-126506134D01*
X109088181Y-126530517D01*
X109018905Y-126514980D01*
X109005141Y-126506134D01*
X108995287Y-126498855D01*
X108995280Y-126498851D01*
X108987710Y-126493260D01*
X108860179Y-126448475D01*
X108852533Y-126447752D01*
X108852532Y-126447752D01*
X108846930Y-126447223D01*
X108828708Y-126445500D01*
X108331292Y-126445500D01*
X108313070Y-126447223D01*
X108307468Y-126447752D01*
X108307467Y-126447752D01*
X108299821Y-126448475D01*
X108172290Y-126493260D01*
X108164720Y-126498851D01*
X108164713Y-126498855D01*
X108154859Y-126506134D01*
X108088181Y-126530517D01*
X108018905Y-126514980D01*
X108005141Y-126506134D01*
X107995287Y-126498855D01*
X107995280Y-126498851D01*
X107987710Y-126493260D01*
X107860179Y-126448475D01*
X107852533Y-126447752D01*
X107852532Y-126447752D01*
X107846930Y-126447223D01*
X107828708Y-126445500D01*
X107331292Y-126445500D01*
X107313070Y-126447223D01*
X107307468Y-126447752D01*
X107307467Y-126447752D01*
X107299821Y-126448475D01*
X107172290Y-126493260D01*
X107164720Y-126498851D01*
X107164713Y-126498855D01*
X107154859Y-126506134D01*
X107088181Y-126530517D01*
X107018905Y-126514980D01*
X107005141Y-126506134D01*
X106995287Y-126498855D01*
X106995280Y-126498851D01*
X106987710Y-126493260D01*
X106860179Y-126448475D01*
X106852533Y-126447752D01*
X106852532Y-126447752D01*
X106846930Y-126447223D01*
X106828708Y-126445500D01*
X106331292Y-126445500D01*
X106313070Y-126447223D01*
X106307468Y-126447752D01*
X106307467Y-126447752D01*
X106299821Y-126448475D01*
X106172290Y-126493260D01*
X106164720Y-126498851D01*
X106164713Y-126498855D01*
X106154859Y-126506134D01*
X106088181Y-126530517D01*
X106018905Y-126514980D01*
X106005141Y-126506134D01*
X105995287Y-126498855D01*
X105995280Y-126498851D01*
X105987710Y-126493260D01*
X105860179Y-126448475D01*
X105852533Y-126447752D01*
X105852532Y-126447752D01*
X105846930Y-126447223D01*
X105828708Y-126445500D01*
X105331292Y-126445500D01*
X105313070Y-126447223D01*
X105307468Y-126447752D01*
X105307467Y-126447752D01*
X105299821Y-126448475D01*
X105172290Y-126493260D01*
X105164720Y-126498851D01*
X105164713Y-126498855D01*
X105154859Y-126506134D01*
X105088181Y-126530517D01*
X105018905Y-126514980D01*
X105005141Y-126506134D01*
X104995287Y-126498855D01*
X104995280Y-126498851D01*
X104987710Y-126493260D01*
X104860179Y-126448475D01*
X104852533Y-126447752D01*
X104852532Y-126447752D01*
X104846930Y-126447223D01*
X104828708Y-126445500D01*
X104331292Y-126445500D01*
X104313070Y-126447223D01*
X104307468Y-126447752D01*
X104307467Y-126447752D01*
X104299821Y-126448475D01*
X104172290Y-126493260D01*
X104164720Y-126498851D01*
X104164713Y-126498855D01*
X104154859Y-126506134D01*
X104088181Y-126530517D01*
X104018905Y-126514980D01*
X104005141Y-126506134D01*
X103995287Y-126498855D01*
X103995280Y-126498851D01*
X103987710Y-126493260D01*
X103860179Y-126448475D01*
X103852533Y-126447752D01*
X103852532Y-126447752D01*
X103846930Y-126447223D01*
X103828708Y-126445500D01*
X103331292Y-126445500D01*
X103313070Y-126447223D01*
X103307468Y-126447752D01*
X103307467Y-126447752D01*
X103299821Y-126448475D01*
X103172290Y-126493260D01*
X103164720Y-126498851D01*
X103164713Y-126498855D01*
X103154859Y-126506134D01*
X103088181Y-126530517D01*
X103018905Y-126514980D01*
X103005141Y-126506134D01*
X102995287Y-126498855D01*
X102995280Y-126498851D01*
X102987710Y-126493260D01*
X102860179Y-126448475D01*
X102852533Y-126447752D01*
X102852532Y-126447752D01*
X102846930Y-126447223D01*
X102828708Y-126445500D01*
X102331292Y-126445500D01*
X102313070Y-126447223D01*
X102307468Y-126447752D01*
X102307467Y-126447752D01*
X102299821Y-126448475D01*
X102172290Y-126493260D01*
X102164720Y-126498851D01*
X102164713Y-126498855D01*
X102154859Y-126506134D01*
X102088181Y-126530517D01*
X102018905Y-126514980D01*
X102005141Y-126506134D01*
X101995287Y-126498855D01*
X101995280Y-126498851D01*
X101987710Y-126493260D01*
X101860179Y-126448475D01*
X101852533Y-126447752D01*
X101852532Y-126447752D01*
X101846930Y-126447223D01*
X101828708Y-126445500D01*
X101331292Y-126445500D01*
X101313070Y-126447223D01*
X101307468Y-126447752D01*
X101307467Y-126447752D01*
X101299821Y-126448475D01*
X101172290Y-126493260D01*
X101164720Y-126498851D01*
X101164713Y-126498855D01*
X101154859Y-126506134D01*
X101088181Y-126530517D01*
X101018905Y-126514980D01*
X101005141Y-126506134D01*
X100995287Y-126498855D01*
X100995280Y-126498851D01*
X100987710Y-126493260D01*
X100860179Y-126448475D01*
X100852533Y-126447752D01*
X100852532Y-126447752D01*
X100846930Y-126447223D01*
X100828708Y-126445500D01*
X100331292Y-126445500D01*
X100313070Y-126447223D01*
X100307468Y-126447752D01*
X100307467Y-126447752D01*
X100299821Y-126448475D01*
X100172290Y-126493260D01*
X100164720Y-126498851D01*
X100164713Y-126498855D01*
X100154859Y-126506134D01*
X100088181Y-126530517D01*
X100018905Y-126514980D01*
X100005141Y-126506134D01*
X99995287Y-126498855D01*
X99995280Y-126498851D01*
X99987710Y-126493260D01*
X99860179Y-126448475D01*
X99852533Y-126447752D01*
X99852532Y-126447752D01*
X99846930Y-126447223D01*
X99828708Y-126445500D01*
X99331292Y-126445500D01*
X99313070Y-126447223D01*
X99307468Y-126447752D01*
X99307467Y-126447752D01*
X99299821Y-126448475D01*
X99172290Y-126493260D01*
X99164720Y-126498852D01*
X99164717Y-126498853D01*
X99086034Y-126556971D01*
X99063566Y-126573566D01*
X99057974Y-126581137D01*
X98988853Y-126674717D01*
X98988852Y-126674720D01*
X98983260Y-126682290D01*
X98938475Y-126809821D01*
X98935500Y-126841292D01*
X98935500Y-128558708D01*
X79254500Y-128558708D01*
X79254500Y-121501451D01*
X83473722Y-121501451D01*
X83489569Y-121690171D01*
X83541770Y-121872218D01*
X83544588Y-121877700D01*
X83544589Y-121877704D01*
X83625516Y-122035171D01*
X83625519Y-122035175D01*
X83628337Y-122040659D01*
X83650797Y-122068996D01*
X83742143Y-122184248D01*
X83742147Y-122184253D01*
X83745972Y-122189078D01*
X83750665Y-122193072D01*
X83750666Y-122193073D01*
X83849202Y-122276933D01*
X83890195Y-122311821D01*
X84055512Y-122404214D01*
X84235627Y-122462736D01*
X84423678Y-122485160D01*
X84429813Y-122484688D01*
X84429814Y-122484688D01*
X84477392Y-122481027D01*
X84609615Y-122470853D01*
X84679068Y-122485570D01*
X84729540Y-122535501D01*
X84745006Y-122604793D01*
X84720554Y-122671446D01*
X84715802Y-122677473D01*
X84659332Y-122744771D01*
X84656369Y-122750160D01*
X84656366Y-122750165D01*
X84619310Y-122817570D01*
X84568096Y-122910729D01*
X84566235Y-122916596D01*
X84566234Y-122916598D01*
X84530341Y-123029748D01*
X84510832Y-123091248D01*
X84489722Y-123279451D01*
X84490238Y-123285595D01*
X84504884Y-123460011D01*
X84505569Y-123468171D01*
X84557770Y-123650218D01*
X84560588Y-123655700D01*
X84560589Y-123655704D01*
X84641516Y-123813171D01*
X84641519Y-123813175D01*
X84644337Y-123818659D01*
X84663496Y-123842832D01*
X84758143Y-123962248D01*
X84758147Y-123962253D01*
X84761972Y-123967078D01*
X84906195Y-124089821D01*
X85071512Y-124182214D01*
X85251627Y-124240736D01*
X85439678Y-124263160D01*
X85445813Y-124262688D01*
X85445815Y-124262688D01*
X85622362Y-124249104D01*
X85622366Y-124249103D01*
X85628504Y-124248631D01*
X85634436Y-124246975D01*
X85634440Y-124246974D01*
X85719708Y-124223166D01*
X85810911Y-124197702D01*
X85979952Y-124112313D01*
X85993781Y-124101509D01*
X86124327Y-123999515D01*
X86124328Y-123999514D01*
X86129188Y-123995717D01*
X86252935Y-123852354D01*
X86346480Y-123687686D01*
X86355358Y-123660998D01*
X86395840Y-123602673D01*
X86461428Y-123575494D01*
X86531298Y-123588089D01*
X86583268Y-123636459D01*
X86589416Y-123648983D01*
X86589770Y-123650218D01*
X86592592Y-123655709D01*
X86673516Y-123813171D01*
X86673519Y-123813175D01*
X86676337Y-123818659D01*
X86695496Y-123842832D01*
X86790143Y-123962248D01*
X86790147Y-123962253D01*
X86793972Y-123967078D01*
X86938195Y-124089821D01*
X87103512Y-124182214D01*
X87283627Y-124240736D01*
X87471678Y-124263160D01*
X87477813Y-124262688D01*
X87477815Y-124262688D01*
X87654362Y-124249104D01*
X87654366Y-124249103D01*
X87660504Y-124248631D01*
X87666436Y-124246975D01*
X87666440Y-124246974D01*
X87751708Y-124223166D01*
X87842911Y-124197702D01*
X88011952Y-124112313D01*
X88025781Y-124101509D01*
X88156327Y-123999515D01*
X88156328Y-123999514D01*
X88161188Y-123995717D01*
X88284935Y-123852354D01*
X88378480Y-123687686D01*
X88387358Y-123660998D01*
X88427840Y-123602673D01*
X88493428Y-123575494D01*
X88563298Y-123588089D01*
X88615268Y-123636459D01*
X88621416Y-123648983D01*
X88621770Y-123650218D01*
X88624592Y-123655709D01*
X88705516Y-123813171D01*
X88705519Y-123813175D01*
X88708337Y-123818659D01*
X88727496Y-123842832D01*
X88822143Y-123962248D01*
X88822147Y-123962253D01*
X88825972Y-123967078D01*
X88900721Y-124030694D01*
X88925163Y-124051496D01*
X88964076Y-124110879D01*
X88969500Y-124147450D01*
X88969500Y-124254585D01*
X88969390Y-124259861D01*
X88966772Y-124322334D01*
X88968734Y-124330699D01*
X88976788Y-124365038D01*
X88978951Y-124376711D01*
X88984905Y-124420178D01*
X88988317Y-124428062D01*
X88990953Y-124434154D01*
X88997987Y-124455423D01*
X89001463Y-124470243D01*
X89022603Y-124508697D01*
X89027818Y-124519343D01*
X89041830Y-124551723D01*
X89041832Y-124551727D01*
X89045242Y-124559606D01*
X89050646Y-124566279D01*
X89050647Y-124566281D01*
X89054821Y-124571435D01*
X89067312Y-124590023D01*
X89074652Y-124603375D01*
X89081710Y-124611551D01*
X89106453Y-124636294D01*
X89115279Y-124646095D01*
X89135444Y-124670998D01*
X89135447Y-124671001D01*
X89140850Y-124677673D01*
X89147852Y-124682649D01*
X89147853Y-124682650D01*
X89156354Y-124688691D01*
X89172461Y-124702302D01*
X89971233Y-125501075D01*
X89974885Y-125504883D01*
X90017204Y-125550904D01*
X90054483Y-125574018D01*
X90064246Y-125580727D01*
X90065582Y-125581741D01*
X90092371Y-125602076D01*
X90092374Y-125602078D01*
X90099212Y-125607268D01*
X90113374Y-125612875D01*
X90133388Y-125622941D01*
X90146322Y-125630961D01*
X90154568Y-125633357D01*
X90154573Y-125633359D01*
X90188452Y-125643202D01*
X90199678Y-125647044D01*
X90240467Y-125663194D01*
X90254675Y-125664687D01*
X90255607Y-125664785D01*
X90277587Y-125669098D01*
X90285868Y-125671504D01*
X90285873Y-125671505D01*
X90292213Y-125673347D01*
X90298794Y-125673830D01*
X90298798Y-125673831D01*
X90299675Y-125673895D01*
X90302985Y-125674138D01*
X90337990Y-125674138D01*
X90351160Y-125674828D01*
X90391559Y-125679074D01*
X90400026Y-125677642D01*
X90400027Y-125677642D01*
X90410314Y-125675902D01*
X90431326Y-125674138D01*
X98931345Y-125674138D01*
X98936621Y-125674248D01*
X98999094Y-125676866D01*
X99041796Y-125666850D01*
X99053471Y-125664687D01*
X99087447Y-125660033D01*
X99096938Y-125658733D01*
X99110913Y-125652685D01*
X99132183Y-125645651D01*
X99138642Y-125644136D01*
X99147003Y-125642175D01*
X99185457Y-125621035D01*
X99196103Y-125615820D01*
X99228483Y-125601808D01*
X99228487Y-125601806D01*
X99236366Y-125598396D01*
X99248195Y-125588817D01*
X99266783Y-125576326D01*
X99280135Y-125568986D01*
X99285665Y-125564212D01*
X99286560Y-125563440D01*
X99286567Y-125563434D01*
X99288311Y-125561928D01*
X99313054Y-125537185D01*
X99322855Y-125528359D01*
X99347758Y-125508194D01*
X99347761Y-125508191D01*
X99354433Y-125502788D01*
X99365458Y-125487274D01*
X99379065Y-125471174D01*
X100355947Y-124494292D01*
X114646001Y-124494292D01*
X114646370Y-124501110D01*
X114651841Y-124551482D01*
X114655470Y-124566741D01*
X114700222Y-124686118D01*
X114708754Y-124701704D01*
X114784572Y-124802867D01*
X114797133Y-124815428D01*
X114898296Y-124891246D01*
X114913882Y-124899778D01*
X115033265Y-124944533D01*
X115048510Y-124948158D01*
X115098892Y-124953631D01*
X115105706Y-124954000D01*
X115227885Y-124954000D01*
X115243124Y-124949525D01*
X115244329Y-124948135D01*
X115246000Y-124940452D01*
X115246000Y-124935884D01*
X115754000Y-124935884D01*
X115758475Y-124951123D01*
X115759865Y-124952328D01*
X115767548Y-124953999D01*
X115894292Y-124953999D01*
X115901110Y-124953630D01*
X115951482Y-124948159D01*
X115966741Y-124944530D01*
X116086118Y-124899778D01*
X116101704Y-124891246D01*
X116202867Y-124815428D01*
X116215428Y-124802867D01*
X116291246Y-124701704D01*
X116299778Y-124686118D01*
X116344533Y-124566735D01*
X116348158Y-124551490D01*
X116353631Y-124501108D01*
X116354000Y-124494294D01*
X116354000Y-124272115D01*
X116349525Y-124256876D01*
X116348135Y-124255671D01*
X116340452Y-124254000D01*
X115772115Y-124254000D01*
X115756876Y-124258475D01*
X115755671Y-124259865D01*
X115754000Y-124267548D01*
X115754000Y-124935884D01*
X115246000Y-124935884D01*
X115246000Y-124272115D01*
X115241525Y-124256876D01*
X115240135Y-124255671D01*
X115232452Y-124254000D01*
X114664116Y-124254000D01*
X114648877Y-124258475D01*
X114647672Y-124259865D01*
X114646001Y-124267548D01*
X114646001Y-124494292D01*
X100355947Y-124494292D01*
X100961413Y-123888826D01*
X100965221Y-123885173D01*
X101004948Y-123848642D01*
X101004949Y-123848641D01*
X101011266Y-123842832D01*
X101023258Y-123823492D01*
X101034381Y-123805552D01*
X101041104Y-123795770D01*
X101062438Y-123767663D01*
X101067630Y-123760823D01*
X101073237Y-123746662D01*
X101082682Y-123727885D01*
X114646000Y-123727885D01*
X114650475Y-123743124D01*
X114651865Y-123744329D01*
X114659548Y-123746000D01*
X116335884Y-123746000D01*
X116351123Y-123741525D01*
X116352328Y-123740135D01*
X116353999Y-123732452D01*
X116353999Y-123505708D01*
X116353630Y-123498890D01*
X116348159Y-123448518D01*
X116344530Y-123433259D01*
X116299778Y-123313882D01*
X116291246Y-123298296D01*
X116215428Y-123197133D01*
X116202867Y-123184572D01*
X116101709Y-123108758D01*
X116079649Y-123096681D01*
X116029503Y-123046423D01*
X116014488Y-122977032D01*
X116039372Y-122910540D01*
X116064590Y-122885336D01*
X116162189Y-122812189D01*
X116247783Y-122697982D01*
X116297881Y-122564342D01*
X116304500Y-122503415D01*
X116304500Y-122463991D01*
X116324502Y-122395870D01*
X116337085Y-122379436D01*
X116416523Y-122291674D01*
X116416524Y-122291672D01*
X116422551Y-122285014D01*
X116456109Y-122215750D01*
X116503811Y-122163167D01*
X116572369Y-122144721D01*
X116640017Y-122166268D01*
X116685277Y-122220968D01*
X116695501Y-122270687D01*
X116695501Y-122503414D01*
X116702119Y-122564342D01*
X116752217Y-122697982D01*
X116837811Y-122812189D01*
X116934965Y-122885002D01*
X116977479Y-122941860D01*
X116982505Y-123012679D01*
X116948445Y-123074972D01*
X116919908Y-123096347D01*
X116913641Y-123099778D01*
X116905236Y-123102929D01*
X116898052Y-123108313D01*
X116848046Y-123145790D01*
X116789596Y-123189596D01*
X116784215Y-123196776D01*
X116708311Y-123298054D01*
X116708309Y-123298057D01*
X116702929Y-123305236D01*
X116652202Y-123440552D01*
X116651349Y-123448402D01*
X116651349Y-123448403D01*
X116649168Y-123468477D01*
X116645500Y-123502244D01*
X116645500Y-124497756D01*
X116652202Y-124559448D01*
X116654974Y-124566841D01*
X116654974Y-124566843D01*
X116659971Y-124580173D01*
X116702929Y-124694764D01*
X116708309Y-124701943D01*
X116708311Y-124701946D01*
X116708578Y-124702302D01*
X116789596Y-124810404D01*
X116796776Y-124815785D01*
X116898054Y-124891689D01*
X116898057Y-124891691D01*
X116905236Y-124897071D01*
X116994954Y-124930704D01*
X117033157Y-124945026D01*
X117033159Y-124945026D01*
X117040552Y-124947798D01*
X117048402Y-124948651D01*
X117048403Y-124948651D01*
X117097632Y-124953999D01*
X117102244Y-124954500D01*
X117897756Y-124954500D01*
X117902368Y-124953999D01*
X117951597Y-124948651D01*
X117951598Y-124948651D01*
X117959448Y-124947798D01*
X117966841Y-124945026D01*
X117966843Y-124945026D01*
X118005046Y-124930704D01*
X118094764Y-124897071D01*
X118101943Y-124891691D01*
X118101946Y-124891689D01*
X118203224Y-124815785D01*
X118210404Y-124810404D01*
X118291422Y-124702302D01*
X118291689Y-124701946D01*
X118291691Y-124701943D01*
X118297071Y-124694764D01*
X118340029Y-124580173D01*
X118345026Y-124566843D01*
X118345026Y-124566841D01*
X118347798Y-124559448D01*
X118354500Y-124497756D01*
X118354500Y-123502244D01*
X118350832Y-123468477D01*
X118348651Y-123448403D01*
X118348651Y-123448402D01*
X118347798Y-123440552D01*
X118297071Y-123305236D01*
X118291691Y-123298057D01*
X118291689Y-123298054D01*
X118215785Y-123196776D01*
X118210404Y-123189596D01*
X118189977Y-123174287D01*
X118101946Y-123108311D01*
X118101943Y-123108309D01*
X118094764Y-123102929D01*
X118013296Y-123072389D01*
X117956532Y-123029748D01*
X117931832Y-122963187D01*
X117947039Y-122893838D01*
X117981960Y-122853582D01*
X118030007Y-122817572D01*
X118030009Y-122817570D01*
X118037189Y-122812189D01*
X118122783Y-122697982D01*
X118172881Y-122564342D01*
X118179500Y-122503415D01*
X118179499Y-121496586D01*
X118172881Y-121435658D01*
X118122783Y-121302018D01*
X118060665Y-121219134D01*
X118042571Y-121194992D01*
X118037189Y-121187811D01*
X117988233Y-121151120D01*
X117930166Y-121107601D01*
X117930165Y-121107601D01*
X117922982Y-121102217D01*
X117796745Y-121054894D01*
X117796740Y-121054892D01*
X117796738Y-121054891D01*
X117789342Y-121052119D01*
X117728415Y-121045500D01*
X117437543Y-121045500D01*
X117146586Y-121045501D01*
X117143192Y-121045870D01*
X117143186Y-121045870D01*
X117093517Y-121051265D01*
X117093514Y-121051266D01*
X117085658Y-121052119D01*
X116952018Y-121102217D01*
X116944835Y-121107601D01*
X116944834Y-121107601D01*
X116886767Y-121151120D01*
X116837811Y-121187811D01*
X116832429Y-121194992D01*
X116814336Y-121219134D01*
X116752217Y-121302018D01*
X116702119Y-121435658D01*
X116695500Y-121496585D01*
X116695500Y-121729134D01*
X116675498Y-121797255D01*
X116621842Y-121843748D01*
X116551568Y-121853852D01*
X116486988Y-121824358D01*
X116454799Y-121781284D01*
X116433106Y-121733571D01*
X116433104Y-121733568D01*
X116429388Y-121725395D01*
X116423530Y-121718596D01*
X116423527Y-121718592D01*
X116335056Y-121615918D01*
X116337752Y-121613595D01*
X116308956Y-121566878D01*
X116304499Y-121533661D01*
X116304499Y-121496586D01*
X116297881Y-121435658D01*
X116247783Y-121302018D01*
X116185665Y-121219134D01*
X116167571Y-121194992D01*
X116162189Y-121187811D01*
X116113233Y-121151120D01*
X116055166Y-121107601D01*
X116055165Y-121107601D01*
X116047982Y-121102217D01*
X115921745Y-121054894D01*
X115921740Y-121054892D01*
X115921738Y-121054891D01*
X115914342Y-121052119D01*
X115853415Y-121045500D01*
X115562543Y-121045500D01*
X115271586Y-121045501D01*
X115268192Y-121045870D01*
X115268186Y-121045870D01*
X115218517Y-121051265D01*
X115218514Y-121051266D01*
X115210658Y-121052119D01*
X115077018Y-121102217D01*
X115069835Y-121107601D01*
X115069834Y-121107601D01*
X115011767Y-121151120D01*
X114962811Y-121187811D01*
X114957429Y-121194992D01*
X114939336Y-121219134D01*
X114877217Y-121302018D01*
X114827119Y-121435658D01*
X114820500Y-121496585D01*
X114820501Y-122503414D01*
X114827119Y-122564342D01*
X114877217Y-122697982D01*
X114962811Y-122812189D01*
X115018515Y-122853937D01*
X115061029Y-122910795D01*
X115066055Y-122981614D01*
X115031995Y-123043907D01*
X114987179Y-123072744D01*
X114913880Y-123100223D01*
X114898296Y-123108754D01*
X114797133Y-123184572D01*
X114784572Y-123197133D01*
X114708754Y-123298296D01*
X114700222Y-123313882D01*
X114655467Y-123433265D01*
X114651842Y-123448510D01*
X114646369Y-123498892D01*
X114646000Y-123505706D01*
X114646000Y-123727885D01*
X101082682Y-123727885D01*
X101083300Y-123726656D01*
X101086794Y-123721021D01*
X101086798Y-123721012D01*
X101091323Y-123713714D01*
X101103565Y-123671578D01*
X101107409Y-123660351D01*
X101113767Y-123644292D01*
X101123556Y-123619568D01*
X101125148Y-123604425D01*
X101129459Y-123582452D01*
X101131867Y-123574162D01*
X101133709Y-123567823D01*
X101134500Y-123557051D01*
X101134500Y-123522053D01*
X101135190Y-123508882D01*
X101138539Y-123477021D01*
X101139437Y-123468477D01*
X101136263Y-123449712D01*
X101134500Y-123428710D01*
X101134500Y-119670940D01*
X101154502Y-119602819D01*
X101208158Y-119556326D01*
X101278432Y-119546222D01*
X101287505Y-119547868D01*
X101292576Y-119548981D01*
X101299821Y-119551525D01*
X101307460Y-119552247D01*
X101307464Y-119552248D01*
X101320136Y-119553445D01*
X101331292Y-119554500D01*
X101828708Y-119554500D01*
X101846930Y-119552777D01*
X101852532Y-119552248D01*
X101852533Y-119552248D01*
X101860179Y-119551525D01*
X101987710Y-119506740D01*
X101995280Y-119501149D01*
X101995287Y-119501145D01*
X102005141Y-119493866D01*
X102071819Y-119469483D01*
X102141095Y-119485020D01*
X102154859Y-119493866D01*
X102164713Y-119501145D01*
X102164720Y-119501149D01*
X102172290Y-119506740D01*
X102181171Y-119509859D01*
X102189501Y-119514269D01*
X102187871Y-119517348D01*
X102227457Y-119544710D01*
X102234262Y-119552805D01*
X102240276Y-119559960D01*
X102247747Y-119564933D01*
X102247748Y-119564934D01*
X102353101Y-119635063D01*
X102353103Y-119635064D01*
X102360574Y-119640037D01*
X102369138Y-119642713D01*
X102369141Y-119642714D01*
X102429542Y-119661584D01*
X102498510Y-119683132D01*
X102642998Y-119685780D01*
X102662530Y-119680455D01*
X102773763Y-119650130D01*
X102773765Y-119650129D01*
X102782422Y-119647769D01*
X102905572Y-119572154D01*
X102932623Y-119542268D01*
X102971611Y-119516367D01*
X102970499Y-119514267D01*
X102978818Y-119509863D01*
X102987710Y-119506740D01*
X102995292Y-119501140D01*
X103005141Y-119493866D01*
X103071819Y-119469483D01*
X103141095Y-119485020D01*
X103154859Y-119493866D01*
X103164713Y-119501145D01*
X103164720Y-119501149D01*
X103172290Y-119506740D01*
X103181171Y-119509859D01*
X103189501Y-119514269D01*
X103187871Y-119517348D01*
X103227457Y-119544710D01*
X103234262Y-119552805D01*
X103240276Y-119559960D01*
X103247747Y-119564933D01*
X103247748Y-119564934D01*
X103353101Y-119635063D01*
X103353103Y-119635064D01*
X103360574Y-119640037D01*
X103369138Y-119642713D01*
X103369141Y-119642714D01*
X103429542Y-119661584D01*
X103498510Y-119683132D01*
X103642998Y-119685780D01*
X103662530Y-119680455D01*
X103773763Y-119650130D01*
X103773765Y-119650129D01*
X103782422Y-119647769D01*
X103905572Y-119572154D01*
X103932623Y-119542268D01*
X103971611Y-119516367D01*
X103970499Y-119514267D01*
X103978818Y-119509863D01*
X103987710Y-119506740D01*
X103995292Y-119501140D01*
X104005141Y-119493866D01*
X104071819Y-119469483D01*
X104141095Y-119485020D01*
X104154859Y-119493866D01*
X104164713Y-119501145D01*
X104164720Y-119501149D01*
X104172290Y-119506740D01*
X104299821Y-119551525D01*
X104307467Y-119552248D01*
X104307468Y-119552248D01*
X104313070Y-119552777D01*
X104331292Y-119554500D01*
X104828708Y-119554500D01*
X104846930Y-119552777D01*
X104852532Y-119552248D01*
X104852533Y-119552248D01*
X104860179Y-119551525D01*
X104987710Y-119506740D01*
X104995280Y-119501149D01*
X104995287Y-119501145D01*
X105005141Y-119493866D01*
X105071819Y-119469483D01*
X105141095Y-119485020D01*
X105154859Y-119493866D01*
X105164713Y-119501145D01*
X105164720Y-119501149D01*
X105172290Y-119506740D01*
X105181171Y-119509859D01*
X105189501Y-119514269D01*
X105187871Y-119517348D01*
X105227457Y-119544710D01*
X105234262Y-119552805D01*
X105240276Y-119559960D01*
X105247747Y-119564933D01*
X105247748Y-119564934D01*
X105353101Y-119635063D01*
X105353103Y-119635064D01*
X105360574Y-119640037D01*
X105369138Y-119642713D01*
X105369141Y-119642714D01*
X105429542Y-119661584D01*
X105498510Y-119683132D01*
X105642998Y-119685780D01*
X105662530Y-119680455D01*
X105773763Y-119650130D01*
X105773765Y-119650129D01*
X105782422Y-119647769D01*
X105905572Y-119572154D01*
X105932623Y-119542268D01*
X105971611Y-119516367D01*
X105970499Y-119514267D01*
X105978818Y-119509863D01*
X105987710Y-119506740D01*
X105995292Y-119501140D01*
X106005141Y-119493866D01*
X106071819Y-119469483D01*
X106141095Y-119485020D01*
X106154859Y-119493866D01*
X106164713Y-119501145D01*
X106164720Y-119501149D01*
X106172290Y-119506740D01*
X106181171Y-119509859D01*
X106189501Y-119514269D01*
X106187871Y-119517348D01*
X106227457Y-119544710D01*
X106234262Y-119552805D01*
X106240276Y-119559960D01*
X106247747Y-119564933D01*
X106247748Y-119564934D01*
X106353101Y-119635063D01*
X106353103Y-119635064D01*
X106360574Y-119640037D01*
X106369138Y-119642713D01*
X106369141Y-119642714D01*
X106429542Y-119661584D01*
X106498510Y-119683132D01*
X106642998Y-119685780D01*
X106662530Y-119680455D01*
X106773763Y-119650130D01*
X106773765Y-119650129D01*
X106782422Y-119647769D01*
X106905572Y-119572154D01*
X106932623Y-119542268D01*
X106971611Y-119516367D01*
X106970499Y-119514267D01*
X106978818Y-119509863D01*
X106987710Y-119506740D01*
X106995292Y-119501140D01*
X107005141Y-119493866D01*
X107071819Y-119469483D01*
X107141095Y-119485020D01*
X107154859Y-119493866D01*
X107164713Y-119501145D01*
X107164720Y-119501149D01*
X107172290Y-119506740D01*
X107299821Y-119551525D01*
X107307467Y-119552248D01*
X107307468Y-119552248D01*
X107313070Y-119552777D01*
X107331292Y-119554500D01*
X107828708Y-119554500D01*
X107846930Y-119552777D01*
X107852532Y-119552248D01*
X107852533Y-119552248D01*
X107860179Y-119551525D01*
X107987710Y-119506740D01*
X107995280Y-119501149D01*
X107995287Y-119501145D01*
X108005141Y-119493866D01*
X108071819Y-119469483D01*
X108141095Y-119485020D01*
X108154859Y-119493866D01*
X108164713Y-119501145D01*
X108164720Y-119501149D01*
X108172290Y-119506740D01*
X108181171Y-119509859D01*
X108189501Y-119514269D01*
X108187871Y-119517348D01*
X108227457Y-119544710D01*
X108234262Y-119552805D01*
X108240276Y-119559960D01*
X108247747Y-119564933D01*
X108247748Y-119564934D01*
X108353101Y-119635063D01*
X108353103Y-119635064D01*
X108360574Y-119640037D01*
X108369138Y-119642713D01*
X108369141Y-119642714D01*
X108429542Y-119661584D01*
X108498510Y-119683132D01*
X108642998Y-119685780D01*
X108662530Y-119680455D01*
X108773763Y-119650130D01*
X108773765Y-119650129D01*
X108782422Y-119647769D01*
X108905572Y-119572154D01*
X108932623Y-119542268D01*
X108971611Y-119516367D01*
X108970499Y-119514267D01*
X108978818Y-119509863D01*
X108987710Y-119506740D01*
X108995292Y-119501140D01*
X109005141Y-119493866D01*
X109071819Y-119469483D01*
X109141095Y-119485020D01*
X109154859Y-119493866D01*
X109164713Y-119501145D01*
X109164720Y-119501149D01*
X109172290Y-119506740D01*
X109181171Y-119509859D01*
X109189501Y-119514269D01*
X109187871Y-119517348D01*
X109227457Y-119544710D01*
X109234262Y-119552805D01*
X109240276Y-119559960D01*
X109247747Y-119564933D01*
X109247748Y-119564934D01*
X109353101Y-119635063D01*
X109353103Y-119635064D01*
X109360574Y-119640037D01*
X109369138Y-119642713D01*
X109369141Y-119642714D01*
X109429542Y-119661584D01*
X109498510Y-119683132D01*
X109642998Y-119685780D01*
X109662530Y-119680455D01*
X109773763Y-119650130D01*
X109773765Y-119650129D01*
X109782422Y-119647769D01*
X109905572Y-119572154D01*
X109932623Y-119542268D01*
X109971611Y-119516367D01*
X109970499Y-119514267D01*
X109978818Y-119509863D01*
X109987710Y-119506740D01*
X109995292Y-119501140D01*
X110005141Y-119493866D01*
X110071819Y-119469483D01*
X110141095Y-119485020D01*
X110154859Y-119493866D01*
X110164713Y-119501145D01*
X110164720Y-119501149D01*
X110172290Y-119506740D01*
X110299821Y-119551525D01*
X110307467Y-119552248D01*
X110307468Y-119552248D01*
X110313070Y-119552777D01*
X110331292Y-119554500D01*
X110828708Y-119554500D01*
X110846930Y-119552777D01*
X110852532Y-119552248D01*
X110852533Y-119552248D01*
X110860179Y-119551525D01*
X110987710Y-119506740D01*
X110995280Y-119501148D01*
X110995283Y-119501147D01*
X111088863Y-119432026D01*
X111096434Y-119426434D01*
X111113029Y-119403966D01*
X111171147Y-119325283D01*
X111171148Y-119325280D01*
X111176740Y-119317710D01*
X111221525Y-119190179D01*
X111224500Y-119158708D01*
X111224500Y-117441292D01*
X111221525Y-117409821D01*
X111176740Y-117282290D01*
X111171148Y-117274720D01*
X111171147Y-117274717D01*
X111159149Y-117258474D01*
X111134766Y-117191796D01*
X111134500Y-117183614D01*
X111134500Y-114098152D01*
X111134610Y-114092876D01*
X111137228Y-114030404D01*
X111127212Y-113987700D01*
X111125049Y-113976027D01*
X111120261Y-113941073D01*
X111119095Y-113932560D01*
X111113047Y-113918584D01*
X111106013Y-113897315D01*
X111104498Y-113890856D01*
X111102537Y-113882495D01*
X111081397Y-113844041D01*
X111076182Y-113833395D01*
X111062170Y-113801015D01*
X111062168Y-113801011D01*
X111058758Y-113793132D01*
X111049179Y-113781303D01*
X111036688Y-113762715D01*
X111029348Y-113749363D01*
X111022290Y-113741187D01*
X110997547Y-113716444D01*
X110988721Y-113706643D01*
X110968556Y-113681740D01*
X110968553Y-113681737D01*
X110963150Y-113675065D01*
X110947636Y-113664040D01*
X110931536Y-113650433D01*
X109244391Y-111963288D01*
X109240738Y-111959480D01*
X109204207Y-111919753D01*
X109204206Y-111919752D01*
X109198397Y-111913435D01*
X109161117Y-111890320D01*
X109151335Y-111883597D01*
X109123228Y-111862263D01*
X109123229Y-111862263D01*
X109116388Y-111857071D01*
X109106676Y-111853226D01*
X109102227Y-111851464D01*
X109082221Y-111841401D01*
X109076586Y-111837907D01*
X109076577Y-111837903D01*
X109069279Y-111833378D01*
X109027144Y-111821136D01*
X109015921Y-111817294D01*
X108975133Y-111801145D01*
X108961525Y-111799714D01*
X108959990Y-111799553D01*
X108938017Y-111795242D01*
X108923388Y-111790992D01*
X108912616Y-111790201D01*
X108877618Y-111790201D01*
X108864447Y-111789511D01*
X108854230Y-111788437D01*
X108850396Y-111788034D01*
X108832586Y-111786162D01*
X108824042Y-111785264D01*
X108805277Y-111788438D01*
X108784275Y-111790201D01*
X94377811Y-111790201D01*
X94309690Y-111770199D01*
X94288716Y-111753296D01*
X89391405Y-106855984D01*
X89357379Y-106793672D01*
X89354500Y-106766889D01*
X89354500Y-99731441D01*
X89744150Y-99731441D01*
X89745322Y-100000000D01*
X89746884Y-100358047D01*
X89787866Y-100983317D01*
X89866944Y-101604918D01*
X89983822Y-102220533D01*
X90138064Y-102827865D01*
X90138642Y-102829672D01*
X90138645Y-102829681D01*
X90196854Y-103011525D01*
X90329096Y-103424647D01*
X90329792Y-103426436D01*
X90329797Y-103426451D01*
X90394528Y-103592906D01*
X90556204Y-104008654D01*
X90556997Y-104010373D01*
X90557002Y-104010386D01*
X90631091Y-104171097D01*
X90818541Y-104577707D01*
X91115128Y-105129683D01*
X91444860Y-105662524D01*
X91589509Y-105867197D01*
X91805385Y-106172656D01*
X91805398Y-106172674D01*
X91806506Y-106174241D01*
X92198717Y-106662925D01*
X92200023Y-106664363D01*
X92200030Y-106664371D01*
X92340557Y-106819079D01*
X92620030Y-107126754D01*
X93068873Y-107563998D01*
X93543572Y-107973025D01*
X94042356Y-108352309D01*
X94043958Y-108353379D01*
X94043963Y-108353383D01*
X94323325Y-108540047D01*
X94563364Y-108700436D01*
X95104654Y-109016106D01*
X95106388Y-109016980D01*
X95662470Y-109297269D01*
X95662484Y-109297275D01*
X95664205Y-109298143D01*
X95835109Y-109371569D01*
X96238172Y-109544739D01*
X96238180Y-109544742D01*
X96239930Y-109545494D01*
X96241731Y-109546141D01*
X96241737Y-109546143D01*
X96827871Y-109756587D01*
X96827877Y-109756589D01*
X96829682Y-109757237D01*
X97431260Y-109932581D01*
X98042421Y-110070873D01*
X98660884Y-110171596D01*
X98662788Y-110171788D01*
X98662790Y-110171788D01*
X99282425Y-110234182D01*
X99282429Y-110234182D01*
X99284343Y-110234375D01*
X99286251Y-110234450D01*
X99286266Y-110234451D01*
X99908559Y-110258900D01*
X99908563Y-110258900D01*
X99910471Y-110258975D01*
X100382018Y-110248686D01*
X100535012Y-110245348D01*
X100535014Y-110245348D01*
X100536934Y-110245306D01*
X100538838Y-110245148D01*
X100538853Y-110245147D01*
X101159480Y-110193576D01*
X101159481Y-110193576D01*
X101161393Y-110193417D01*
X101221093Y-110184761D01*
X101402113Y-110158514D01*
X101781520Y-110103503D01*
X101783405Y-110103111D01*
X102393114Y-109976292D01*
X102393130Y-109976288D01*
X102395001Y-109975899D01*
X102999548Y-109811080D01*
X103592906Y-109609663D01*
X104172860Y-109372397D01*
X104388218Y-109268521D01*
X104735520Y-109101003D01*
X104735533Y-109100996D01*
X104737248Y-109100169D01*
X104806945Y-109061137D01*
X105282288Y-108794932D01*
X105282298Y-108794926D01*
X105283964Y-108793993D01*
X105810969Y-108455012D01*
X106316296Y-108084491D01*
X106376676Y-108034274D01*
X106796578Y-107685045D01*
X106798062Y-107683811D01*
X107254467Y-107254467D01*
X107683811Y-106798062D01*
X108084491Y-106316296D01*
X108455012Y-105810969D01*
X108793993Y-105283964D01*
X109100169Y-104737248D01*
X109100996Y-104735533D01*
X109101003Y-104735520D01*
X109371569Y-104174576D01*
X109372397Y-104172860D01*
X109609663Y-103592906D01*
X109811080Y-102999548D01*
X109975899Y-102395001D01*
X109976288Y-102393130D01*
X109976292Y-102393114D01*
X110103111Y-101783405D01*
X110103111Y-101783402D01*
X110103503Y-101781520D01*
X110193417Y-101161393D01*
X110245306Y-100536934D01*
X110259366Y-100000000D01*
X110240230Y-99373681D01*
X110182894Y-98749698D01*
X110087572Y-98130379D01*
X109954619Y-97518035D01*
X109784531Y-96914949D01*
X109577943Y-96323372D01*
X109335626Y-95745510D01*
X109058483Y-95183519D01*
X108924874Y-94949751D01*
X108748500Y-94641162D01*
X108747548Y-94639496D01*
X108746498Y-94637894D01*
X108405032Y-94117071D01*
X108405021Y-94117056D01*
X108403981Y-94115469D01*
X108159437Y-93787985D01*
X108030219Y-93614941D01*
X108030210Y-93614930D01*
X108029064Y-93613395D01*
X107624195Y-93135144D01*
X107436775Y-92939362D01*
X107192206Y-92683883D01*
X107190885Y-92682503D01*
X106730750Y-92257158D01*
X106245506Y-91860698D01*
X106243963Y-91859587D01*
X106243951Y-91859578D01*
X105982009Y-91671007D01*
X105736965Y-91494600D01*
X105503569Y-91347338D01*
X105208658Y-91161263D01*
X105208652Y-91161260D01*
X105207022Y-91160231D01*
X104657655Y-90858838D01*
X104090913Y-90591545D01*
X103508910Y-90359349D01*
X102913817Y-90163117D01*
X102911977Y-90162633D01*
X102911965Y-90162629D01*
X102636907Y-90090213D01*
X102307855Y-90003581D01*
X102305969Y-90003206D01*
X102305961Y-90003204D01*
X101871020Y-89916689D01*
X101693284Y-89881335D01*
X101691397Y-89881078D01*
X101691384Y-89881076D01*
X101165097Y-89809452D01*
X101072396Y-89796836D01*
X101070490Y-89796694D01*
X101070477Y-89796693D01*
X100567675Y-89759329D01*
X100447507Y-89750399D01*
X100091870Y-89745744D01*
X99822881Y-89742222D01*
X99822871Y-89742222D01*
X99820949Y-89742197D01*
X99819039Y-89742289D01*
X99819024Y-89742289D01*
X99196969Y-89772168D01*
X99196961Y-89772169D01*
X99195059Y-89772260D01*
X98572172Y-89840477D01*
X98570269Y-89840804D01*
X98097326Y-89922071D01*
X97954611Y-89946594D01*
X97344681Y-90090213D01*
X96744655Y-90270801D01*
X96742866Y-90271461D01*
X96742857Y-90271464D01*
X96158589Y-90487011D01*
X96158577Y-90487016D01*
X96156774Y-90487681D01*
X95583229Y-90740047D01*
X95026161Y-91026956D01*
X94487647Y-91347338D01*
X93969696Y-91699999D01*
X93474241Y-92083621D01*
X93003129Y-92496775D01*
X92558119Y-92937918D01*
X92140870Y-93405407D01*
X91752938Y-93897495D01*
X91751851Y-93899062D01*
X91751845Y-93899070D01*
X91601724Y-94115469D01*
X91395772Y-94412349D01*
X91070702Y-94948046D01*
X90778943Y-95502590D01*
X90778157Y-95504335D01*
X90778154Y-95504341D01*
X90522367Y-96072168D01*
X90521582Y-96073911D01*
X90520911Y-96075682D01*
X90520904Y-96075699D01*
X90426382Y-96325187D01*
X90299579Y-96659877D01*
X90113762Y-97258304D01*
X89964826Y-97866958D01*
X89853324Y-98483569D01*
X89779674Y-99105837D01*
X89779564Y-99107776D01*
X89763648Y-99388075D01*
X89744150Y-99731441D01*
X89354500Y-99731441D01*
X89354500Y-89836235D01*
X89374502Y-89768114D01*
X89380838Y-89760252D01*
X89383484Y-89758484D01*
X89439734Y-89674301D01*
X89454500Y-89600067D01*
X89454500Y-89522756D01*
X105761099Y-89522756D01*
X105767801Y-89584448D01*
X105818528Y-89719764D01*
X105823908Y-89726943D01*
X105823910Y-89726946D01*
X105876183Y-89796693D01*
X105905195Y-89835404D01*
X105912375Y-89840785D01*
X106013653Y-89916689D01*
X106013656Y-89916691D01*
X106020835Y-89922071D01*
X106085384Y-89946269D01*
X106148756Y-89970026D01*
X106148758Y-89970026D01*
X106156151Y-89972798D01*
X106164001Y-89973651D01*
X106164002Y-89973651D01*
X106214446Y-89979131D01*
X106217843Y-89979500D01*
X106813355Y-89979500D01*
X106816752Y-89979131D01*
X106867196Y-89973651D01*
X106867197Y-89973651D01*
X106875047Y-89972798D01*
X106882440Y-89970026D01*
X106882442Y-89970026D01*
X106945814Y-89946269D01*
X107010363Y-89922071D01*
X107017542Y-89916691D01*
X107017545Y-89916689D01*
X107118823Y-89840785D01*
X107126003Y-89835404D01*
X107155015Y-89796693D01*
X107207288Y-89726946D01*
X107207290Y-89726943D01*
X107212670Y-89719764D01*
X107263397Y-89584448D01*
X107270099Y-89522756D01*
X107270099Y-89463991D01*
X107290101Y-89395870D01*
X107302684Y-89379436D01*
X107382122Y-89291674D01*
X107382123Y-89291672D01*
X107388150Y-89285014D01*
X107421707Y-89215752D01*
X107469409Y-89163169D01*
X107537967Y-89144723D01*
X107605615Y-89166270D01*
X107650874Y-89220970D01*
X107661099Y-89270690D01*
X107661099Y-89522756D01*
X107667801Y-89584448D01*
X107718528Y-89719764D01*
X107723908Y-89726943D01*
X107723910Y-89726946D01*
X107776183Y-89796693D01*
X107805195Y-89835404D01*
X107812375Y-89840785D01*
X107913653Y-89916689D01*
X107913656Y-89916691D01*
X107920835Y-89922071D01*
X107985384Y-89946269D01*
X108048756Y-89970026D01*
X108048758Y-89970026D01*
X108056151Y-89972798D01*
X108064001Y-89973651D01*
X108064002Y-89973651D01*
X108114446Y-89979131D01*
X108117843Y-89979500D01*
X108713355Y-89979500D01*
X108716752Y-89979131D01*
X108767196Y-89973651D01*
X108767197Y-89973651D01*
X108775047Y-89972798D01*
X108782440Y-89970026D01*
X108782442Y-89970026D01*
X108845814Y-89946269D01*
X108910363Y-89922071D01*
X108917542Y-89916691D01*
X108917545Y-89916689D01*
X109018823Y-89840785D01*
X109026003Y-89835404D01*
X109055015Y-89796693D01*
X109107288Y-89726946D01*
X109107290Y-89726943D01*
X109112670Y-89719764D01*
X109163397Y-89584448D01*
X109170099Y-89522756D01*
X109170099Y-88477244D01*
X109163397Y-88415552D01*
X109153116Y-88388126D01*
X109145099Y-88343900D01*
X109145099Y-87626913D01*
X109165101Y-87558792D01*
X109218757Y-87512299D01*
X109246508Y-87503337D01*
X109314900Y-87489734D01*
X109325220Y-87482839D01*
X109325221Y-87482838D01*
X109388767Y-87440377D01*
X109399083Y-87433484D01*
X109455333Y-87349301D01*
X109470099Y-87275067D01*
X109470099Y-86680500D01*
X109490101Y-86612379D01*
X109543757Y-86565886D01*
X109596099Y-86554500D01*
X112954106Y-86554500D01*
X113022227Y-86574502D01*
X113057003Y-86607780D01*
X113108396Y-86680500D01*
X113136587Y-86720389D01*
X113281992Y-86862035D01*
X113450774Y-86974812D01*
X113456077Y-86977090D01*
X113456080Y-86977092D01*
X113628393Y-87051123D01*
X113637282Y-87054942D01*
X113710298Y-87071464D01*
X113829633Y-87098467D01*
X113829638Y-87098468D01*
X113835270Y-87099742D01*
X113841041Y-87099969D01*
X113841043Y-87099969D01*
X113900810Y-87102317D01*
X114038107Y-87107712D01*
X114145402Y-87092155D01*
X114233285Y-87079413D01*
X114233290Y-87079412D01*
X114238999Y-87078584D01*
X114244463Y-87076729D01*
X114244468Y-87076728D01*
X114425747Y-87015192D01*
X114425752Y-87015190D01*
X114431219Y-87013334D01*
X114608330Y-86914147D01*
X114612831Y-86910404D01*
X114759967Y-86788031D01*
X114764399Y-86784345D01*
X114821517Y-86715669D01*
X114890507Y-86632718D01*
X114890509Y-86632715D01*
X114894201Y-86628276D01*
X114993388Y-86451165D01*
X114995244Y-86445698D01*
X114995246Y-86445693D01*
X115056782Y-86264414D01*
X115056783Y-86264409D01*
X115058638Y-86258945D01*
X115059466Y-86253236D01*
X115059467Y-86253231D01*
X115087233Y-86061727D01*
X115087766Y-86058053D01*
X115089286Y-86000000D01*
X115076221Y-85857817D01*
X115071241Y-85803613D01*
X115071240Y-85803610D01*
X115070712Y-85797859D01*
X115069144Y-85792299D01*
X115017179Y-85608046D01*
X115017178Y-85608044D01*
X115015611Y-85602487D01*
X114998874Y-85568546D01*
X114928385Y-85425609D01*
X114925830Y-85420428D01*
X114804374Y-85257779D01*
X114660663Y-85124933D01*
X115415554Y-85124933D01*
X115415555Y-86875066D01*
X115430320Y-86949301D01*
X115437215Y-86959620D01*
X115437216Y-86959622D01*
X115477570Y-87020015D01*
X115486570Y-87033484D01*
X115570753Y-87089734D01*
X115644987Y-87104500D01*
X116519912Y-87104500D01*
X117395120Y-87104499D01*
X117430872Y-87097388D01*
X117457180Y-87092156D01*
X117457182Y-87092155D01*
X117469355Y-87089734D01*
X117479675Y-87082839D01*
X117479676Y-87082838D01*
X117543222Y-87040377D01*
X117553538Y-87033484D01*
X117609788Y-86949301D01*
X117624554Y-86875067D01*
X117624553Y-85124934D01*
X117609788Y-85050699D01*
X117583708Y-85011667D01*
X117560431Y-84976832D01*
X117553538Y-84966516D01*
X117469355Y-84910266D01*
X117395121Y-84895500D01*
X116520196Y-84895500D01*
X115644988Y-84895501D01*
X115609236Y-84902612D01*
X115582928Y-84907844D01*
X115582926Y-84907845D01*
X115570753Y-84910266D01*
X115560433Y-84917161D01*
X115560432Y-84917162D01*
X115518022Y-84945500D01*
X115486570Y-84966516D01*
X115430320Y-85050699D01*
X115415554Y-85124933D01*
X114660663Y-85124933D01*
X114655312Y-85119987D01*
X114650429Y-85116906D01*
X114650425Y-85116903D01*
X114488518Y-85014748D01*
X114483635Y-85011667D01*
X114295093Y-84936446D01*
X114289433Y-84935320D01*
X114289429Y-84935319D01*
X114101667Y-84897971D01*
X114101664Y-84897971D01*
X114096000Y-84896844D01*
X114090225Y-84896768D01*
X114090221Y-84896768D01*
X113988847Y-84895441D01*
X113893025Y-84894187D01*
X113887328Y-84895166D01*
X113887327Y-84895166D01*
X113799451Y-84910266D01*
X113692964Y-84928564D01*
X113502517Y-84998824D01*
X113328064Y-85102612D01*
X113323724Y-85106418D01*
X113323720Y-85106421D01*
X113219234Y-85198054D01*
X113175446Y-85236455D01*
X113171871Y-85240990D01*
X113171870Y-85240991D01*
X113099212Y-85333157D01*
X113049774Y-85395869D01*
X113048020Y-85394486D01*
X113001561Y-85434360D01*
X112949761Y-85445500D01*
X109596098Y-85445500D01*
X109527977Y-85425498D01*
X109481484Y-85371842D01*
X109470098Y-85319500D01*
X109470098Y-84724934D01*
X109462987Y-84689182D01*
X109457755Y-84662874D01*
X109457754Y-84662872D01*
X109455333Y-84650699D01*
X109399083Y-84566516D01*
X109314900Y-84510266D01*
X109240666Y-84495500D01*
X108590705Y-84495500D01*
X107940533Y-84495501D01*
X107904781Y-84502612D01*
X107878473Y-84507844D01*
X107878471Y-84507845D01*
X107866298Y-84510266D01*
X107855978Y-84517161D01*
X107855977Y-84517162D01*
X107795584Y-84557516D01*
X107782115Y-84566516D01*
X107725865Y-84650699D01*
X107711099Y-84724933D01*
X107711100Y-87275066D01*
X107718211Y-87310818D01*
X107723405Y-87336931D01*
X107725865Y-87349301D01*
X107782115Y-87433484D01*
X107866298Y-87489734D01*
X107915521Y-87499525D01*
X107934680Y-87503336D01*
X107997590Y-87536243D01*
X108032722Y-87597938D01*
X108036099Y-87626915D01*
X108036099Y-87947391D01*
X108016097Y-88015512D01*
X107962441Y-88062005D01*
X107954334Y-88065371D01*
X107920835Y-88077929D01*
X107913656Y-88083309D01*
X107913653Y-88083311D01*
X107825622Y-88149287D01*
X107805195Y-88164596D01*
X107799814Y-88171776D01*
X107723910Y-88273054D01*
X107723908Y-88273057D01*
X107718528Y-88280236D01*
X107695314Y-88342161D01*
X107676812Y-88391516D01*
X107667801Y-88415552D01*
X107661099Y-88477244D01*
X107661099Y-88729133D01*
X107641097Y-88797254D01*
X107587441Y-88843747D01*
X107517167Y-88853851D01*
X107452587Y-88824357D01*
X107420398Y-88781284D01*
X107398703Y-88733569D01*
X107394987Y-88725395D01*
X107389129Y-88718596D01*
X107389126Y-88718592D01*
X107300655Y-88615918D01*
X107303441Y-88613517D01*
X107274764Y-88567629D01*
X107270099Y-88533662D01*
X107270099Y-88477244D01*
X107263397Y-88415552D01*
X107254387Y-88391516D01*
X107235884Y-88342161D01*
X107212670Y-88280236D01*
X107207290Y-88273057D01*
X107207288Y-88273054D01*
X107131384Y-88171776D01*
X107126003Y-88164596D01*
X107105576Y-88149287D01*
X107017545Y-88083311D01*
X107017542Y-88083309D01*
X107010363Y-88077929D01*
X106895099Y-88034719D01*
X106882442Y-88029974D01*
X106882440Y-88029974D01*
X106875047Y-88027202D01*
X106867197Y-88026349D01*
X106867196Y-88026349D01*
X106816752Y-88020869D01*
X106816751Y-88020869D01*
X106813355Y-88020500D01*
X106217843Y-88020500D01*
X106214447Y-88020869D01*
X106214446Y-88020869D01*
X106164002Y-88026349D01*
X106164001Y-88026349D01*
X106156151Y-88027202D01*
X106148758Y-88029974D01*
X106148756Y-88029974D01*
X106136099Y-88034719D01*
X106020835Y-88077929D01*
X106013656Y-88083309D01*
X106013653Y-88083311D01*
X105925622Y-88149287D01*
X105905195Y-88164596D01*
X105899814Y-88171776D01*
X105823910Y-88273054D01*
X105823908Y-88273057D01*
X105818528Y-88280236D01*
X105795314Y-88342161D01*
X105776812Y-88391516D01*
X105767801Y-88415552D01*
X105761099Y-88477244D01*
X105761099Y-89522756D01*
X89454500Y-89522756D01*
X89454499Y-88549934D01*
X89439734Y-88475699D01*
X89404791Y-88423403D01*
X89390377Y-88401832D01*
X89383484Y-88391516D01*
X89299301Y-88335266D01*
X89225067Y-88320500D01*
X89191341Y-88320500D01*
X88630499Y-88320501D01*
X88562379Y-88300499D01*
X88515886Y-88246843D01*
X88504500Y-88194501D01*
X88504500Y-87268828D01*
X105461600Y-87268828D01*
X105462808Y-87281088D01*
X105473914Y-87336931D01*
X105483232Y-87359427D01*
X105525582Y-87422808D01*
X105542791Y-87440017D01*
X105606174Y-87482368D01*
X105628665Y-87491684D01*
X105684514Y-87502793D01*
X105696769Y-87504000D01*
X106068484Y-87504000D01*
X106083723Y-87499525D01*
X106084928Y-87498135D01*
X106086599Y-87490452D01*
X106086599Y-87485884D01*
X106594599Y-87485884D01*
X106599074Y-87501123D01*
X106600464Y-87502328D01*
X106608147Y-87503999D01*
X106984427Y-87503999D01*
X106996687Y-87502791D01*
X107052530Y-87491685D01*
X107075026Y-87482367D01*
X107138407Y-87440017D01*
X107155616Y-87422808D01*
X107197967Y-87359425D01*
X107207283Y-87336934D01*
X107218392Y-87281085D01*
X107219599Y-87268830D01*
X107219599Y-86272115D01*
X107215124Y-86256876D01*
X107213734Y-86255671D01*
X107206051Y-86254000D01*
X106612714Y-86254000D01*
X106597475Y-86258475D01*
X106596270Y-86259865D01*
X106594599Y-86267548D01*
X106594599Y-87485884D01*
X106086599Y-87485884D01*
X106086599Y-86272115D01*
X106082124Y-86256876D01*
X106080734Y-86255671D01*
X106073051Y-86254000D01*
X105479715Y-86254000D01*
X105464476Y-86258475D01*
X105463271Y-86259865D01*
X105461600Y-86267548D01*
X105461600Y-87268828D01*
X88504500Y-87268828D01*
X88504500Y-86597756D01*
X95195500Y-86597756D01*
X95195869Y-86601152D01*
X95195869Y-86601153D01*
X95198268Y-86623231D01*
X95202202Y-86659448D01*
X95252929Y-86794764D01*
X95258309Y-86801943D01*
X95258311Y-86801946D01*
X95317660Y-86881135D01*
X95339596Y-86910404D01*
X95346776Y-86915785D01*
X95448054Y-86991689D01*
X95448057Y-86991691D01*
X95455236Y-86997071D01*
X95524851Y-87023168D01*
X95583157Y-87045026D01*
X95583159Y-87045026D01*
X95590552Y-87047798D01*
X95598402Y-87048651D01*
X95598403Y-87048651D01*
X95647632Y-87053999D01*
X95652244Y-87054500D01*
X98747756Y-87054500D01*
X98752368Y-87053999D01*
X98801597Y-87048651D01*
X98801598Y-87048651D01*
X98809448Y-87047798D01*
X98816841Y-87045026D01*
X98816843Y-87045026D01*
X98875149Y-87023168D01*
X98944764Y-86997071D01*
X98951943Y-86991691D01*
X98951946Y-86991689D01*
X99053224Y-86915785D01*
X99060404Y-86910404D01*
X99082340Y-86881135D01*
X99141689Y-86801946D01*
X99141691Y-86801943D01*
X99147071Y-86794764D01*
X99197798Y-86659448D01*
X99201733Y-86623231D01*
X99204131Y-86601153D01*
X99204131Y-86601152D01*
X99204500Y-86597756D01*
X99204500Y-86594292D01*
X100796001Y-86594292D01*
X100796370Y-86601110D01*
X100801841Y-86651482D01*
X100805470Y-86666741D01*
X100850222Y-86786118D01*
X100858754Y-86801704D01*
X100934572Y-86902867D01*
X100947133Y-86915428D01*
X101048296Y-86991246D01*
X101063882Y-86999778D01*
X101183265Y-87044533D01*
X101198510Y-87048158D01*
X101248892Y-87053631D01*
X101255706Y-87054000D01*
X102527885Y-87054000D01*
X102543124Y-87049525D01*
X102544329Y-87048135D01*
X102546000Y-87040452D01*
X102546000Y-87035884D01*
X103054000Y-87035884D01*
X103058475Y-87051123D01*
X103059865Y-87052328D01*
X103067548Y-87053999D01*
X104344292Y-87053999D01*
X104351110Y-87053630D01*
X104401482Y-87048159D01*
X104416741Y-87044530D01*
X104536118Y-86999778D01*
X104551704Y-86991246D01*
X104652867Y-86915428D01*
X104665428Y-86902867D01*
X104741246Y-86801704D01*
X104749778Y-86786118D01*
X104794533Y-86666735D01*
X104798158Y-86651490D01*
X104803631Y-86601108D01*
X104804000Y-86594294D01*
X104804000Y-86272115D01*
X104799525Y-86256876D01*
X104798135Y-86255671D01*
X104790452Y-86254000D01*
X103072115Y-86254000D01*
X103056876Y-86258475D01*
X103055671Y-86259865D01*
X103054000Y-86267548D01*
X103054000Y-87035884D01*
X102546000Y-87035884D01*
X102546000Y-86272115D01*
X102541525Y-86256876D01*
X102540135Y-86255671D01*
X102532452Y-86254000D01*
X100814116Y-86254000D01*
X100798877Y-86258475D01*
X100797672Y-86259865D01*
X100796001Y-86267548D01*
X100796001Y-86594292D01*
X99204500Y-86594292D01*
X99204500Y-86536984D01*
X99224502Y-86468863D01*
X99264571Y-86429609D01*
X99325572Y-86392154D01*
X99422551Y-86285014D01*
X99485560Y-86154962D01*
X99509536Y-86012453D01*
X99509688Y-86000000D01*
X99491607Y-85873748D01*
X99490474Y-85865835D01*
X99490473Y-85865833D01*
X99489201Y-85856948D01*
X99430520Y-85727885D01*
X100796000Y-85727885D01*
X100800475Y-85743124D01*
X100801865Y-85744329D01*
X100809548Y-85746000D01*
X102527885Y-85746000D01*
X102543124Y-85741525D01*
X102544329Y-85740135D01*
X102546000Y-85732452D01*
X102546000Y-85727885D01*
X103054000Y-85727885D01*
X103058475Y-85743124D01*
X103059865Y-85744329D01*
X103067548Y-85746000D01*
X104785884Y-85746000D01*
X104801123Y-85741525D01*
X104802328Y-85740135D01*
X104803999Y-85732452D01*
X104803999Y-85727885D01*
X105461599Y-85727885D01*
X105466074Y-85743124D01*
X105467464Y-85744329D01*
X105475147Y-85746000D01*
X106068484Y-85746000D01*
X106083723Y-85741525D01*
X106084928Y-85740135D01*
X106086599Y-85732452D01*
X106086599Y-85727885D01*
X106594599Y-85727885D01*
X106599074Y-85743124D01*
X106600464Y-85744329D01*
X106608147Y-85746000D01*
X107201483Y-85746000D01*
X107216722Y-85741525D01*
X107217927Y-85740135D01*
X107219598Y-85732452D01*
X107219598Y-84731172D01*
X107218390Y-84718912D01*
X107207284Y-84663069D01*
X107197966Y-84640573D01*
X107155616Y-84577192D01*
X107138407Y-84559983D01*
X107075024Y-84517632D01*
X107052533Y-84508316D01*
X106996684Y-84497207D01*
X106984429Y-84496000D01*
X106612714Y-84496000D01*
X106597475Y-84500475D01*
X106596270Y-84501865D01*
X106594599Y-84509548D01*
X106594599Y-85727885D01*
X106086599Y-85727885D01*
X106086599Y-84514116D01*
X106082124Y-84498877D01*
X106080734Y-84497672D01*
X106073051Y-84496001D01*
X105696771Y-84496001D01*
X105684511Y-84497209D01*
X105628668Y-84508315D01*
X105606172Y-84517633D01*
X105542791Y-84559983D01*
X105525582Y-84577192D01*
X105483231Y-84640575D01*
X105473915Y-84663066D01*
X105462806Y-84718915D01*
X105461599Y-84731170D01*
X105461599Y-85727885D01*
X104803999Y-85727885D01*
X104803999Y-85405708D01*
X104803630Y-85398890D01*
X104798159Y-85348518D01*
X104794530Y-85333259D01*
X104749778Y-85213882D01*
X104741246Y-85198296D01*
X104665428Y-85097133D01*
X104652867Y-85084572D01*
X104551704Y-85008754D01*
X104536118Y-85000222D01*
X104416735Y-84955467D01*
X104401490Y-84951842D01*
X104351108Y-84946369D01*
X104344294Y-84946000D01*
X103072115Y-84946000D01*
X103056876Y-84950475D01*
X103055671Y-84951865D01*
X103054000Y-84959548D01*
X103054000Y-85727885D01*
X102546000Y-85727885D01*
X102546000Y-84964116D01*
X102541525Y-84948877D01*
X102540135Y-84947672D01*
X102532452Y-84946001D01*
X101255708Y-84946001D01*
X101248890Y-84946370D01*
X101198518Y-84951841D01*
X101183259Y-84955470D01*
X101063882Y-85000222D01*
X101048296Y-85008754D01*
X100947133Y-85084572D01*
X100934572Y-85097133D01*
X100858754Y-85198296D01*
X100850222Y-85213882D01*
X100805467Y-85333265D01*
X100801842Y-85348510D01*
X100796369Y-85398892D01*
X100796000Y-85405706D01*
X100796000Y-85727885D01*
X99430520Y-85727885D01*
X99429388Y-85725395D01*
X99423530Y-85718596D01*
X99423527Y-85718592D01*
X99340916Y-85622718D01*
X99340913Y-85622716D01*
X99335056Y-85615918D01*
X99261965Y-85568543D01*
X99215684Y-85514710D01*
X99204500Y-85462813D01*
X99204500Y-85402244D01*
X99197798Y-85340552D01*
X99147071Y-85205236D01*
X99141691Y-85198057D01*
X99141689Y-85198054D01*
X99065785Y-85096776D01*
X99060404Y-85089596D01*
X98994735Y-85040380D01*
X98951946Y-85008311D01*
X98951943Y-85008309D01*
X98944764Y-85002929D01*
X98818166Y-84955470D01*
X98816843Y-84954974D01*
X98816841Y-84954974D01*
X98809448Y-84952202D01*
X98801598Y-84951349D01*
X98801597Y-84951349D01*
X98751153Y-84945869D01*
X98751152Y-84945869D01*
X98747756Y-84945500D01*
X95652244Y-84945500D01*
X95648848Y-84945869D01*
X95648847Y-84945869D01*
X95598403Y-84951349D01*
X95598402Y-84951349D01*
X95590552Y-84952202D01*
X95583159Y-84954974D01*
X95583157Y-84954974D01*
X95581834Y-84955470D01*
X95455236Y-85002929D01*
X95448057Y-85008309D01*
X95448054Y-85008311D01*
X95405265Y-85040380D01*
X95339596Y-85089596D01*
X95334215Y-85096776D01*
X95258311Y-85198054D01*
X95258309Y-85198057D01*
X95252929Y-85205236D01*
X95202202Y-85340552D01*
X95195500Y-85402244D01*
X95195500Y-86597756D01*
X88504500Y-86597756D01*
X88504500Y-85925938D01*
X88524502Y-85857817D01*
X88541405Y-85836843D01*
X90031413Y-84346835D01*
X90035221Y-84343182D01*
X90074948Y-84306651D01*
X90074949Y-84306650D01*
X90081266Y-84300841D01*
X90104381Y-84263561D01*
X90111104Y-84253779D01*
X90132438Y-84225672D01*
X90137630Y-84218832D01*
X90143237Y-84204671D01*
X90153300Y-84184665D01*
X90156794Y-84179030D01*
X90156798Y-84179021D01*
X90161323Y-84171723D01*
X90173565Y-84129587D01*
X90177409Y-84118360D01*
X90193556Y-84077577D01*
X90195148Y-84062434D01*
X90199459Y-84040461D01*
X90201867Y-84032171D01*
X90203709Y-84025832D01*
X90204500Y-84015060D01*
X90204500Y-83980062D01*
X90205190Y-83966891D01*
X90208539Y-83935030D01*
X90209437Y-83926486D01*
X90206263Y-83907721D01*
X90204500Y-83886719D01*
X90204500Y-83519292D01*
X105761600Y-83519292D01*
X105761969Y-83526110D01*
X105767440Y-83576482D01*
X105771069Y-83591741D01*
X105815821Y-83711118D01*
X105824353Y-83726704D01*
X105900171Y-83827867D01*
X105912732Y-83840428D01*
X106013895Y-83916246D01*
X106029481Y-83924778D01*
X106148864Y-83969533D01*
X106164109Y-83973158D01*
X106214491Y-83978631D01*
X106221305Y-83979000D01*
X106243484Y-83979000D01*
X106258723Y-83974525D01*
X106259928Y-83973135D01*
X106261599Y-83965452D01*
X106261599Y-83960884D01*
X106769599Y-83960884D01*
X106774074Y-83976123D01*
X106775464Y-83977328D01*
X106783147Y-83978999D01*
X106809891Y-83978999D01*
X106816709Y-83978630D01*
X106867081Y-83973159D01*
X106882340Y-83969530D01*
X107001717Y-83924778D01*
X107017303Y-83916246D01*
X107118466Y-83840428D01*
X107131027Y-83827867D01*
X107206845Y-83726704D01*
X107215377Y-83711118D01*
X107260132Y-83591735D01*
X107263757Y-83576490D01*
X107269230Y-83526108D01*
X107269599Y-83519294D01*
X107269599Y-83270177D01*
X107289601Y-83202056D01*
X107343257Y-83155563D01*
X107413531Y-83145459D01*
X107478111Y-83174953D01*
X107510928Y-83219431D01*
X107532888Y-83269339D01*
X107538662Y-83276208D01*
X107625875Y-83379960D01*
X107624586Y-83381044D01*
X107656532Y-83432495D01*
X107661099Y-83466110D01*
X107661099Y-83522756D01*
X107667801Y-83584448D01*
X107670573Y-83591841D01*
X107670573Y-83591843D01*
X107679396Y-83615377D01*
X107718528Y-83719764D01*
X107723908Y-83726943D01*
X107723910Y-83726946D01*
X107784958Y-83808402D01*
X107805195Y-83835404D01*
X107812375Y-83840785D01*
X107913653Y-83916689D01*
X107913656Y-83916691D01*
X107920835Y-83922071D01*
X108010553Y-83955704D01*
X108048756Y-83970026D01*
X108048758Y-83970026D01*
X108056151Y-83972798D01*
X108064001Y-83973651D01*
X108064002Y-83973651D01*
X108113231Y-83978999D01*
X108117843Y-83979500D01*
X108713355Y-83979500D01*
X108717967Y-83978999D01*
X108767196Y-83973651D01*
X108767197Y-83973651D01*
X108775047Y-83972798D01*
X108782440Y-83970026D01*
X108782442Y-83970026D01*
X108820645Y-83955704D01*
X108910363Y-83922071D01*
X108917542Y-83916691D01*
X108917545Y-83916689D01*
X109018823Y-83840785D01*
X109026003Y-83835404D01*
X109046240Y-83808402D01*
X109107288Y-83726946D01*
X109107290Y-83726943D01*
X109112670Y-83719764D01*
X109151802Y-83615377D01*
X109160625Y-83591843D01*
X109160625Y-83591841D01*
X109163397Y-83584448D01*
X109170099Y-83522756D01*
X109170099Y-82477244D01*
X109163397Y-82415552D01*
X109112670Y-82280236D01*
X109107290Y-82273057D01*
X109107288Y-82273054D01*
X109031384Y-82171776D01*
X109026003Y-82164596D01*
X109005576Y-82149287D01*
X108917545Y-82083311D01*
X108917542Y-82083309D01*
X108910363Y-82077929D01*
X108783765Y-82030470D01*
X108782442Y-82029974D01*
X108782440Y-82029974D01*
X108775047Y-82027202D01*
X108767197Y-82026349D01*
X108767196Y-82026349D01*
X108716752Y-82020869D01*
X108716751Y-82020869D01*
X108713355Y-82020500D01*
X108117843Y-82020500D01*
X108114447Y-82020869D01*
X108114446Y-82020869D01*
X108064002Y-82026349D01*
X108064001Y-82026349D01*
X108056151Y-82027202D01*
X108048758Y-82029974D01*
X108048756Y-82029974D01*
X108047433Y-82030470D01*
X107920835Y-82077929D01*
X107913656Y-82083309D01*
X107913653Y-82083311D01*
X107825622Y-82149287D01*
X107805195Y-82164596D01*
X107799814Y-82171776D01*
X107723910Y-82273054D01*
X107723908Y-82273057D01*
X107718528Y-82280236D01*
X107667801Y-82415552D01*
X107661099Y-82477244D01*
X107661099Y-82534922D01*
X107641097Y-82603043D01*
X107629542Y-82618328D01*
X107539598Y-82720170D01*
X107535784Y-82728293D01*
X107535783Y-82728295D01*
X107509653Y-82783950D01*
X107462596Y-82837112D01*
X107394268Y-82856394D01*
X107326362Y-82835674D01*
X107280438Y-82781531D01*
X107269598Y-82730401D01*
X107269598Y-82480708D01*
X107269229Y-82473890D01*
X107263758Y-82423518D01*
X107260129Y-82408259D01*
X107215377Y-82288882D01*
X107206845Y-82273296D01*
X107131027Y-82172133D01*
X107118466Y-82159572D01*
X107017303Y-82083754D01*
X107001717Y-82075222D01*
X106882334Y-82030467D01*
X106867089Y-82026842D01*
X106816707Y-82021369D01*
X106809893Y-82021000D01*
X106787714Y-82021000D01*
X106772475Y-82025475D01*
X106771270Y-82026865D01*
X106769599Y-82034548D01*
X106769599Y-83960884D01*
X106261599Y-83960884D01*
X106261599Y-83272115D01*
X106257124Y-83256876D01*
X106255734Y-83255671D01*
X106248051Y-83254000D01*
X105779715Y-83254000D01*
X105764476Y-83258475D01*
X105763271Y-83259865D01*
X105761600Y-83267548D01*
X105761600Y-83519292D01*
X90204500Y-83519292D01*
X90204500Y-82727885D01*
X105761599Y-82727885D01*
X105766074Y-82743124D01*
X105767464Y-82744329D01*
X105775147Y-82746000D01*
X106243484Y-82746000D01*
X106258723Y-82741525D01*
X106259928Y-82740135D01*
X106261599Y-82732452D01*
X106261599Y-82039116D01*
X106257124Y-82023877D01*
X106255734Y-82022672D01*
X106248051Y-82021001D01*
X106221307Y-82021001D01*
X106214489Y-82021370D01*
X106164117Y-82026841D01*
X106148858Y-82030470D01*
X106029481Y-82075222D01*
X106013895Y-82083754D01*
X105912732Y-82159572D01*
X105900171Y-82172133D01*
X105824353Y-82273296D01*
X105815821Y-82288882D01*
X105771066Y-82408265D01*
X105767441Y-82423510D01*
X105761968Y-82473892D01*
X105761599Y-82480706D01*
X105761599Y-82727885D01*
X90204500Y-82727885D01*
X90204500Y-81940099D01*
X90204610Y-81934823D01*
X90204665Y-81933506D01*
X90207229Y-81872327D01*
X90200895Y-81845319D01*
X90197213Y-81829621D01*
X90195050Y-81817952D01*
X90190260Y-81782989D01*
X90189095Y-81774482D01*
X90183047Y-81760506D01*
X90176013Y-81739237D01*
X90174499Y-81732782D01*
X90172537Y-81724417D01*
X90168400Y-81716892D01*
X90168399Y-81716889D01*
X90151400Y-81685969D01*
X90146178Y-81675309D01*
X90132168Y-81642934D01*
X90128758Y-81635054D01*
X90119175Y-81623220D01*
X90106685Y-81604632D01*
X90102529Y-81597072D01*
X90099348Y-81591286D01*
X90092291Y-81583109D01*
X90067543Y-81558361D01*
X90058717Y-81548560D01*
X90038555Y-81523661D01*
X90038553Y-81523659D01*
X90033150Y-81516987D01*
X90017645Y-81505968D01*
X90001540Y-81492358D01*
X89491404Y-80982223D01*
X89457379Y-80919910D01*
X89454499Y-80893127D01*
X89454499Y-80549934D01*
X89439734Y-80475699D01*
X89383484Y-80391516D01*
X89299301Y-80335266D01*
X89225067Y-80320500D01*
X89191341Y-80320500D01*
X88630499Y-80320501D01*
X88562379Y-80300499D01*
X88515886Y-80246843D01*
X88504500Y-80194501D01*
X88504500Y-79857852D01*
X92534362Y-79857852D01*
X92544244Y-79870341D01*
X92568525Y-79886565D01*
X92578636Y-79892054D01*
X92750215Y-79965771D01*
X92761169Y-79969330D01*
X92943307Y-80010543D01*
X92954721Y-80012046D01*
X93141331Y-80019378D01*
X93152813Y-80018776D01*
X93337640Y-79991978D01*
X93348823Y-79989293D01*
X93525664Y-79929264D01*
X93536177Y-79924583D01*
X93637108Y-79868058D01*
X93646973Y-79857980D01*
X93646924Y-79857852D01*
X95074362Y-79857852D01*
X95084244Y-79870341D01*
X95108525Y-79886565D01*
X95118636Y-79892054D01*
X95290215Y-79965771D01*
X95301169Y-79969330D01*
X95483307Y-80010543D01*
X95494721Y-80012046D01*
X95681331Y-80019378D01*
X95692813Y-80018776D01*
X95877640Y-79991978D01*
X95888823Y-79989293D01*
X96065664Y-79929264D01*
X96076177Y-79924583D01*
X96177108Y-79868058D01*
X96186973Y-79857980D01*
X96184017Y-79850308D01*
X95643198Y-79309488D01*
X95629255Y-79301875D01*
X95627421Y-79302006D01*
X95620807Y-79306257D01*
X95080555Y-79846510D01*
X95074362Y-79857852D01*
X93646924Y-79857852D01*
X93644017Y-79850308D01*
X93103198Y-79309488D01*
X93089255Y-79301875D01*
X93087421Y-79302006D01*
X93080807Y-79306257D01*
X92540555Y-79846510D01*
X92534362Y-79857852D01*
X88504500Y-79857852D01*
X88504500Y-78914867D01*
X92007513Y-78914867D01*
X92019727Y-79101215D01*
X92021528Y-79112585D01*
X92067497Y-79293588D01*
X92071338Y-79304434D01*
X92149525Y-79474035D01*
X92155273Y-79483991D01*
X92156983Y-79486412D01*
X92167571Y-79494800D01*
X92180871Y-79487772D01*
X92718366Y-78950278D01*
X92724743Y-78938599D01*
X93454795Y-78938599D01*
X93454926Y-78940433D01*
X93459177Y-78947047D01*
X93999318Y-79487187D01*
X94011693Y-79493944D01*
X94018273Y-79489018D01*
X94077503Y-79383257D01*
X94082184Y-79372744D01*
X94142213Y-79195903D01*
X94144898Y-79184720D01*
X94171992Y-78997853D01*
X94172622Y-78990470D01*
X94173913Y-78941171D01*
X94173670Y-78933772D01*
X94171933Y-78914867D01*
X94547513Y-78914867D01*
X94559727Y-79101215D01*
X94561528Y-79112585D01*
X94607497Y-79293588D01*
X94611338Y-79304434D01*
X94689525Y-79474035D01*
X94695273Y-79483991D01*
X94696983Y-79486412D01*
X94707571Y-79494800D01*
X94720871Y-79487772D01*
X95258366Y-78950278D01*
X95264743Y-78938599D01*
X95994795Y-78938599D01*
X95994926Y-78940433D01*
X95999177Y-78947047D01*
X96539318Y-79487187D01*
X96551693Y-79493944D01*
X96558273Y-79489018D01*
X96617503Y-79383257D01*
X96622184Y-79372744D01*
X96682213Y-79195903D01*
X96684898Y-79184720D01*
X96711992Y-78997853D01*
X96712622Y-78990470D01*
X96713913Y-78941171D01*
X96713670Y-78933772D01*
X96711402Y-78909088D01*
X108116634Y-78909088D01*
X108129609Y-79107062D01*
X108178446Y-79299355D01*
X108261507Y-79479529D01*
X108274389Y-79497756D01*
X108312387Y-79551522D01*
X108376012Y-79641550D01*
X108518125Y-79779990D01*
X108683087Y-79890215D01*
X108688395Y-79892496D01*
X108688396Y-79892496D01*
X108860071Y-79966253D01*
X108860074Y-79966254D01*
X108865374Y-79968531D01*
X108871003Y-79969805D01*
X108871004Y-79969805D01*
X109053243Y-80011042D01*
X109053249Y-80011043D01*
X109058880Y-80012317D01*
X109064651Y-80012544D01*
X109064653Y-80012544D01*
X109125203Y-80014923D01*
X109257126Y-80020106D01*
X109356618Y-80005681D01*
X109447750Y-79992468D01*
X109447755Y-79992467D01*
X109453471Y-79991638D01*
X109458943Y-79989780D01*
X109458945Y-79989780D01*
X109635876Y-79929719D01*
X109635878Y-79929718D01*
X109641340Y-79927864D01*
X109814442Y-79830923D01*
X109966979Y-79704059D01*
X110081101Y-79566843D01*
X110090152Y-79555960D01*
X110093843Y-79551522D01*
X110190784Y-79378420D01*
X110204855Y-79336969D01*
X110252700Y-79196025D01*
X110252700Y-79196023D01*
X110254558Y-79190551D01*
X110255387Y-79184835D01*
X110255388Y-79184830D01*
X110282493Y-78997880D01*
X110283026Y-78994206D01*
X110284512Y-78937467D01*
X110281904Y-78909088D01*
X110656634Y-78909088D01*
X110669609Y-79107062D01*
X110718446Y-79299355D01*
X110801507Y-79479529D01*
X110814389Y-79497756D01*
X110852387Y-79551522D01*
X110916012Y-79641550D01*
X111058125Y-79779990D01*
X111223087Y-79890215D01*
X111228395Y-79892496D01*
X111228396Y-79892496D01*
X111400071Y-79966253D01*
X111400074Y-79966254D01*
X111405374Y-79968531D01*
X111411003Y-79969805D01*
X111411004Y-79969805D01*
X111593243Y-80011042D01*
X111593249Y-80011043D01*
X111598880Y-80012317D01*
X111604651Y-80012544D01*
X111604653Y-80012544D01*
X111665203Y-80014923D01*
X111797126Y-80020106D01*
X111896618Y-80005681D01*
X111987750Y-79992468D01*
X111987755Y-79992467D01*
X111993471Y-79991638D01*
X111998943Y-79989780D01*
X111998945Y-79989780D01*
X112175876Y-79929719D01*
X112175878Y-79929718D01*
X112181340Y-79927864D01*
X112354442Y-79830923D01*
X112506979Y-79704059D01*
X112621101Y-79566843D01*
X112630152Y-79555960D01*
X112633843Y-79551522D01*
X112677098Y-79474284D01*
X112729115Y-79381401D01*
X112779852Y-79331739D01*
X112839050Y-79316967D01*
X114519500Y-79316967D01*
X114587621Y-79336969D01*
X114634114Y-79390625D01*
X114645500Y-79442967D01*
X114645500Y-79497756D01*
X114652202Y-79559448D01*
X114702929Y-79694764D01*
X114708309Y-79701943D01*
X114708311Y-79701946D01*
X114766802Y-79779990D01*
X114789596Y-79810404D01*
X114796776Y-79815785D01*
X114898054Y-79891689D01*
X114898057Y-79891691D01*
X114905236Y-79897071D01*
X114978625Y-79924583D01*
X115033157Y-79945026D01*
X115033159Y-79945026D01*
X115040552Y-79947798D01*
X115048402Y-79948651D01*
X115048403Y-79948651D01*
X115097632Y-79953999D01*
X115102244Y-79954500D01*
X115897756Y-79954500D01*
X115902368Y-79953999D01*
X115951597Y-79948651D01*
X115951598Y-79948651D01*
X115959448Y-79947798D01*
X115966841Y-79945026D01*
X115966843Y-79945026D01*
X116021375Y-79924583D01*
X116094764Y-79897071D01*
X116101943Y-79891691D01*
X116101946Y-79891689D01*
X116203224Y-79815785D01*
X116210404Y-79810404D01*
X116233198Y-79779990D01*
X116291689Y-79701946D01*
X116291691Y-79701943D01*
X116297071Y-79694764D01*
X116347798Y-79559448D01*
X116354500Y-79497756D01*
X116354500Y-79494292D01*
X116646001Y-79494292D01*
X116646370Y-79501110D01*
X116651841Y-79551482D01*
X116655470Y-79566741D01*
X116700222Y-79686118D01*
X116708754Y-79701704D01*
X116784572Y-79802867D01*
X116797133Y-79815428D01*
X116898296Y-79891246D01*
X116913882Y-79899778D01*
X117033265Y-79944533D01*
X117048510Y-79948158D01*
X117098892Y-79953631D01*
X117105706Y-79954000D01*
X117227885Y-79954000D01*
X117243124Y-79949525D01*
X117244329Y-79948135D01*
X117246000Y-79940452D01*
X117246000Y-79935884D01*
X117754000Y-79935884D01*
X117758475Y-79951123D01*
X117759865Y-79952328D01*
X117767548Y-79953999D01*
X117894292Y-79953999D01*
X117901110Y-79953630D01*
X117951482Y-79948159D01*
X117966741Y-79944530D01*
X118086118Y-79899778D01*
X118101704Y-79891246D01*
X118202867Y-79815428D01*
X118215428Y-79802867D01*
X118291246Y-79701704D01*
X118299778Y-79686118D01*
X118344533Y-79566735D01*
X118348158Y-79551490D01*
X118353631Y-79501108D01*
X118354000Y-79494294D01*
X118354000Y-79272115D01*
X118349525Y-79256876D01*
X118348135Y-79255671D01*
X118340452Y-79254000D01*
X117772115Y-79254000D01*
X117756876Y-79258475D01*
X117755671Y-79259865D01*
X117754000Y-79267548D01*
X117754000Y-79935884D01*
X117246000Y-79935884D01*
X117246000Y-79272115D01*
X117241525Y-79256876D01*
X117240135Y-79255671D01*
X117232452Y-79254000D01*
X116664116Y-79254000D01*
X116648877Y-79258475D01*
X116647672Y-79259865D01*
X116646001Y-79267548D01*
X116646001Y-79494292D01*
X116354500Y-79494292D01*
X116354500Y-78502244D01*
X116347798Y-78440552D01*
X116297071Y-78305236D01*
X116291691Y-78298057D01*
X116291689Y-78298054D01*
X116215785Y-78196776D01*
X116210404Y-78189596D01*
X116094764Y-78102929D01*
X116096325Y-78100846D01*
X116055832Y-78060260D01*
X116040819Y-77990869D01*
X116065705Y-77924377D01*
X116095730Y-77898360D01*
X116094764Y-77897071D01*
X116095046Y-77896860D01*
X116210404Y-77810404D01*
X116225713Y-77789977D01*
X116291689Y-77701946D01*
X116291691Y-77701943D01*
X116297071Y-77694764D01*
X116347798Y-77559448D01*
X116354500Y-77497756D01*
X116354500Y-77361909D01*
X116374502Y-77293788D01*
X116428158Y-77247295D01*
X116498432Y-77237191D01*
X116563012Y-77266685D01*
X116576951Y-77280833D01*
X116615951Y-77327229D01*
X116644472Y-77392245D01*
X116645500Y-77408305D01*
X116645500Y-77497756D01*
X116652202Y-77559448D01*
X116702929Y-77694764D01*
X116708309Y-77701943D01*
X116708311Y-77701946D01*
X116774287Y-77789977D01*
X116789596Y-77810404D01*
X116904954Y-77896860D01*
X116905236Y-77897071D01*
X116903777Y-77899018D01*
X116944694Y-77940028D01*
X116959707Y-78009419D01*
X116934820Y-78075911D01*
X116904552Y-78102137D01*
X116905478Y-78103372D01*
X116797133Y-78184572D01*
X116784572Y-78197133D01*
X116708754Y-78298296D01*
X116700222Y-78313882D01*
X116655467Y-78433265D01*
X116651842Y-78448510D01*
X116646369Y-78498892D01*
X116646000Y-78505706D01*
X116646000Y-78727885D01*
X116650475Y-78743124D01*
X116651865Y-78744329D01*
X116659548Y-78746000D01*
X118335884Y-78746000D01*
X118351123Y-78741525D01*
X118352328Y-78740135D01*
X118353999Y-78732452D01*
X118353999Y-78505708D01*
X118353630Y-78498890D01*
X118348159Y-78448518D01*
X118344530Y-78433259D01*
X118299778Y-78313882D01*
X118291246Y-78298296D01*
X118215428Y-78197133D01*
X118202867Y-78184572D01*
X118094522Y-78103372D01*
X118096029Y-78101361D01*
X118055312Y-78060558D01*
X118040292Y-77991168D01*
X118065172Y-77924674D01*
X118095654Y-77898259D01*
X118094764Y-77897071D01*
X118095046Y-77896860D01*
X118210404Y-77810404D01*
X118225713Y-77789977D01*
X118291689Y-77701946D01*
X118291691Y-77701943D01*
X118297071Y-77694764D01*
X118347798Y-77559448D01*
X118354500Y-77497756D01*
X118354500Y-76502244D01*
X118347798Y-76440552D01*
X118297071Y-76305236D01*
X118291691Y-76298057D01*
X118291689Y-76298054D01*
X118215785Y-76196776D01*
X118210404Y-76189596D01*
X118189977Y-76174287D01*
X118101946Y-76108311D01*
X118101943Y-76108309D01*
X118094764Y-76102929D01*
X117971903Y-76056871D01*
X117966843Y-76054974D01*
X117966841Y-76054974D01*
X117959448Y-76052202D01*
X117951598Y-76051349D01*
X117951597Y-76051349D01*
X117901153Y-76045869D01*
X117901152Y-76045869D01*
X117897756Y-76045500D01*
X117102244Y-76045500D01*
X117098848Y-76045869D01*
X117098847Y-76045869D01*
X117048403Y-76051349D01*
X117048402Y-76051349D01*
X117040552Y-76052202D01*
X117033159Y-76054974D01*
X117033157Y-76054974D01*
X117028097Y-76056871D01*
X116905236Y-76102929D01*
X116898057Y-76108309D01*
X116898054Y-76108311D01*
X116810023Y-76174287D01*
X116789596Y-76189596D01*
X116784215Y-76196776D01*
X116708311Y-76298054D01*
X116708309Y-76298057D01*
X116702929Y-76305236D01*
X116652202Y-76440552D01*
X116645500Y-76502244D01*
X116645500Y-76591536D01*
X116625498Y-76659657D01*
X116613941Y-76674944D01*
X116574941Y-76719103D01*
X116514855Y-76756921D01*
X116443862Y-76756251D01*
X116384501Y-76717305D01*
X116355619Y-76652448D01*
X116354500Y-76635695D01*
X116354500Y-76502244D01*
X116347798Y-76440552D01*
X116297071Y-76305236D01*
X116291691Y-76298057D01*
X116291689Y-76298054D01*
X116215785Y-76196776D01*
X116210404Y-76189596D01*
X116189977Y-76174287D01*
X116101946Y-76108311D01*
X116101943Y-76108309D01*
X116094764Y-76102929D01*
X115971903Y-76056871D01*
X115966843Y-76054974D01*
X115966841Y-76054974D01*
X115959448Y-76052202D01*
X115951598Y-76051349D01*
X115951597Y-76051349D01*
X115901153Y-76045869D01*
X115901152Y-76045869D01*
X115897756Y-76045500D01*
X115102244Y-76045500D01*
X115098848Y-76045869D01*
X115098847Y-76045869D01*
X115048403Y-76051349D01*
X115048402Y-76051349D01*
X115040552Y-76052202D01*
X115033159Y-76054974D01*
X115033157Y-76054974D01*
X115028097Y-76056871D01*
X114905236Y-76102929D01*
X114898057Y-76108309D01*
X114898054Y-76108311D01*
X114810023Y-76174287D01*
X114789596Y-76189596D01*
X114784215Y-76196776D01*
X114708311Y-76298054D01*
X114708309Y-76298057D01*
X114702929Y-76305236D01*
X114652202Y-76440552D01*
X114645500Y-76502244D01*
X114645500Y-77497756D01*
X114652202Y-77559448D01*
X114702929Y-77694764D01*
X114708309Y-77701943D01*
X114708311Y-77701946D01*
X114774287Y-77789977D01*
X114789596Y-77810404D01*
X114904954Y-77896860D01*
X114905236Y-77897071D01*
X114903675Y-77899154D01*
X114944168Y-77939740D01*
X114959181Y-78009131D01*
X114934295Y-78075623D01*
X114904270Y-78101640D01*
X114905236Y-78102929D01*
X114789596Y-78189596D01*
X114784215Y-78196776D01*
X114708311Y-78298054D01*
X114708309Y-78298057D01*
X114702929Y-78305236D01*
X114652202Y-78440552D01*
X114651349Y-78448402D01*
X114649521Y-78456091D01*
X114647489Y-78455608D01*
X114624409Y-78511143D01*
X114566043Y-78551566D01*
X114526393Y-78557967D01*
X112835303Y-78557967D01*
X112767182Y-78537965D01*
X112722297Y-78487695D01*
X112667311Y-78376194D01*
X112664756Y-78371013D01*
X112546049Y-78212046D01*
X112529530Y-78196776D01*
X112404600Y-78081292D01*
X112404597Y-78081290D01*
X112400360Y-78077373D01*
X112232569Y-77971505D01*
X112048295Y-77897987D01*
X111877848Y-77864083D01*
X111859375Y-77860408D01*
X111859374Y-77860408D01*
X111853709Y-77859281D01*
X111847934Y-77859205D01*
X111847930Y-77859205D01*
X111748922Y-77857909D01*
X111655328Y-77856684D01*
X111649631Y-77857663D01*
X111649630Y-77857663D01*
X111465492Y-77889304D01*
X111459795Y-77890283D01*
X111273659Y-77958952D01*
X111268697Y-77961904D01*
X111108117Y-78057438D01*
X111108114Y-78057440D01*
X111103154Y-78060391D01*
X111085457Y-78075911D01*
X110958336Y-78187394D01*
X110958333Y-78187397D01*
X110953991Y-78191205D01*
X110950416Y-78195740D01*
X110950414Y-78195742D01*
X110940648Y-78208130D01*
X110831163Y-78347010D01*
X110828472Y-78352126D01*
X110828470Y-78352128D01*
X110741478Y-78517473D01*
X110738786Y-78522590D01*
X110679953Y-78712065D01*
X110656634Y-78909088D01*
X110281904Y-78909088D01*
X110266358Y-78739901D01*
X110260126Y-78717802D01*
X110214074Y-78554515D01*
X110212505Y-78548951D01*
X110124756Y-78371013D01*
X110006049Y-78212046D01*
X109989530Y-78196776D01*
X109864600Y-78081292D01*
X109864597Y-78081290D01*
X109860360Y-78077373D01*
X109692569Y-77971505D01*
X109508295Y-77897987D01*
X109337848Y-77864083D01*
X109319375Y-77860408D01*
X109319374Y-77860408D01*
X109313709Y-77859281D01*
X109307934Y-77859205D01*
X109307930Y-77859205D01*
X109208922Y-77857909D01*
X109115328Y-77856684D01*
X109109631Y-77857663D01*
X109109630Y-77857663D01*
X108925492Y-77889304D01*
X108919795Y-77890283D01*
X108733659Y-77958952D01*
X108728697Y-77961904D01*
X108568117Y-78057438D01*
X108568114Y-78057440D01*
X108563154Y-78060391D01*
X108545457Y-78075911D01*
X108418336Y-78187394D01*
X108418333Y-78187397D01*
X108413991Y-78191205D01*
X108410416Y-78195740D01*
X108410414Y-78195742D01*
X108400648Y-78208130D01*
X108291163Y-78347010D01*
X108288472Y-78352126D01*
X108288470Y-78352128D01*
X108201478Y-78517473D01*
X108198786Y-78522590D01*
X108139953Y-78712065D01*
X108116634Y-78909088D01*
X96711402Y-78909088D01*
X96696394Y-78745746D01*
X96694297Y-78734432D01*
X96643604Y-78554691D01*
X96639482Y-78543952D01*
X96562823Y-78388504D01*
X96553274Y-78378125D01*
X96546842Y-78380223D01*
X96002408Y-78924656D01*
X95994795Y-78938599D01*
X95264743Y-78938599D01*
X95265979Y-78936335D01*
X95265848Y-78934501D01*
X95261597Y-78927887D01*
X94720398Y-78386689D01*
X94708023Y-78379932D01*
X94702057Y-78384398D01*
X94631939Y-78517672D01*
X94627538Y-78528296D01*
X94572157Y-78706652D01*
X94569765Y-78717906D01*
X94547814Y-78903366D01*
X94547513Y-78914867D01*
X94171933Y-78914867D01*
X94156394Y-78745746D01*
X94154297Y-78734432D01*
X94103604Y-78554691D01*
X94099482Y-78543952D01*
X94022823Y-78388504D01*
X94013274Y-78378125D01*
X94006842Y-78380223D01*
X93462408Y-78924656D01*
X93454795Y-78938599D01*
X92724743Y-78938599D01*
X92725979Y-78936335D01*
X92725848Y-78934501D01*
X92721597Y-78927887D01*
X92180398Y-78386689D01*
X92168023Y-78379932D01*
X92162057Y-78384398D01*
X92091939Y-78517672D01*
X92087538Y-78528296D01*
X92032157Y-78706652D01*
X92029765Y-78717906D01*
X92007814Y-78903366D01*
X92007513Y-78914867D01*
X88504500Y-78914867D01*
X88504500Y-78017300D01*
X92534333Y-78017300D01*
X92537819Y-78025688D01*
X93077576Y-78565446D01*
X93091519Y-78573059D01*
X93093353Y-78572928D01*
X93099967Y-78568677D01*
X93639646Y-78028997D01*
X93646033Y-78017300D01*
X95074333Y-78017300D01*
X95077819Y-78025688D01*
X95617576Y-78565446D01*
X95631519Y-78573059D01*
X95633353Y-78572928D01*
X95639967Y-78568677D01*
X96179646Y-78028997D01*
X96186403Y-78016622D01*
X96180373Y-78008566D01*
X96127226Y-77975033D01*
X96116978Y-77969812D01*
X95943517Y-77900608D01*
X95932489Y-77897341D01*
X95749323Y-77860907D01*
X95737877Y-77859704D01*
X95551148Y-77857260D01*
X95539670Y-77858163D01*
X95355619Y-77889790D01*
X95344502Y-77892768D01*
X95169294Y-77957406D01*
X95158912Y-77962358D01*
X95083931Y-78006967D01*
X95074333Y-78017300D01*
X93646033Y-78017300D01*
X93646403Y-78016622D01*
X93640373Y-78008566D01*
X93587226Y-77975033D01*
X93576978Y-77969812D01*
X93403517Y-77900608D01*
X93392489Y-77897341D01*
X93209323Y-77860907D01*
X93197877Y-77859704D01*
X93011148Y-77857260D01*
X92999670Y-77858163D01*
X92815619Y-77889790D01*
X92804502Y-77892768D01*
X92629294Y-77957406D01*
X92618912Y-77962358D01*
X92543931Y-78006967D01*
X92534333Y-78017300D01*
X88504500Y-78017300D01*
X88504500Y-76056871D01*
X88524502Y-75988750D01*
X88541405Y-75967776D01*
X88792777Y-75716404D01*
X88855089Y-75682378D01*
X88881872Y-75679499D01*
X89225066Y-75679499D01*
X89260818Y-75672388D01*
X89287126Y-75667156D01*
X89287128Y-75667155D01*
X89299301Y-75664734D01*
X89309621Y-75657839D01*
X89309622Y-75657838D01*
X89373168Y-75615377D01*
X89383484Y-75608484D01*
X89439734Y-75524301D01*
X89454500Y-75450067D01*
X89454499Y-74399934D01*
X89439734Y-74325699D01*
X89383484Y-74241516D01*
X89384749Y-74240671D01*
X89357379Y-74190548D01*
X89354500Y-74163765D01*
X89354500Y-73497756D01*
X114645500Y-73497756D01*
X114652202Y-73559448D01*
X114702929Y-73694764D01*
X114708309Y-73701943D01*
X114708311Y-73701946D01*
X114774287Y-73789977D01*
X114789596Y-73810404D01*
X114796776Y-73815785D01*
X114898054Y-73891689D01*
X114898057Y-73891691D01*
X114905236Y-73897071D01*
X114994954Y-73930704D01*
X115033157Y-73945026D01*
X115033159Y-73945026D01*
X115040552Y-73947798D01*
X115048402Y-73948651D01*
X115048403Y-73948651D01*
X115097632Y-73953999D01*
X115102244Y-73954500D01*
X115897756Y-73954500D01*
X115902368Y-73953999D01*
X115951597Y-73948651D01*
X115951598Y-73948651D01*
X115959448Y-73947798D01*
X115966841Y-73945026D01*
X115966843Y-73945026D01*
X116005046Y-73930704D01*
X116094764Y-73897071D01*
X116101943Y-73891691D01*
X116101946Y-73891689D01*
X116203224Y-73815785D01*
X116210404Y-73810404D01*
X116225713Y-73789977D01*
X116291689Y-73701946D01*
X116291691Y-73701943D01*
X116297071Y-73694764D01*
X116347798Y-73559448D01*
X116354500Y-73497756D01*
X116354500Y-73408752D01*
X116374502Y-73340631D01*
X116387085Y-73324196D01*
X116422551Y-73285014D01*
X116423884Y-73286220D01*
X116470219Y-73247840D01*
X116540700Y-73239300D01*
X116604609Y-73270221D01*
X116641656Y-73330785D01*
X116646001Y-73363588D01*
X116646001Y-73494292D01*
X116646370Y-73501110D01*
X116651841Y-73551482D01*
X116655470Y-73566741D01*
X116700222Y-73686118D01*
X116708754Y-73701704D01*
X116784572Y-73802867D01*
X116797133Y-73815428D01*
X116898296Y-73891246D01*
X116913882Y-73899778D01*
X117033265Y-73944533D01*
X117048510Y-73948158D01*
X117098892Y-73953631D01*
X117105706Y-73954000D01*
X117227885Y-73954000D01*
X117243124Y-73949525D01*
X117244329Y-73948135D01*
X117246000Y-73940452D01*
X117246000Y-73935884D01*
X117754000Y-73935884D01*
X117758475Y-73951123D01*
X117759865Y-73952328D01*
X117767548Y-73953999D01*
X117894292Y-73953999D01*
X117901110Y-73953630D01*
X117951482Y-73948159D01*
X117966741Y-73944530D01*
X118086118Y-73899778D01*
X118101704Y-73891246D01*
X118202867Y-73815428D01*
X118215428Y-73802867D01*
X118291246Y-73701704D01*
X118299778Y-73686118D01*
X118344533Y-73566735D01*
X118348158Y-73551490D01*
X118353631Y-73501108D01*
X118354000Y-73494294D01*
X118354000Y-73272115D01*
X118349525Y-73256876D01*
X118348135Y-73255671D01*
X118340452Y-73254000D01*
X117772115Y-73254000D01*
X117756876Y-73258475D01*
X117755671Y-73259865D01*
X117754000Y-73267548D01*
X117754000Y-73935884D01*
X117246000Y-73935884D01*
X117246000Y-72727885D01*
X117754000Y-72727885D01*
X117758475Y-72743124D01*
X117759865Y-72744329D01*
X117767548Y-72746000D01*
X118335884Y-72746000D01*
X118351123Y-72741525D01*
X118352328Y-72740135D01*
X118353999Y-72732452D01*
X118353999Y-72505708D01*
X118353630Y-72498890D01*
X118348159Y-72448518D01*
X118344530Y-72433259D01*
X118299778Y-72313882D01*
X118291246Y-72298296D01*
X118215428Y-72197133D01*
X118202867Y-72184572D01*
X118101704Y-72108754D01*
X118086118Y-72100222D01*
X117966735Y-72055467D01*
X117951490Y-72051842D01*
X117901108Y-72046369D01*
X117894294Y-72046000D01*
X117772115Y-72046000D01*
X117756876Y-72050475D01*
X117755671Y-72051865D01*
X117754000Y-72059548D01*
X117754000Y-72727885D01*
X117246000Y-72727885D01*
X117246000Y-72064116D01*
X117241525Y-72048877D01*
X117240135Y-72047672D01*
X117232452Y-72046001D01*
X117105708Y-72046001D01*
X117098890Y-72046370D01*
X117048518Y-72051841D01*
X117033259Y-72055470D01*
X116913882Y-72100222D01*
X116898296Y-72108754D01*
X116797133Y-72184572D01*
X116784572Y-72197133D01*
X116708754Y-72298296D01*
X116700222Y-72313882D01*
X116655467Y-72433265D01*
X116651842Y-72448510D01*
X116646369Y-72498892D01*
X116646000Y-72505706D01*
X116646000Y-72637529D01*
X116625998Y-72705650D01*
X116572342Y-72752143D01*
X116502068Y-72762247D01*
X116437488Y-72732753D01*
X116424547Y-72719777D01*
X116385047Y-72673935D01*
X116355733Y-72609272D01*
X116354500Y-72591687D01*
X116354500Y-72502244D01*
X116347798Y-72440552D01*
X116297071Y-72305236D01*
X116291691Y-72298057D01*
X116291689Y-72298054D01*
X116215785Y-72196776D01*
X116210404Y-72189596D01*
X116189977Y-72174287D01*
X116101946Y-72108311D01*
X116101943Y-72108309D01*
X116094764Y-72102929D01*
X115968166Y-72055470D01*
X115966843Y-72054974D01*
X115966841Y-72054974D01*
X115959448Y-72052202D01*
X115951598Y-72051349D01*
X115951597Y-72051349D01*
X115901153Y-72045869D01*
X115901152Y-72045869D01*
X115897756Y-72045500D01*
X115102244Y-72045500D01*
X115098848Y-72045869D01*
X115098847Y-72045869D01*
X115048403Y-72051349D01*
X115048402Y-72051349D01*
X115040552Y-72052202D01*
X115033159Y-72054974D01*
X115033157Y-72054974D01*
X115031834Y-72055470D01*
X114905236Y-72102929D01*
X114898057Y-72108309D01*
X114898054Y-72108311D01*
X114810023Y-72174287D01*
X114789596Y-72189596D01*
X114784215Y-72196776D01*
X114708311Y-72298054D01*
X114708309Y-72298057D01*
X114702929Y-72305236D01*
X114652202Y-72440552D01*
X114645500Y-72502244D01*
X114645500Y-73497756D01*
X89354500Y-73497756D01*
X89354500Y-73330499D01*
X89374502Y-73262378D01*
X89428158Y-73215885D01*
X89480500Y-73204499D01*
X89725066Y-73204499D01*
X89760818Y-73197388D01*
X89787126Y-73192156D01*
X89787128Y-73192155D01*
X89799301Y-73189734D01*
X89809621Y-73182839D01*
X89809622Y-73182838D01*
X89873168Y-73140377D01*
X89883484Y-73133484D01*
X89939734Y-73049301D01*
X89954500Y-72975067D01*
X89954499Y-71376433D01*
X89974501Y-71308312D01*
X89991404Y-71287338D01*
X91711276Y-69567466D01*
X91773588Y-69533440D01*
X91800371Y-69530561D01*
X107636997Y-69530561D01*
X107659305Y-69532552D01*
X107665179Y-69533609D01*
X107673342Y-69536261D01*
X107681919Y-69536620D01*
X107681922Y-69536621D01*
X107727855Y-69538546D01*
X107735748Y-69539125D01*
X107781495Y-69543933D01*
X107781496Y-69543933D01*
X107790040Y-69544831D01*
X107798513Y-69543398D01*
X107807092Y-69543128D01*
X107807097Y-69543293D01*
X107808013Y-69543236D01*
X107807997Y-69543071D01*
X107816551Y-69542262D01*
X107825133Y-69542622D01*
X107833498Y-69540660D01*
X107833499Y-69540660D01*
X107878258Y-69530162D01*
X107886016Y-69528598D01*
X107931366Y-69520928D01*
X107931369Y-69520927D01*
X107939836Y-69519495D01*
X107947608Y-69515838D01*
X107955805Y-69513269D01*
X107955854Y-69513426D01*
X107956720Y-69513124D01*
X107956661Y-69512970D01*
X107964679Y-69509893D01*
X107973042Y-69507931D01*
X107980567Y-69503794D01*
X107980570Y-69503793D01*
X108020860Y-69481643D01*
X108027913Y-69478050D01*
X108069525Y-69458469D01*
X108069530Y-69458466D01*
X108077301Y-69454809D01*
X108083805Y-69449195D01*
X108091005Y-69444519D01*
X108091095Y-69444658D01*
X108095093Y-69441879D01*
X108094963Y-69441693D01*
X108100384Y-69437925D01*
X108106174Y-69434742D01*
X108111983Y-69429727D01*
X108112599Y-69429196D01*
X108112606Y-69429190D01*
X108114350Y-69427684D01*
X108146553Y-69395481D01*
X108153317Y-69389194D01*
X108185804Y-69361153D01*
X108185807Y-69361150D01*
X108192307Y-69355539D01*
X108197063Y-69348381D01*
X108197733Y-69347621D01*
X108212706Y-69329329D01*
X108888109Y-68653926D01*
X108950421Y-68619900D01*
X109005012Y-68620128D01*
X109053243Y-68631042D01*
X109053249Y-68631043D01*
X109058880Y-68632317D01*
X109064651Y-68632544D01*
X109064653Y-68632544D01*
X109125203Y-68634923D01*
X109257126Y-68640106D01*
X109364589Y-68624525D01*
X109447750Y-68612468D01*
X109447755Y-68612467D01*
X109453471Y-68611638D01*
X109458943Y-68609780D01*
X109458945Y-68609780D01*
X109635876Y-68549719D01*
X109635878Y-68549718D01*
X109641340Y-68547864D01*
X109814442Y-68450923D01*
X109853208Y-68418682D01*
X109962541Y-68327750D01*
X109966979Y-68324059D01*
X110093843Y-68171522D01*
X110096612Y-68166578D01*
X110151649Y-68121791D01*
X110200423Y-68111968D01*
X110745056Y-68111968D01*
X110813177Y-68131970D01*
X110847952Y-68165247D01*
X110916012Y-68261550D01*
X111058125Y-68399990D01*
X111062929Y-68403200D01*
X111086099Y-68418682D01*
X111223087Y-68510215D01*
X111228395Y-68512496D01*
X111228396Y-68512496D01*
X111400071Y-68586253D01*
X111400074Y-68586254D01*
X111405374Y-68588531D01*
X111411003Y-68589805D01*
X111411004Y-68589805D01*
X111593243Y-68631042D01*
X111593249Y-68631043D01*
X111598880Y-68632317D01*
X111604651Y-68632544D01*
X111604653Y-68632544D01*
X111665203Y-68634923D01*
X111797126Y-68640106D01*
X111904589Y-68624525D01*
X111987750Y-68612468D01*
X111987755Y-68612467D01*
X111993471Y-68611638D01*
X111998943Y-68609780D01*
X111998945Y-68609780D01*
X112175876Y-68549719D01*
X112175878Y-68549718D01*
X112181340Y-68547864D01*
X112354442Y-68450923D01*
X112393208Y-68418682D01*
X112502541Y-68327750D01*
X112506979Y-68324059D01*
X112633843Y-68171522D01*
X112706274Y-68042186D01*
X116141018Y-68042186D01*
X116166579Y-68310100D01*
X116167664Y-68314534D01*
X116167665Y-68314540D01*
X116216462Y-68513958D01*
X116230547Y-68571518D01*
X116331583Y-68820963D01*
X116467569Y-69053210D01*
X116523516Y-69123168D01*
X116588559Y-69204500D01*
X116635658Y-69263395D01*
X116832327Y-69447113D01*
X117053457Y-69600516D01*
X117294416Y-69720391D01*
X117298750Y-69721812D01*
X117298753Y-69721813D01*
X117545823Y-69802807D01*
X117545829Y-69802808D01*
X117550156Y-69804227D01*
X117554647Y-69805007D01*
X117554648Y-69805007D01*
X117811538Y-69849611D01*
X117811546Y-69849612D01*
X117815319Y-69850267D01*
X117819156Y-69850458D01*
X117898777Y-69854422D01*
X117898785Y-69854422D01*
X117900348Y-69854500D01*
X118068374Y-69854500D01*
X118070642Y-69854335D01*
X118070654Y-69854335D01*
X118201457Y-69844844D01*
X118268425Y-69839985D01*
X118272880Y-69839001D01*
X118272883Y-69839001D01*
X118526770Y-69782947D01*
X118526772Y-69782946D01*
X118531226Y-69781963D01*
X118782900Y-69686613D01*
X119018172Y-69555931D01*
X119118015Y-69479733D01*
X119228491Y-69395421D01*
X119228495Y-69395417D01*
X119232116Y-69392654D01*
X119420249Y-69200203D01*
X119476321Y-69123168D01*
X119575942Y-68986304D01*
X119575947Y-68986297D01*
X119578630Y-68982610D01*
X119703941Y-68744433D01*
X119778868Y-68532259D01*
X119792034Y-68494975D01*
X119792034Y-68494974D01*
X119793557Y-68490662D01*
X119827269Y-68319621D01*
X119844720Y-68231083D01*
X119844721Y-68231077D01*
X119845601Y-68226611D01*
X119845828Y-68222055D01*
X119858755Y-67962383D01*
X119858755Y-67962377D01*
X119858982Y-67957814D01*
X119833421Y-67689900D01*
X119825945Y-67659345D01*
X119770539Y-67432920D01*
X119769453Y-67428482D01*
X119668417Y-67179037D01*
X119532431Y-66946790D01*
X119364342Y-66736605D01*
X119167673Y-66552887D01*
X118946543Y-66399484D01*
X118705584Y-66279609D01*
X118701250Y-66278188D01*
X118701247Y-66278187D01*
X118454177Y-66197193D01*
X118454171Y-66197192D01*
X118449844Y-66195773D01*
X118445352Y-66194993D01*
X118188462Y-66150389D01*
X118188454Y-66150388D01*
X118184681Y-66149733D01*
X118174718Y-66149237D01*
X118101223Y-66145578D01*
X118101215Y-66145578D01*
X118099652Y-66145500D01*
X117931626Y-66145500D01*
X117929358Y-66145665D01*
X117929346Y-66145665D01*
X117798543Y-66155156D01*
X117731575Y-66160015D01*
X117727120Y-66160999D01*
X117727117Y-66160999D01*
X117473230Y-66217053D01*
X117473228Y-66217054D01*
X117468774Y-66218037D01*
X117217100Y-66313387D01*
X117213114Y-66315601D01*
X117213112Y-66315602D01*
X117005137Y-66431122D01*
X116981828Y-66444069D01*
X116978196Y-66446841D01*
X116771509Y-66604579D01*
X116771505Y-66604583D01*
X116767884Y-66607346D01*
X116579751Y-66799797D01*
X116577066Y-66803486D01*
X116424058Y-67013696D01*
X116424053Y-67013703D01*
X116421370Y-67017390D01*
X116296059Y-67255567D01*
X116206443Y-67509338D01*
X116201414Y-67534854D01*
X116162426Y-67732665D01*
X116154399Y-67773389D01*
X116154172Y-67777942D01*
X116154172Y-67777945D01*
X116143197Y-67998420D01*
X116141018Y-68042186D01*
X112706274Y-68042186D01*
X112730784Y-67998420D01*
X112732639Y-67992956D01*
X112792700Y-67816025D01*
X112792700Y-67816023D01*
X112794558Y-67810551D01*
X112795387Y-67804835D01*
X112795388Y-67804830D01*
X112822493Y-67617880D01*
X112823026Y-67614206D01*
X112824512Y-67557467D01*
X112806358Y-67359901D01*
X112800126Y-67337802D01*
X112776933Y-67255567D01*
X112752505Y-67168951D01*
X112664756Y-66991013D01*
X112637844Y-66954973D01*
X112549502Y-66836670D01*
X112546049Y-66832046D01*
X112528418Y-66815748D01*
X112404600Y-66701292D01*
X112404597Y-66701290D01*
X112400360Y-66697373D01*
X112232569Y-66591505D01*
X112048295Y-66517987D01*
X111853709Y-66479281D01*
X111847934Y-66479205D01*
X111847930Y-66479205D01*
X111748922Y-66477909D01*
X111655328Y-66476684D01*
X111649631Y-66477663D01*
X111649630Y-66477663D01*
X111465492Y-66509304D01*
X111459795Y-66510283D01*
X111273659Y-66578952D01*
X111268697Y-66581904D01*
X111108117Y-66677438D01*
X111108114Y-66677440D01*
X111103154Y-66680391D01*
X111098811Y-66684200D01*
X110958336Y-66807394D01*
X110958333Y-66807397D01*
X110953991Y-66811205D01*
X110840652Y-66954974D01*
X110782771Y-66996087D01*
X110741702Y-67002968D01*
X110196848Y-67002968D01*
X110128727Y-66982966D01*
X110095890Y-66952357D01*
X110009502Y-66836670D01*
X110006049Y-66832046D01*
X109988418Y-66815748D01*
X109864600Y-66701292D01*
X109864597Y-66701290D01*
X109860360Y-66697373D01*
X109692569Y-66591505D01*
X109508295Y-66517987D01*
X109313709Y-66479281D01*
X109307934Y-66479205D01*
X109307930Y-66479205D01*
X109208922Y-66477909D01*
X109115328Y-66476684D01*
X109109631Y-66477663D01*
X109109630Y-66477663D01*
X108925492Y-66509304D01*
X108919795Y-66510283D01*
X108733659Y-66578952D01*
X108728697Y-66581904D01*
X108568117Y-66677438D01*
X108568114Y-66677440D01*
X108563154Y-66680391D01*
X108558811Y-66684200D01*
X108418336Y-66807394D01*
X108418333Y-66807397D01*
X108413991Y-66811205D01*
X108410416Y-66815740D01*
X108410414Y-66815742D01*
X108400648Y-66828130D01*
X108291163Y-66967010D01*
X108288472Y-66972126D01*
X108288470Y-66972128D01*
X108224761Y-67093219D01*
X108198786Y-67142590D01*
X108139953Y-67332065D01*
X108116634Y-67529088D01*
X108129609Y-67727062D01*
X108131032Y-67732665D01*
X108135668Y-67750921D01*
X108133049Y-67821870D01*
X108102640Y-67871031D01*
X107589015Y-68384656D01*
X107526703Y-68418682D01*
X107499920Y-68421561D01*
X96584563Y-68421561D01*
X96516442Y-68401559D01*
X96469949Y-68347903D01*
X96459845Y-68277629D01*
X96487688Y-68214994D01*
X96523843Y-68171522D01*
X96620784Y-67998420D01*
X96622639Y-67992956D01*
X96682700Y-67816025D01*
X96682700Y-67816023D01*
X96684558Y-67810551D01*
X96685387Y-67804835D01*
X96685388Y-67804830D01*
X96712493Y-67617880D01*
X96713026Y-67614206D01*
X96714512Y-67557467D01*
X96696358Y-67359901D01*
X96690126Y-67337802D01*
X96666933Y-67255567D01*
X96642505Y-67168951D01*
X96554756Y-66991013D01*
X96527844Y-66954973D01*
X96439502Y-66836670D01*
X96436049Y-66832046D01*
X96418418Y-66815748D01*
X96294600Y-66701292D01*
X96294597Y-66701290D01*
X96290360Y-66697373D01*
X96122569Y-66591505D01*
X95938295Y-66517987D01*
X95743709Y-66479281D01*
X95737934Y-66479205D01*
X95737930Y-66479205D01*
X95638922Y-66477909D01*
X95545328Y-66476684D01*
X95539631Y-66477663D01*
X95539630Y-66477663D01*
X95355492Y-66509304D01*
X95349795Y-66510283D01*
X95163659Y-66578952D01*
X95158697Y-66581904D01*
X94998117Y-66677438D01*
X94998114Y-66677440D01*
X94993154Y-66680391D01*
X94988811Y-66684200D01*
X94848336Y-66807394D01*
X94848333Y-66807397D01*
X94843991Y-66811205D01*
X94730652Y-66954974D01*
X94672771Y-66996087D01*
X94631702Y-67002968D01*
X94086848Y-67002968D01*
X94018727Y-66982966D01*
X93985890Y-66952357D01*
X93899502Y-66836670D01*
X93896049Y-66832046D01*
X93878418Y-66815748D01*
X93754600Y-66701292D01*
X93754597Y-66701290D01*
X93750360Y-66697373D01*
X93582569Y-66591505D01*
X93398295Y-66517987D01*
X93203709Y-66479281D01*
X93197934Y-66479205D01*
X93197930Y-66479205D01*
X93098922Y-66477909D01*
X93005328Y-66476684D01*
X92999631Y-66477663D01*
X92999630Y-66477663D01*
X92815492Y-66509304D01*
X92809795Y-66510283D01*
X92623659Y-66578952D01*
X92618697Y-66581904D01*
X92458117Y-66677438D01*
X92458114Y-66677440D01*
X92453154Y-66680391D01*
X92448811Y-66684200D01*
X92308336Y-66807394D01*
X92308333Y-66807397D01*
X92303991Y-66811205D01*
X92300417Y-66815738D01*
X92300408Y-66815748D01*
X92190651Y-66954973D01*
X92132770Y-66996086D01*
X92091702Y-67002967D01*
X90080499Y-67002967D01*
X90012378Y-66982965D01*
X89965885Y-66929309D01*
X89954499Y-66876967D01*
X89954499Y-66424934D01*
X89939734Y-66350699D01*
X89883484Y-66266516D01*
X89799301Y-66210266D01*
X89725067Y-66195500D01*
X88800150Y-66195500D01*
X87874934Y-66195501D01*
X87839182Y-66202612D01*
X87812874Y-66207844D01*
X87812872Y-66207845D01*
X87800699Y-66210266D01*
X87790379Y-66217161D01*
X87790378Y-66217162D01*
X87786649Y-66219654D01*
X87716516Y-66266516D01*
X87660266Y-66350699D01*
X87645500Y-66424933D01*
X87645500Y-66431120D01*
X87645501Y-68012688D01*
X87625499Y-68080809D01*
X87608596Y-68101783D01*
X85878587Y-69831792D01*
X85874779Y-69835445D01*
X85828734Y-69877786D01*
X85824211Y-69885081D01*
X85824210Y-69885082D01*
X85805619Y-69915066D01*
X85798896Y-69924848D01*
X85772370Y-69959795D01*
X85769209Y-69967779D01*
X85766763Y-69973956D01*
X85756700Y-69993962D01*
X85753206Y-69999597D01*
X85753202Y-69999606D01*
X85748677Y-70006904D01*
X85746281Y-70015151D01*
X85736435Y-70049040D01*
X85732593Y-70060262D01*
X85716444Y-70101050D01*
X85715546Y-70109595D01*
X85714852Y-70116193D01*
X85710541Y-70138165D01*
X85706291Y-70152795D01*
X85705500Y-70163567D01*
X85705500Y-70198565D01*
X85704810Y-70211735D01*
X85700563Y-70252141D01*
X85703737Y-70270906D01*
X85705500Y-70291908D01*
X85705500Y-74163765D01*
X85685498Y-74231886D01*
X85679162Y-74239748D01*
X85676516Y-74241516D01*
X85620266Y-74325699D01*
X85605500Y-74399933D01*
X85605501Y-75450066D01*
X85620266Y-75524301D01*
X85676516Y-75608484D01*
X85760699Y-75664734D01*
X85834933Y-75679500D01*
X86178129Y-75679500D01*
X86246250Y-75699502D01*
X86267224Y-75716405D01*
X86518595Y-75967776D01*
X86552621Y-76030088D01*
X86555500Y-76056871D01*
X86555500Y-80194500D01*
X86535498Y-80262621D01*
X86481842Y-80309114D01*
X86429500Y-80320500D01*
X85868670Y-80320501D01*
X85834934Y-80320501D01*
X85799182Y-80327612D01*
X85772874Y-80332844D01*
X85772872Y-80332845D01*
X85760699Y-80335266D01*
X85750379Y-80342161D01*
X85750378Y-80342162D01*
X85689985Y-80382516D01*
X85676516Y-80391516D01*
X85620266Y-80475699D01*
X85605500Y-80549933D01*
X85605500Y-80893127D01*
X85585498Y-80961248D01*
X85568596Y-80982222D01*
X84878575Y-81672244D01*
X84874766Y-81675897D01*
X84828734Y-81718226D01*
X84824211Y-81725521D01*
X84824210Y-81725522D01*
X84805619Y-81755506D01*
X84798896Y-81765288D01*
X84786544Y-81781561D01*
X84772370Y-81800235D01*
X84769209Y-81808219D01*
X84766763Y-81814396D01*
X84756700Y-81834402D01*
X84753206Y-81840037D01*
X84753202Y-81840046D01*
X84748677Y-81847344D01*
X84746281Y-81855591D01*
X84736435Y-81889480D01*
X84732593Y-81900702D01*
X84716444Y-81941490D01*
X84715546Y-81950035D01*
X84714852Y-81956633D01*
X84710541Y-81978605D01*
X84706291Y-81993235D01*
X84705500Y-82004007D01*
X84705500Y-82039005D01*
X84704810Y-82052175D01*
X84700563Y-82092581D01*
X84703737Y-82111346D01*
X84705500Y-82132348D01*
X84705500Y-83634925D01*
X84705390Y-83640201D01*
X84702772Y-83702674D01*
X84704734Y-83711039D01*
X84712788Y-83745378D01*
X84714951Y-83757051D01*
X84720905Y-83800518D01*
X84724317Y-83808402D01*
X84726953Y-83814494D01*
X84733987Y-83835763D01*
X84737463Y-83850583D01*
X84758603Y-83889037D01*
X84763818Y-83899683D01*
X84777830Y-83932063D01*
X84777832Y-83932067D01*
X84781242Y-83939946D01*
X84786646Y-83946619D01*
X84786647Y-83946621D01*
X84790821Y-83951775D01*
X84803312Y-83970363D01*
X84810652Y-83983715D01*
X84817710Y-83991891D01*
X84842453Y-84016634D01*
X84851279Y-84026435D01*
X84871444Y-84051338D01*
X84871447Y-84051341D01*
X84876850Y-84058013D01*
X84892364Y-84069038D01*
X84908464Y-84082645D01*
X86608595Y-85782777D01*
X86642621Y-85845089D01*
X86645500Y-85871872D01*
X86645500Y-88194500D01*
X86625498Y-88262621D01*
X86571842Y-88309114D01*
X86519500Y-88320500D01*
X85872884Y-88320501D01*
X85834934Y-88320501D01*
X85799182Y-88327612D01*
X85772874Y-88332844D01*
X85772872Y-88332845D01*
X85760699Y-88335266D01*
X85750379Y-88342161D01*
X85750378Y-88342162D01*
X85747777Y-88343900D01*
X85676516Y-88391516D01*
X85620266Y-88475699D01*
X85605500Y-88549933D01*
X85605501Y-89600066D01*
X85620266Y-89674301D01*
X85627161Y-89684620D01*
X85627162Y-89684622D01*
X85676516Y-89758484D01*
X85675251Y-89759329D01*
X85702621Y-89809452D01*
X85705500Y-89836235D01*
X85705500Y-107675665D01*
X85705390Y-107680941D01*
X85702772Y-107743414D01*
X85704734Y-107751779D01*
X85712788Y-107786118D01*
X85714951Y-107797791D01*
X85720905Y-107841258D01*
X85724317Y-107849142D01*
X85726953Y-107855234D01*
X85733987Y-107876503D01*
X85737463Y-107891323D01*
X85758603Y-107929777D01*
X85763818Y-107940423D01*
X85777830Y-107972803D01*
X85777832Y-107972807D01*
X85781242Y-107980686D01*
X85786646Y-107987359D01*
X85786647Y-107987361D01*
X85790821Y-107992515D01*
X85803312Y-108011103D01*
X85810652Y-108024455D01*
X85817710Y-108032631D01*
X85842453Y-108057374D01*
X85851279Y-108067175D01*
X85871444Y-108092078D01*
X85871447Y-108092081D01*
X85876850Y-108098753D01*
X85892364Y-108109778D01*
X85908464Y-108123385D01*
X87969833Y-110184754D01*
X87969839Y-110184761D01*
X92761192Y-114976114D01*
X92764845Y-114979922D01*
X92801305Y-115019571D01*
X92807186Y-115025967D01*
X92814481Y-115030490D01*
X92814482Y-115030491D01*
X92844466Y-115049082D01*
X92854248Y-115055805D01*
X92889195Y-115082331D01*
X92897180Y-115085492D01*
X92897179Y-115085492D01*
X92903356Y-115087938D01*
X92923362Y-115098001D01*
X92928997Y-115101495D01*
X92929006Y-115101499D01*
X92936304Y-115106024D01*
X92944551Y-115108420D01*
X92978440Y-115118266D01*
X92989662Y-115122108D01*
X93030450Y-115138257D01*
X93044058Y-115139688D01*
X93045593Y-115139849D01*
X93067565Y-115144160D01*
X93082195Y-115148410D01*
X93092967Y-115149201D01*
X93127965Y-115149201D01*
X93141135Y-115149891D01*
X93155187Y-115151368D01*
X93172997Y-115153240D01*
X93181541Y-115154138D01*
X93200306Y-115150964D01*
X93221308Y-115149201D01*
X100732597Y-115149201D01*
X100800718Y-115169203D01*
X100821692Y-115186106D01*
X100988595Y-115353009D01*
X101022621Y-115415321D01*
X101025500Y-115442104D01*
X101025500Y-116929060D01*
X101005498Y-116997181D01*
X100951842Y-117043674D01*
X100881568Y-117053778D01*
X100872495Y-117052132D01*
X100867424Y-117051019D01*
X100860179Y-117048475D01*
X100852540Y-117047753D01*
X100852536Y-117047752D01*
X100839864Y-117046555D01*
X100828708Y-117045500D01*
X100331292Y-117045500D01*
X100320136Y-117046555D01*
X100307464Y-117047752D01*
X100307460Y-117047753D01*
X100299821Y-117048475D01*
X100292576Y-117051019D01*
X100287505Y-117052132D01*
X100216680Y-117047195D01*
X100159768Y-117004750D01*
X100134837Y-116938275D01*
X100134500Y-116929060D01*
X100134500Y-116918252D01*
X100134610Y-116912976D01*
X100136868Y-116859086D01*
X100137228Y-116850503D01*
X100127212Y-116807799D01*
X100125049Y-116796126D01*
X100120261Y-116761172D01*
X100119095Y-116752659D01*
X100113047Y-116738683D01*
X100106013Y-116717414D01*
X100104498Y-116710955D01*
X100102537Y-116702594D01*
X100081397Y-116664140D01*
X100076182Y-116653494D01*
X100062170Y-116621114D01*
X100062168Y-116621110D01*
X100058758Y-116613231D01*
X100049179Y-116601402D01*
X100036688Y-116582814D01*
X100029348Y-116569462D01*
X100022290Y-116561286D01*
X99997547Y-116536543D01*
X99988721Y-116526742D01*
X99968556Y-116501839D01*
X99968553Y-116501836D01*
X99963150Y-116495164D01*
X99947636Y-116484139D01*
X99931536Y-116470532D01*
X99584080Y-116123076D01*
X99580427Y-116119268D01*
X99543896Y-116079541D01*
X99543895Y-116079540D01*
X99538086Y-116073223D01*
X99522957Y-116063842D01*
X99500806Y-116050108D01*
X99491024Y-116043385D01*
X99462917Y-116022051D01*
X99462918Y-116022051D01*
X99456077Y-116016859D01*
X99446365Y-116013014D01*
X99441916Y-116011252D01*
X99421910Y-116001189D01*
X99416275Y-115997695D01*
X99416266Y-115997691D01*
X99408968Y-115993166D01*
X99366833Y-115980924D01*
X99355610Y-115977082D01*
X99314822Y-115960933D01*
X99300620Y-115959440D01*
X99299679Y-115959341D01*
X99277706Y-115955030D01*
X99263077Y-115950780D01*
X99252305Y-115949989D01*
X99217307Y-115949989D01*
X99204136Y-115949299D01*
X99193919Y-115948225D01*
X99184747Y-115947261D01*
X99172275Y-115945950D01*
X99163731Y-115945052D01*
X99144966Y-115948226D01*
X99123964Y-115949989D01*
X88303297Y-115949989D01*
X88298021Y-115949879D01*
X88235548Y-115947261D01*
X88227183Y-115949223D01*
X88192844Y-115957277D01*
X88181171Y-115959440D01*
X88170272Y-115960933D01*
X88137704Y-115965394D01*
X88124989Y-115970896D01*
X88123728Y-115971442D01*
X88102459Y-115978476D01*
X88087639Y-115981952D01*
X88049185Y-116003092D01*
X88038539Y-116008307D01*
X88006159Y-116022319D01*
X88006155Y-116022321D01*
X87998276Y-116025731D01*
X87991603Y-116031135D01*
X87991601Y-116031136D01*
X87986447Y-116035310D01*
X87967859Y-116047801D01*
X87954507Y-116055141D01*
X87949503Y-116059461D01*
X87948082Y-116060687D01*
X87948075Y-116060693D01*
X87946331Y-116062199D01*
X87921588Y-116086942D01*
X87911787Y-116095768D01*
X87886884Y-116115933D01*
X87886881Y-116115936D01*
X87880209Y-116121339D01*
X87869184Y-116136853D01*
X87855577Y-116152953D01*
X86094587Y-117913943D01*
X86090779Y-117917596D01*
X86044734Y-117959937D01*
X86040211Y-117967232D01*
X86040210Y-117967233D01*
X86021619Y-117997217D01*
X86014896Y-118006999D01*
X85988370Y-118041946D01*
X85985209Y-118049930D01*
X85982763Y-118056107D01*
X85972700Y-118076113D01*
X85969206Y-118081748D01*
X85969202Y-118081757D01*
X85964677Y-118089055D01*
X85962281Y-118097302D01*
X85952435Y-118131191D01*
X85948593Y-118142413D01*
X85932444Y-118183201D01*
X85931546Y-118191746D01*
X85930852Y-118198344D01*
X85926541Y-118220316D01*
X85922291Y-118234946D01*
X85921500Y-118245718D01*
X85921500Y-118280716D01*
X85920810Y-118293886D01*
X85916563Y-118334292D01*
X85919737Y-118353057D01*
X85921500Y-118374059D01*
X85921500Y-120661279D01*
X85901498Y-120729400D01*
X85874456Y-120759471D01*
X85797066Y-120821695D01*
X85675332Y-120966771D01*
X85672369Y-120972160D01*
X85672366Y-120972165D01*
X85626887Y-121054892D01*
X85584096Y-121132729D01*
X85582235Y-121138595D01*
X85582233Y-121138600D01*
X85580590Y-121143780D01*
X85540925Y-121202663D01*
X85475722Y-121230754D01*
X85405682Y-121219134D01*
X85353044Y-121171493D01*
X85343995Y-121153690D01*
X85342936Y-121151120D01*
X85341155Y-121145220D01*
X85338262Y-121139779D01*
X85338261Y-121139776D01*
X85255140Y-120983450D01*
X85255139Y-120983448D01*
X85252244Y-120978004D01*
X85207706Y-120923395D01*
X85136443Y-120836017D01*
X85136440Y-120836014D01*
X85132548Y-120831242D01*
X85126715Y-120826416D01*
X84991374Y-120714452D01*
X84991375Y-120714452D01*
X84986626Y-120710524D01*
X84981209Y-120707595D01*
X84981206Y-120707593D01*
X84825455Y-120623379D01*
X84825450Y-120623377D01*
X84820035Y-120620449D01*
X84746254Y-120597610D01*
X84645008Y-120566269D01*
X84645005Y-120566268D01*
X84639121Y-120564447D01*
X84632996Y-120563803D01*
X84632995Y-120563803D01*
X84456902Y-120545295D01*
X84456901Y-120545295D01*
X84450774Y-120544651D01*
X84371232Y-120551890D01*
X84268309Y-120561256D01*
X84268306Y-120561257D01*
X84262170Y-120561815D01*
X84256264Y-120563553D01*
X84256260Y-120563554D01*
X84133652Y-120599640D01*
X84080492Y-120615286D01*
X83912659Y-120703027D01*
X83907859Y-120706887D01*
X83907858Y-120706887D01*
X83891117Y-120720347D01*
X83765066Y-120821695D01*
X83761107Y-120826413D01*
X83761106Y-120826414D01*
X83647290Y-120962054D01*
X83643332Y-120966771D01*
X83640369Y-120972160D01*
X83640366Y-120972165D01*
X83594887Y-121054892D01*
X83552096Y-121132729D01*
X83550235Y-121138596D01*
X83550234Y-121138598D01*
X83500673Y-121294834D01*
X83494832Y-121313248D01*
X83473722Y-121501451D01*
X79254500Y-121501451D01*
X79254500Y-119017769D01*
X79765356Y-119017769D01*
X79791270Y-119289381D01*
X79856122Y-119554407D01*
X79857837Y-119558642D01*
X79857838Y-119558644D01*
X79909333Y-119685780D01*
X79958552Y-119807295D01*
X80096416Y-120042749D01*
X80266825Y-120255835D01*
X80466209Y-120442089D01*
X80690391Y-120597610D01*
X80742189Y-120623379D01*
X80930589Y-120717107D01*
X80930592Y-120717108D01*
X80934676Y-120719140D01*
X80939015Y-120720562D01*
X80939014Y-120720562D01*
X81189613Y-120802713D01*
X81189618Y-120802714D01*
X81193946Y-120804133D01*
X81198437Y-120804913D01*
X81198438Y-120804913D01*
X81458988Y-120850152D01*
X81458996Y-120850153D01*
X81462769Y-120850808D01*
X81466606Y-120850999D01*
X81547411Y-120855022D01*
X81547419Y-120855022D01*
X81548982Y-120855100D01*
X81719311Y-120855100D01*
X81721579Y-120854935D01*
X81721591Y-120854935D01*
X81853688Y-120845350D01*
X81922130Y-120840384D01*
X81926585Y-120839400D01*
X81926588Y-120839400D01*
X82184099Y-120782547D01*
X82184103Y-120782546D01*
X82188559Y-120781562D01*
X82365693Y-120714452D01*
X82439437Y-120686513D01*
X82439440Y-120686512D01*
X82443707Y-120684895D01*
X82657274Y-120566269D01*
X82678234Y-120554627D01*
X82678235Y-120554626D01*
X82682227Y-120552409D01*
X82823375Y-120444688D01*
X82895492Y-120389650D01*
X82895493Y-120389649D01*
X82899124Y-120386878D01*
X83089854Y-120191771D01*
X83250421Y-119971174D01*
X83377462Y-119729710D01*
X83393853Y-119683296D01*
X83437407Y-119559960D01*
X83468315Y-119472435D01*
X83497319Y-119325283D01*
X83520197Y-119209211D01*
X83520198Y-119209205D01*
X83521078Y-119204739D01*
X83530386Y-119017769D01*
X83534417Y-118936800D01*
X83534417Y-118936794D01*
X83534644Y-118932231D01*
X83508730Y-118660619D01*
X83443878Y-118395593D01*
X83383173Y-118245718D01*
X83343161Y-118146934D01*
X83343161Y-118146933D01*
X83341448Y-118142705D01*
X83203584Y-117907251D01*
X83033175Y-117694165D01*
X82833791Y-117507911D01*
X82609609Y-117352390D01*
X82453480Y-117274717D01*
X82369411Y-117232893D01*
X82369408Y-117232892D01*
X82365324Y-117230860D01*
X82326603Y-117218167D01*
X82110387Y-117147287D01*
X82110382Y-117147286D01*
X82106054Y-117145867D01*
X82101562Y-117145087D01*
X81841012Y-117099848D01*
X81841004Y-117099847D01*
X81837231Y-117099192D01*
X81826384Y-117098652D01*
X81752589Y-117094978D01*
X81752581Y-117094978D01*
X81751018Y-117094900D01*
X81580689Y-117094900D01*
X81578421Y-117095065D01*
X81578409Y-117095065D01*
X81446312Y-117104650D01*
X81377870Y-117109616D01*
X81373415Y-117110600D01*
X81373412Y-117110600D01*
X81115901Y-117167453D01*
X81115897Y-117167454D01*
X81111441Y-117168438D01*
X81071385Y-117183614D01*
X80860563Y-117263487D01*
X80860560Y-117263488D01*
X80856293Y-117265105D01*
X80617773Y-117397591D01*
X80614141Y-117400363D01*
X80473220Y-117507911D01*
X80400876Y-117563122D01*
X80210146Y-117758229D01*
X80049579Y-117978826D01*
X79922538Y-118220290D01*
X79921020Y-118224589D01*
X79921019Y-118224591D01*
X79901199Y-118280716D01*
X79831685Y-118477565D01*
X79778922Y-118745261D01*
X79778695Y-118749814D01*
X79778695Y-118749817D01*
X79769387Y-118936800D01*
X79765356Y-119017769D01*
X79254500Y-119017769D01*
X79254500Y-68042186D01*
X80141018Y-68042186D01*
X80166579Y-68310100D01*
X80167664Y-68314534D01*
X80167665Y-68314540D01*
X80216462Y-68513958D01*
X80230547Y-68571518D01*
X80331583Y-68820963D01*
X80467569Y-69053210D01*
X80523516Y-69123168D01*
X80588559Y-69204500D01*
X80635658Y-69263395D01*
X80832327Y-69447113D01*
X81053457Y-69600516D01*
X81294416Y-69720391D01*
X81298750Y-69721812D01*
X81298753Y-69721813D01*
X81545823Y-69802807D01*
X81545829Y-69802808D01*
X81550156Y-69804227D01*
X81554647Y-69805007D01*
X81554648Y-69805007D01*
X81811538Y-69849611D01*
X81811546Y-69849612D01*
X81815319Y-69850267D01*
X81819156Y-69850458D01*
X81898777Y-69854422D01*
X81898785Y-69854422D01*
X81900348Y-69854500D01*
X82068374Y-69854500D01*
X82070642Y-69854335D01*
X82070654Y-69854335D01*
X82201457Y-69844844D01*
X82268425Y-69839985D01*
X82272880Y-69839001D01*
X82272883Y-69839001D01*
X82526770Y-69782947D01*
X82526772Y-69782946D01*
X82531226Y-69781963D01*
X82782900Y-69686613D01*
X83018172Y-69555931D01*
X83118015Y-69479733D01*
X83228491Y-69395421D01*
X83228495Y-69395417D01*
X83232116Y-69392654D01*
X83420249Y-69200203D01*
X83476321Y-69123168D01*
X83575942Y-68986304D01*
X83575947Y-68986297D01*
X83578630Y-68982610D01*
X83703941Y-68744433D01*
X83778868Y-68532259D01*
X83792034Y-68494975D01*
X83792034Y-68494974D01*
X83793557Y-68490662D01*
X83827269Y-68319621D01*
X83844720Y-68231083D01*
X83844721Y-68231077D01*
X83845601Y-68226611D01*
X83845828Y-68222055D01*
X83858755Y-67962383D01*
X83858755Y-67962377D01*
X83858982Y-67957814D01*
X83833421Y-67689900D01*
X83825945Y-67659345D01*
X83770539Y-67432920D01*
X83769453Y-67428482D01*
X83668417Y-67179037D01*
X83532431Y-66946790D01*
X83364342Y-66736605D01*
X83167673Y-66552887D01*
X82946543Y-66399484D01*
X82705584Y-66279609D01*
X82701250Y-66278188D01*
X82701247Y-66278187D01*
X82454177Y-66197193D01*
X82454171Y-66197192D01*
X82449844Y-66195773D01*
X82445352Y-66194993D01*
X82188462Y-66150389D01*
X82188454Y-66150388D01*
X82184681Y-66149733D01*
X82174718Y-66149237D01*
X82101223Y-66145578D01*
X82101215Y-66145578D01*
X82099652Y-66145500D01*
X81931626Y-66145500D01*
X81929358Y-66145665D01*
X81929346Y-66145665D01*
X81798543Y-66155156D01*
X81731575Y-66160015D01*
X81727120Y-66160999D01*
X81727117Y-66160999D01*
X81473230Y-66217053D01*
X81473228Y-66217054D01*
X81468774Y-66218037D01*
X81217100Y-66313387D01*
X81213114Y-66315601D01*
X81213112Y-66315602D01*
X81005137Y-66431122D01*
X80981828Y-66444069D01*
X80978196Y-66446841D01*
X80771509Y-66604579D01*
X80771505Y-66604583D01*
X80767884Y-66607346D01*
X80579751Y-66799797D01*
X80577066Y-66803486D01*
X80424058Y-67013696D01*
X80424053Y-67013703D01*
X80421370Y-67017390D01*
X80296059Y-67255567D01*
X80206443Y-67509338D01*
X80201414Y-67534854D01*
X80162426Y-67732665D01*
X80154399Y-67773389D01*
X80154172Y-67777942D01*
X80154172Y-67777945D01*
X80143197Y-67998420D01*
X80141018Y-68042186D01*
X79254500Y-68042186D01*
X79254500Y-68037476D01*
X79256921Y-68012894D01*
X79257065Y-68012170D01*
X79259486Y-68000000D01*
X79257065Y-67987828D01*
X79257065Y-67975421D01*
X79257262Y-67975421D01*
X79256494Y-67964491D01*
X79256613Y-67962383D01*
X79271366Y-67699663D01*
X79272948Y-67685626D01*
X79277414Y-67659345D01*
X79303633Y-67505025D01*
X79322150Y-67396045D01*
X79325294Y-67382270D01*
X79362961Y-67251523D01*
X79406612Y-67100008D01*
X79411273Y-67086689D01*
X79523684Y-66815305D01*
X79529813Y-66802578D01*
X79531350Y-66799797D01*
X79671899Y-66545494D01*
X79679406Y-66533546D01*
X79849394Y-66293971D01*
X79858192Y-66282938D01*
X80053924Y-66063913D01*
X80063914Y-66053923D01*
X80282938Y-65858192D01*
X80293973Y-65849392D01*
X80336347Y-65819326D01*
X80533546Y-65679406D01*
X80545494Y-65671899D01*
X80802582Y-65529811D01*
X80815305Y-65523684D01*
X81086689Y-65411273D01*
X81100008Y-65406612D01*
X81294087Y-65350699D01*
X81382270Y-65325294D01*
X81396045Y-65322150D01*
X81540836Y-65297549D01*
X81685631Y-65272947D01*
X81699663Y-65271366D01*
X81964494Y-65256494D01*
X81975421Y-65257262D01*
X81975421Y-65257065D01*
X81987828Y-65257065D01*
X82000000Y-65259486D01*
X82012897Y-65256921D01*
X82037476Y-65254500D01*
X117962524Y-65254500D01*
X117987103Y-65256921D01*
G37*
%TD.AperFunction*%
%TD*%
M02*
