%TF.GenerationSoftware,KiCad,Pcbnew,6.0.11+dfsg-1~bpo11+1*%
%TF.CreationDate,2024-02-01T17:53:29-05:00*%
%TF.ProjectId,POE,504f452e-6b69-4636-9164-5f7063625858,1.0.0*%
%TF.SameCoordinates,Original*%
%TF.FileFunction,Legend,Top*%
%TF.FilePolarity,Positive*%
%FSLAX46Y46*%
G04 Gerber Fmt 4.6, Leading zero omitted, Abs format (unit mm)*
G04 Created by KiCad (PCBNEW 6.0.11+dfsg-1~bpo11+1) date 2024-02-01 17:53:29*
%MOMM*%
%LPD*%
G01*
G04 APERTURE LIST*
%ADD10C,0.150000*%
%ADD11C,0.250000*%
%ADD12C,0.127000*%
%ADD13C,0.203200*%
%ADD14C,0.120000*%
%ADD15C,0.100000*%
%ADD16C,0.200000*%
G04 APERTURE END LIST*
D10*
X95071428Y-132147380D02*
X94738095Y-131671190D01*
X94500000Y-132147380D02*
X94500000Y-131147380D01*
X94880952Y-131147380D01*
X94976190Y-131195000D01*
X95023809Y-131242619D01*
X95071428Y-131337857D01*
X95071428Y-131480714D01*
X95023809Y-131575952D01*
X94976190Y-131623571D01*
X94880952Y-131671190D01*
X94500000Y-131671190D01*
X95928571Y-132147380D02*
X95928571Y-131623571D01*
X95880952Y-131528333D01*
X95785714Y-131480714D01*
X95595238Y-131480714D01*
X95500000Y-131528333D01*
X95928571Y-132099761D02*
X95833333Y-132147380D01*
X95595238Y-132147380D01*
X95500000Y-132099761D01*
X95452380Y-132004523D01*
X95452380Y-131909285D01*
X95500000Y-131814047D01*
X95595238Y-131766428D01*
X95833333Y-131766428D01*
X95928571Y-131718809D01*
X96404761Y-131480714D02*
X96404761Y-132147380D01*
X96404761Y-131575952D02*
X96452380Y-131528333D01*
X96547619Y-131480714D01*
X96690476Y-131480714D01*
X96785714Y-131528333D01*
X96833333Y-131623571D01*
X96833333Y-132147380D01*
X97738095Y-132147380D02*
X97738095Y-131147380D01*
X97738095Y-132099761D02*
X97642857Y-132147380D01*
X97452380Y-132147380D01*
X97357142Y-132099761D01*
X97309523Y-132052142D01*
X97261904Y-131956904D01*
X97261904Y-131671190D01*
X97309523Y-131575952D01*
X97357142Y-131528333D01*
X97452380Y-131480714D01*
X97642857Y-131480714D01*
X97738095Y-131528333D01*
X98357142Y-132147380D02*
X98261904Y-132099761D01*
X98214285Y-132052142D01*
X98166666Y-131956904D01*
X98166666Y-131671190D01*
X98214285Y-131575952D01*
X98261904Y-131528333D01*
X98357142Y-131480714D01*
X98500000Y-131480714D01*
X98595238Y-131528333D01*
X98642857Y-131575952D01*
X98690476Y-131671190D01*
X98690476Y-131956904D01*
X98642857Y-132052142D01*
X98595238Y-132099761D01*
X98500000Y-132147380D01*
X98357142Y-132147380D01*
X99119047Y-132147380D02*
X99119047Y-131480714D01*
X99119047Y-131575952D02*
X99166666Y-131528333D01*
X99261904Y-131480714D01*
X99404761Y-131480714D01*
X99500000Y-131528333D01*
X99547619Y-131623571D01*
X99547619Y-132147380D01*
X99547619Y-131623571D02*
X99595238Y-131528333D01*
X99690476Y-131480714D01*
X99833333Y-131480714D01*
X99928571Y-131528333D01*
X99976190Y-131623571D01*
X99976190Y-132147380D01*
X101785714Y-132147380D02*
X101452380Y-131671190D01*
X101214285Y-132147380D02*
X101214285Y-131147380D01*
X101595238Y-131147380D01*
X101690476Y-131195000D01*
X101738095Y-131242619D01*
X101785714Y-131337857D01*
X101785714Y-131480714D01*
X101738095Y-131575952D01*
X101690476Y-131623571D01*
X101595238Y-131671190D01*
X101214285Y-131671190D01*
X102642857Y-132147380D02*
X102642857Y-131623571D01*
X102595238Y-131528333D01*
X102500000Y-131480714D01*
X102309523Y-131480714D01*
X102214285Y-131528333D01*
X102642857Y-132099761D02*
X102547619Y-132147380D01*
X102309523Y-132147380D01*
X102214285Y-132099761D01*
X102166666Y-132004523D01*
X102166666Y-131909285D01*
X102214285Y-131814047D01*
X102309523Y-131766428D01*
X102547619Y-131766428D01*
X102642857Y-131718809D01*
X103119047Y-132147380D02*
X103119047Y-131147380D01*
X103119047Y-131528333D02*
X103214285Y-131480714D01*
X103404761Y-131480714D01*
X103500000Y-131528333D01*
X103547619Y-131575952D01*
X103595238Y-131671190D01*
X103595238Y-131956904D01*
X103547619Y-132052142D01*
X103500000Y-132099761D01*
X103404761Y-132147380D01*
X103214285Y-132147380D01*
X103119047Y-132099761D01*
X104023809Y-132147380D02*
X104023809Y-131147380D01*
X104023809Y-131528333D02*
X104119047Y-131480714D01*
X104309523Y-131480714D01*
X104404761Y-131528333D01*
X104452380Y-131575952D01*
X104500000Y-131671190D01*
X104500000Y-131956904D01*
X104452380Y-132052142D01*
X104404761Y-132099761D01*
X104309523Y-132147380D01*
X104119047Y-132147380D01*
X104023809Y-132099761D01*
X104928571Y-132147380D02*
X104928571Y-131480714D01*
X104928571Y-131147380D02*
X104880952Y-131195000D01*
X104928571Y-131242619D01*
X104976190Y-131195000D01*
X104928571Y-131147380D01*
X104928571Y-131242619D01*
X105261904Y-131480714D02*
X105642857Y-131480714D01*
X105404761Y-131147380D02*
X105404761Y-132004523D01*
X105452380Y-132099761D01*
X105547619Y-132147380D01*
X105642857Y-132147380D01*
X92190476Y-133757380D02*
X92190476Y-132757380D01*
X92666666Y-133090714D02*
X92666666Y-133757380D01*
X92666666Y-133185952D02*
X92714285Y-133138333D01*
X92809523Y-133090714D01*
X92952380Y-133090714D01*
X93047619Y-133138333D01*
X93095238Y-133233571D01*
X93095238Y-133757380D01*
X93571428Y-133376428D02*
X94333333Y-133376428D01*
X94714285Y-132757380D02*
X94952380Y-133757380D01*
X95142857Y-133043095D01*
X95333333Y-133757380D01*
X95571428Y-132757380D01*
X96380952Y-133757380D02*
X96380952Y-133233571D01*
X96333333Y-133138333D01*
X96238095Y-133090714D01*
X96047619Y-133090714D01*
X95952380Y-133138333D01*
X96380952Y-133709761D02*
X96285714Y-133757380D01*
X96047619Y-133757380D01*
X95952380Y-133709761D01*
X95904761Y-133614523D01*
X95904761Y-133519285D01*
X95952380Y-133424047D01*
X96047619Y-133376428D01*
X96285714Y-133376428D01*
X96380952Y-133328809D01*
X97000000Y-133757380D02*
X96904761Y-133709761D01*
X96857142Y-133614523D01*
X96857142Y-132757380D01*
X97523809Y-133757380D02*
X97428571Y-133709761D01*
X97380952Y-133614523D01*
X97380952Y-132757380D01*
X98666666Y-133757380D02*
X98666666Y-132757380D01*
X99047619Y-132757380D01*
X99142857Y-132805000D01*
X99190476Y-132852619D01*
X99238095Y-132947857D01*
X99238095Y-133090714D01*
X99190476Y-133185952D01*
X99142857Y-133233571D01*
X99047619Y-133281190D01*
X98666666Y-133281190D01*
X99857142Y-132757380D02*
X100047619Y-132757380D01*
X100142857Y-132805000D01*
X100238095Y-132900238D01*
X100285714Y-133090714D01*
X100285714Y-133424047D01*
X100238095Y-133614523D01*
X100142857Y-133709761D01*
X100047619Y-133757380D01*
X99857142Y-133757380D01*
X99761904Y-133709761D01*
X99666666Y-133614523D01*
X99619047Y-133424047D01*
X99619047Y-133090714D01*
X99666666Y-132900238D01*
X99761904Y-132805000D01*
X99857142Y-132757380D01*
X100714285Y-133233571D02*
X101047619Y-133233571D01*
X101190476Y-133757380D02*
X100714285Y-133757380D01*
X100714285Y-132757380D01*
X101190476Y-132757380D01*
X102666666Y-134138333D02*
X102619047Y-134090714D01*
X102523809Y-133947857D01*
X102476190Y-133852619D01*
X102428571Y-133709761D01*
X102380952Y-133471666D01*
X102380952Y-133281190D01*
X102428571Y-133043095D01*
X102476190Y-132900238D01*
X102523809Y-132805000D01*
X102619047Y-132662142D01*
X102666666Y-132614523D01*
X102952380Y-133090714D02*
X103190476Y-133757380D01*
X103428571Y-133090714D01*
X104333333Y-133757380D02*
X103761904Y-133757380D01*
X104047619Y-133757380D02*
X104047619Y-132757380D01*
X103952380Y-132900238D01*
X103857142Y-132995476D01*
X103761904Y-133043095D01*
X104761904Y-133662142D02*
X104809523Y-133709761D01*
X104761904Y-133757380D01*
X104714285Y-133709761D01*
X104761904Y-133662142D01*
X104761904Y-133757380D01*
X105428571Y-132757380D02*
X105523809Y-132757380D01*
X105619047Y-132805000D01*
X105666666Y-132852619D01*
X105714285Y-132947857D01*
X105761904Y-133138333D01*
X105761904Y-133376428D01*
X105714285Y-133566904D01*
X105666666Y-133662142D01*
X105619047Y-133709761D01*
X105523809Y-133757380D01*
X105428571Y-133757380D01*
X105333333Y-133709761D01*
X105285714Y-133662142D01*
X105238095Y-133566904D01*
X105190476Y-133376428D01*
X105190476Y-133138333D01*
X105238095Y-132947857D01*
X105285714Y-132852619D01*
X105333333Y-132805000D01*
X105428571Y-132757380D01*
X106190476Y-133662142D02*
X106238095Y-133709761D01*
X106190476Y-133757380D01*
X106142857Y-133709761D01*
X106190476Y-133662142D01*
X106190476Y-133757380D01*
X106857142Y-132757380D02*
X106952380Y-132757380D01*
X107047619Y-132805000D01*
X107095238Y-132852619D01*
X107142857Y-132947857D01*
X107190476Y-133138333D01*
X107190476Y-133376428D01*
X107142857Y-133566904D01*
X107095238Y-133662142D01*
X107047619Y-133709761D01*
X106952380Y-133757380D01*
X106857142Y-133757380D01*
X106761904Y-133709761D01*
X106714285Y-133662142D01*
X106666666Y-133566904D01*
X106619047Y-133376428D01*
X106619047Y-133138333D01*
X106666666Y-132947857D01*
X106714285Y-132852619D01*
X106761904Y-132805000D01*
X106857142Y-132757380D01*
X107523809Y-134138333D02*
X107571428Y-134090714D01*
X107666666Y-133947857D01*
X107714285Y-133852619D01*
X107761904Y-133709761D01*
X107809523Y-133471666D01*
X107809523Y-133281190D01*
X107761904Y-133043095D01*
X107714285Y-132900238D01*
X107666666Y-132805000D01*
X107571428Y-132662142D01*
X107523809Y-132614523D01*
X120404761Y-116469523D02*
X120452380Y-116326666D01*
X120452380Y-116088571D01*
X120404761Y-115993333D01*
X120357142Y-115945714D01*
X120261904Y-115898095D01*
X120166666Y-115898095D01*
X120071428Y-115945714D01*
X120023809Y-115993333D01*
X119976190Y-116088571D01*
X119928571Y-116279047D01*
X119880952Y-116374285D01*
X119833333Y-116421904D01*
X119738095Y-116469523D01*
X119642857Y-116469523D01*
X119547619Y-116421904D01*
X119500000Y-116374285D01*
X119452380Y-116279047D01*
X119452380Y-116040952D01*
X119500000Y-115898095D01*
X120357142Y-115469523D02*
X120404761Y-115421904D01*
X120452380Y-115469523D01*
X120404761Y-115517142D01*
X120357142Y-115469523D01*
X120452380Y-115469523D01*
X120166666Y-114279047D02*
X120166666Y-113802857D01*
X120452380Y-114374285D02*
X119452380Y-114040952D01*
X120452380Y-113707619D01*
X120357142Y-113374285D02*
X120404761Y-113326666D01*
X120452380Y-113374285D01*
X120404761Y-113421904D01*
X120357142Y-113374285D01*
X120452380Y-113374285D01*
X120452380Y-112136190D02*
X119452380Y-112136190D01*
X120166666Y-111802857D01*
X119452380Y-111469523D01*
X120452380Y-111469523D01*
X120452380Y-110993333D02*
X119785714Y-110993333D01*
X119452380Y-110993333D02*
X119500000Y-111040952D01*
X119547619Y-110993333D01*
X119500000Y-110945714D01*
X119452380Y-110993333D01*
X119547619Y-110993333D01*
X120452380Y-110374285D02*
X120404761Y-110469523D01*
X120309523Y-110517142D01*
X119452380Y-110517142D01*
X120452380Y-109850476D02*
X120404761Y-109945714D01*
X120309523Y-109993333D01*
X119452380Y-109993333D01*
X120404761Y-109088571D02*
X120452380Y-109183809D01*
X120452380Y-109374285D01*
X120404761Y-109469523D01*
X120309523Y-109517142D01*
X119928571Y-109517142D01*
X119833333Y-109469523D01*
X119785714Y-109374285D01*
X119785714Y-109183809D01*
X119833333Y-109088571D01*
X119928571Y-109040952D01*
X120023809Y-109040952D01*
X120119047Y-109517142D01*
X120452380Y-108612380D02*
X119785714Y-108612380D01*
X119976190Y-108612380D02*
X119880952Y-108564761D01*
X119833333Y-108517142D01*
X119785714Y-108421904D01*
X119785714Y-108326666D01*
X119547619Y-107279047D02*
X119500000Y-107231428D01*
X119452380Y-107136190D01*
X119452380Y-106898095D01*
X119500000Y-106802857D01*
X119547619Y-106755238D01*
X119642857Y-106707619D01*
X119738095Y-106707619D01*
X119880952Y-106755238D01*
X120452380Y-107326666D01*
X120452380Y-106707619D01*
X119452380Y-106088571D02*
X119452380Y-105993333D01*
X119500000Y-105898095D01*
X119547619Y-105850476D01*
X119642857Y-105802857D01*
X119833333Y-105755238D01*
X120071428Y-105755238D01*
X120261904Y-105802857D01*
X120357142Y-105850476D01*
X120404761Y-105898095D01*
X120452380Y-105993333D01*
X120452380Y-106088571D01*
X120404761Y-106183809D01*
X120357142Y-106231428D01*
X120261904Y-106279047D01*
X120071428Y-106326666D01*
X119833333Y-106326666D01*
X119642857Y-106279047D01*
X119547619Y-106231428D01*
X119500000Y-106183809D01*
X119452380Y-106088571D01*
X119547619Y-105374285D02*
X119500000Y-105326666D01*
X119452380Y-105231428D01*
X119452380Y-104993333D01*
X119500000Y-104898095D01*
X119547619Y-104850476D01*
X119642857Y-104802857D01*
X119738095Y-104802857D01*
X119880952Y-104850476D01*
X120452380Y-105421904D01*
X120452380Y-104802857D01*
X119785714Y-103945714D02*
X120452380Y-103945714D01*
X119404761Y-104183809D02*
X120119047Y-104421904D01*
X120119047Y-103802857D01*
X86837434Y-110853639D02*
X86504101Y-110853639D01*
X86504101Y-111377448D02*
X86504101Y-110377448D01*
X86980291Y-110377448D01*
X87361244Y-111377448D02*
X87361244Y-110710782D01*
X87361244Y-110901258D02*
X87408863Y-110806020D01*
X87456482Y-110758401D01*
X87551720Y-110710782D01*
X87646958Y-110710782D01*
X88123149Y-111377448D02*
X88027910Y-111329829D01*
X87980291Y-111282210D01*
X87932672Y-111186972D01*
X87932672Y-110901258D01*
X87980291Y-110806020D01*
X88027910Y-110758401D01*
X88123149Y-110710782D01*
X88266006Y-110710782D01*
X88361244Y-110758401D01*
X88408863Y-110806020D01*
X88456482Y-110901258D01*
X88456482Y-111186972D01*
X88408863Y-111282210D01*
X88361244Y-111329829D01*
X88266006Y-111377448D01*
X88123149Y-111377448D01*
X88885053Y-111377448D02*
X88885053Y-110710782D01*
X88885053Y-110806020D02*
X88932672Y-110758401D01*
X89027910Y-110710782D01*
X89170768Y-110710782D01*
X89266006Y-110758401D01*
X89313625Y-110853639D01*
X89313625Y-111377448D01*
X89313625Y-110853639D02*
X89361244Y-110758401D01*
X89456482Y-110710782D01*
X89599339Y-110710782D01*
X89694577Y-110758401D01*
X89742196Y-110853639D01*
X89742196Y-111377448D01*
X84170768Y-112987448D02*
X84170768Y-111987448D01*
X84551720Y-111987448D01*
X84646958Y-112035068D01*
X84694577Y-112082687D01*
X84742196Y-112177925D01*
X84742196Y-112320782D01*
X84694577Y-112416020D01*
X84646958Y-112463639D01*
X84551720Y-112511258D01*
X84170768Y-112511258D01*
X85313625Y-112987448D02*
X85218387Y-112939829D01*
X85170768Y-112892210D01*
X85123149Y-112796972D01*
X85123149Y-112511258D01*
X85170768Y-112416020D01*
X85218387Y-112368401D01*
X85313625Y-112320782D01*
X85456482Y-112320782D01*
X85551720Y-112368401D01*
X85599339Y-112416020D01*
X85646958Y-112511258D01*
X85646958Y-112796972D01*
X85599339Y-112892210D01*
X85551720Y-112939829D01*
X85456482Y-112987448D01*
X85313625Y-112987448D01*
X86075529Y-112463639D02*
X86408863Y-112463639D01*
X86551720Y-112987448D02*
X86075529Y-112987448D01*
X86075529Y-111987448D01*
X86551720Y-111987448D01*
X87694577Y-112939829D02*
X87837434Y-112987448D01*
X88075529Y-112987448D01*
X88170768Y-112939829D01*
X88218387Y-112892210D01*
X88266006Y-112796972D01*
X88266006Y-112701734D01*
X88218387Y-112606496D01*
X88170768Y-112558877D01*
X88075529Y-112511258D01*
X87885053Y-112463639D01*
X87789815Y-112416020D01*
X87742196Y-112368401D01*
X87694577Y-112273163D01*
X87694577Y-112177925D01*
X87742196Y-112082687D01*
X87789815Y-112035068D01*
X87885053Y-111987448D01*
X88123149Y-111987448D01*
X88266006Y-112035068D01*
X88599339Y-112320782D02*
X88789815Y-112987448D01*
X88980291Y-112511258D01*
X89170768Y-112987448D01*
X89361244Y-112320782D01*
X89742196Y-112987448D02*
X89742196Y-112320782D01*
X89742196Y-111987448D02*
X89694577Y-112035068D01*
X89742196Y-112082687D01*
X89789815Y-112035068D01*
X89742196Y-111987448D01*
X89742196Y-112082687D01*
X90075529Y-112320782D02*
X90456482Y-112320782D01*
X90218387Y-111987448D02*
X90218387Y-112844591D01*
X90266006Y-112939829D01*
X90361244Y-112987448D01*
X90456482Y-112987448D01*
X91218387Y-112939829D02*
X91123149Y-112987448D01*
X90932672Y-112987448D01*
X90837434Y-112939829D01*
X90789815Y-112892210D01*
X90742196Y-112796972D01*
X90742196Y-112511258D01*
X90789815Y-112416020D01*
X90837434Y-112368401D01*
X90932672Y-112320782D01*
X91123149Y-112320782D01*
X91218387Y-112368401D01*
X91646958Y-112987448D02*
X91646958Y-111987448D01*
X92075529Y-112987448D02*
X92075529Y-112463639D01*
X92027910Y-112368401D01*
X91932672Y-112320782D01*
X91789815Y-112320782D01*
X91694577Y-112368401D01*
X91646958Y-112416020D01*
D11*
X113178626Y-98107142D02*
X114321483Y-98107142D01*
X113750055Y-98678571D02*
X113750055Y-97535714D01*
X116178626Y-98107142D02*
X117321483Y-98107142D01*
D10*
%TO.C,J1*%
X96426283Y-115336227D02*
X97140569Y-115336227D01*
X97283426Y-115383846D01*
X97378664Y-115479084D01*
X97426283Y-115621941D01*
X97426283Y-115717179D01*
X97426283Y-114336227D02*
X97426283Y-114907655D01*
X97426283Y-114621941D02*
X96426283Y-114621941D01*
X96569141Y-114717179D01*
X96664379Y-114812417D01*
X96711998Y-114907655D01*
%TO.C,D2*%
X83982380Y-86738095D02*
X82982380Y-86738095D01*
X82982380Y-86500000D01*
X83030000Y-86357142D01*
X83125238Y-86261904D01*
X83220476Y-86214285D01*
X83410952Y-86166666D01*
X83553809Y-86166666D01*
X83744285Y-86214285D01*
X83839523Y-86261904D01*
X83934761Y-86357142D01*
X83982380Y-86500000D01*
X83982380Y-86738095D01*
X83077619Y-85785714D02*
X83030000Y-85738095D01*
X82982380Y-85642857D01*
X82982380Y-85404761D01*
X83030000Y-85309523D01*
X83077619Y-85261904D01*
X83172857Y-85214285D01*
X83268095Y-85214285D01*
X83410952Y-85261904D01*
X83982380Y-85833333D01*
X83982380Y-85214285D01*
%TO.C,J2*%
X118242434Y-90718333D02*
X118956720Y-90718333D01*
X119099577Y-90765952D01*
X119194815Y-90861190D01*
X119242434Y-91004047D01*
X119242434Y-91099285D01*
X118337673Y-90289761D02*
X118290054Y-90242142D01*
X118242434Y-90146904D01*
X118242434Y-89908809D01*
X118290054Y-89813571D01*
X118337673Y-89765952D01*
X118432911Y-89718333D01*
X118528149Y-89718333D01*
X118671006Y-89765952D01*
X119242434Y-90337380D01*
X119242434Y-89718333D01*
%TO.C,C1*%
X104857142Y-83666666D02*
X104904761Y-83714285D01*
X104952380Y-83857142D01*
X104952380Y-83952380D01*
X104904761Y-84095238D01*
X104809523Y-84190476D01*
X104714285Y-84238095D01*
X104523809Y-84285714D01*
X104380952Y-84285714D01*
X104190476Y-84238095D01*
X104095238Y-84190476D01*
X104000000Y-84095238D01*
X103952380Y-83952380D01*
X103952380Y-83857142D01*
X104000000Y-83714285D01*
X104047619Y-83666666D01*
X104952380Y-82714285D02*
X104952380Y-83285714D01*
X104952380Y-83000000D02*
X103952380Y-83000000D01*
X104095238Y-83095238D01*
X104190476Y-83190476D01*
X104238095Y-83285714D01*
%TO.C,R4*%
X119452380Y-124166666D02*
X118976190Y-124500000D01*
X119452380Y-124738095D02*
X118452380Y-124738095D01*
X118452380Y-124357142D01*
X118500000Y-124261904D01*
X118547619Y-124214285D01*
X118642857Y-124166666D01*
X118785714Y-124166666D01*
X118880952Y-124214285D01*
X118928571Y-124261904D01*
X118976190Y-124357142D01*
X118976190Y-124738095D01*
X118785714Y-123309523D02*
X119452380Y-123309523D01*
X118404761Y-123547619D02*
X119119047Y-123785714D01*
X119119047Y-123166666D01*
%TO.C,D3*%
X86752380Y-70438095D02*
X85752380Y-70438095D01*
X85752380Y-70200000D01*
X85800000Y-70057142D01*
X85895238Y-69961904D01*
X85990476Y-69914285D01*
X86180952Y-69866666D01*
X86323809Y-69866666D01*
X86514285Y-69914285D01*
X86609523Y-69961904D01*
X86704761Y-70057142D01*
X86752380Y-70200000D01*
X86752380Y-70438095D01*
X85752380Y-69533333D02*
X85752380Y-68914285D01*
X86133333Y-69247619D01*
X86133333Y-69104761D01*
X86180952Y-69009523D01*
X86228571Y-68961904D01*
X86323809Y-68914285D01*
X86561904Y-68914285D01*
X86657142Y-68961904D01*
X86704761Y-69009523D01*
X86752380Y-69104761D01*
X86752380Y-69390476D01*
X86704761Y-69485714D01*
X86657142Y-69533333D01*
D12*
%TO.C,MOD-1*%
X114574523Y-76114523D02*
X113304523Y-76114523D01*
X114211666Y-75691190D01*
X113304523Y-75267857D01*
X114574523Y-75267857D01*
X113304523Y-74421190D02*
X113304523Y-74179285D01*
X113365000Y-74058333D01*
X113485952Y-73937380D01*
X113727857Y-73876904D01*
X114151190Y-73876904D01*
X114393095Y-73937380D01*
X114514047Y-74058333D01*
X114574523Y-74179285D01*
X114574523Y-74421190D01*
X114514047Y-74542142D01*
X114393095Y-74663095D01*
X114151190Y-74723571D01*
X113727857Y-74723571D01*
X113485952Y-74663095D01*
X113365000Y-74542142D01*
X113304523Y-74421190D01*
X114574523Y-73332619D02*
X113304523Y-73332619D01*
X113304523Y-73030238D01*
X113365000Y-72848809D01*
X113485952Y-72727857D01*
X113606904Y-72667380D01*
X113848809Y-72606904D01*
X114030238Y-72606904D01*
X114272142Y-72667380D01*
X114393095Y-72727857D01*
X114514047Y-72848809D01*
X114574523Y-73030238D01*
X114574523Y-73332619D01*
X114090714Y-72062619D02*
X114090714Y-71095000D01*
X114574523Y-69825000D02*
X114574523Y-70550714D01*
X114574523Y-70187857D02*
X113304523Y-70187857D01*
X113485952Y-70308809D01*
X113606904Y-70429761D01*
X113667380Y-70550714D01*
D10*
%TO.C,C3*%
X110422741Y-89166666D02*
X110470360Y-89214285D01*
X110517979Y-89357142D01*
X110517979Y-89452380D01*
X110470360Y-89595238D01*
X110375122Y-89690476D01*
X110279884Y-89738095D01*
X110089408Y-89785714D01*
X109946551Y-89785714D01*
X109756075Y-89738095D01*
X109660837Y-89690476D01*
X109565599Y-89595238D01*
X109517979Y-89452380D01*
X109517979Y-89357142D01*
X109565599Y-89214285D01*
X109613218Y-89166666D01*
X109517979Y-88833333D02*
X109517979Y-88214285D01*
X109898932Y-88547619D01*
X109898932Y-88404761D01*
X109946551Y-88309523D01*
X109994170Y-88261904D01*
X110089408Y-88214285D01*
X110327503Y-88214285D01*
X110422741Y-88261904D01*
X110470360Y-88309523D01*
X110517979Y-88404761D01*
X110517979Y-88690476D01*
X110470360Y-88785714D01*
X110422741Y-88833333D01*
%TO.C,D1*%
X83982380Y-78738095D02*
X82982380Y-78738095D01*
X82982380Y-78500000D01*
X83030000Y-78357142D01*
X83125238Y-78261904D01*
X83220476Y-78214285D01*
X83410952Y-78166666D01*
X83553809Y-78166666D01*
X83744285Y-78214285D01*
X83839523Y-78261904D01*
X83934761Y-78357142D01*
X83982380Y-78500000D01*
X83982380Y-78738095D01*
X83982380Y-77214285D02*
X83982380Y-77785714D01*
X83982380Y-77500000D02*
X82982380Y-77500000D01*
X83125238Y-77595238D01*
X83220476Y-77690476D01*
X83268095Y-77785714D01*
%TO.C,R3*%
X119452380Y-73166666D02*
X118976190Y-73500000D01*
X119452380Y-73738095D02*
X118452380Y-73738095D01*
X118452380Y-73357142D01*
X118500000Y-73261904D01*
X118547619Y-73214285D01*
X118642857Y-73166666D01*
X118785714Y-73166666D01*
X118880952Y-73214285D01*
X118928571Y-73261904D01*
X118976190Y-73357142D01*
X118976190Y-73738095D01*
X118452380Y-72833333D02*
X118452380Y-72214285D01*
X118833333Y-72547619D01*
X118833333Y-72404761D01*
X118880952Y-72309523D01*
X118928571Y-72261904D01*
X119023809Y-72214285D01*
X119261904Y-72214285D01*
X119357142Y-72261904D01*
X119404761Y-72309523D01*
X119452380Y-72404761D01*
X119452380Y-72690476D01*
X119404761Y-72785714D01*
X119357142Y-72833333D01*
%TO.C,TR3*%
X113032380Y-124261904D02*
X113032380Y-123690476D01*
X114032380Y-123976190D02*
X113032380Y-123976190D01*
X114032380Y-122785714D02*
X113556190Y-123119047D01*
X114032380Y-123357142D02*
X113032380Y-123357142D01*
X113032380Y-122976190D01*
X113080000Y-122880952D01*
X113127619Y-122833333D01*
X113222857Y-122785714D01*
X113365714Y-122785714D01*
X113460952Y-122833333D01*
X113508571Y-122880952D01*
X113556190Y-122976190D01*
X113556190Y-123357142D01*
X113032380Y-122452380D02*
X113032380Y-121833333D01*
X113413333Y-122166666D01*
X113413333Y-122023809D01*
X113460952Y-121928571D01*
X113508571Y-121880952D01*
X113603809Y-121833333D01*
X113841904Y-121833333D01*
X113937142Y-121880952D01*
X113984761Y-121928571D01*
X114032380Y-122023809D01*
X114032380Y-122309523D01*
X113984761Y-122404761D01*
X113937142Y-122452380D01*
%TO.C,D4*%
X119452380Y-122738095D02*
X118452380Y-122738095D01*
X118452380Y-122500000D01*
X118500000Y-122357142D01*
X118595238Y-122261904D01*
X118690476Y-122214285D01*
X118880952Y-122166666D01*
X119023809Y-122166666D01*
X119214285Y-122214285D01*
X119309523Y-122261904D01*
X119404761Y-122357142D01*
X119452380Y-122500000D01*
X119452380Y-122738095D01*
X118785714Y-121309523D02*
X119452380Y-121309523D01*
X118404761Y-121547619D02*
X119119047Y-121785714D01*
X119119047Y-121166666D01*
%TO.C,R1*%
X119452380Y-79166666D02*
X118976190Y-79500000D01*
X119452380Y-79738095D02*
X118452380Y-79738095D01*
X118452380Y-79357142D01*
X118500000Y-79261904D01*
X118547619Y-79214285D01*
X118642857Y-79166666D01*
X118785714Y-79166666D01*
X118880952Y-79214285D01*
X118928571Y-79261904D01*
X118976190Y-79357142D01*
X118976190Y-79738095D01*
X119452380Y-78214285D02*
X119452380Y-78785714D01*
X119452380Y-78500000D02*
X118452380Y-78500000D01*
X118595238Y-78595238D01*
X118690476Y-78690476D01*
X118738095Y-78785714D01*
%TO.C,R2*%
X119452380Y-77166666D02*
X118976190Y-77500000D01*
X119452380Y-77738095D02*
X118452380Y-77738095D01*
X118452380Y-77357142D01*
X118500000Y-77261904D01*
X118547619Y-77214285D01*
X118642857Y-77166666D01*
X118785714Y-77166666D01*
X118880952Y-77214285D01*
X118928571Y-77261904D01*
X118976190Y-77357142D01*
X118976190Y-77738095D01*
X118547619Y-76785714D02*
X118500000Y-76738095D01*
X118452380Y-76642857D01*
X118452380Y-76404761D01*
X118500000Y-76309523D01*
X118547619Y-76261904D01*
X118642857Y-76214285D01*
X118738095Y-76214285D01*
X118880952Y-76261904D01*
X119452380Y-76833333D01*
X119452380Y-76214285D01*
%TO.C,L1*%
X110517979Y-86166666D02*
X110517979Y-86642857D01*
X109517979Y-86642857D01*
X110517979Y-85309523D02*
X110517979Y-85880952D01*
X110517979Y-85595238D02*
X109517979Y-85595238D01*
X109660837Y-85690476D01*
X109756075Y-85785714D01*
X109803694Y-85880952D01*
%TO.C,C2*%
X110422741Y-83166666D02*
X110470360Y-83214285D01*
X110517979Y-83357142D01*
X110517979Y-83452380D01*
X110470360Y-83595238D01*
X110375122Y-83690476D01*
X110279884Y-83738095D01*
X110089408Y-83785714D01*
X109946551Y-83785714D01*
X109756075Y-83738095D01*
X109660837Y-83690476D01*
X109565599Y-83595238D01*
X109517979Y-83452380D01*
X109517979Y-83357142D01*
X109565599Y-83214285D01*
X109613218Y-83166666D01*
X109613218Y-82785714D02*
X109565599Y-82738095D01*
X109517979Y-82642857D01*
X109517979Y-82404761D01*
X109565599Y-82309523D01*
X109613218Y-82261904D01*
X109708456Y-82214285D01*
X109803694Y-82214285D01*
X109946551Y-82261904D01*
X110517979Y-82833333D01*
X110517979Y-82214285D01*
%TO.C,REF\u002A\u002A*%
X120540000Y-132000000D02*
G75*
G03*
X120540000Y-132000000I-2540000J0D01*
G01*
D13*
%TO.C,J1*%
X80175000Y-114000000D02*
X80175000Y-117500000D01*
X95825000Y-120500000D02*
X95825000Y-129000000D01*
X95825000Y-114000000D02*
X95825000Y-117500000D01*
X95825000Y-114000000D02*
X80175000Y-114000000D01*
X95825000Y-129000000D02*
X80175000Y-129000000D01*
X80175000Y-120500000D02*
X80175000Y-129000000D01*
D14*
%TO.C,D2*%
X90030000Y-83800000D02*
X90030000Y-88200000D01*
X89230000Y-83800000D02*
X90030000Y-83800000D01*
X85830000Y-83800000D02*
X85030000Y-83800000D01*
X90030000Y-88200000D02*
X89230000Y-88200000D01*
X86730000Y-88200000D02*
X88330000Y-88200000D01*
X85530000Y-88200000D02*
X85530000Y-89600000D01*
X86730000Y-83800000D02*
X88330000Y-83800000D01*
X85030000Y-83800000D02*
X85030000Y-88200000D01*
X85030000Y-88200000D02*
X85530000Y-88200000D01*
%TO.C,J2*%
X116140054Y-87110000D02*
X116140054Y-87440000D01*
X114360054Y-87042929D02*
X114360054Y-87440000D01*
X114360054Y-90100000D02*
X114360054Y-96100000D01*
X115250054Y-87440000D02*
X115250054Y-90100000D01*
X116240054Y-90100000D02*
X116240054Y-96100000D01*
X114360054Y-96100000D02*
X113600054Y-96100000D01*
X116140054Y-96100000D02*
X116140054Y-90100000D01*
X116600054Y-90100000D02*
X116600054Y-96100000D01*
X116840054Y-90100000D02*
X116840054Y-96100000D01*
X112650054Y-87440000D02*
X112650054Y-90100000D01*
X117850054Y-90100000D02*
X117850054Y-87440000D01*
X113600054Y-87042929D02*
X113600054Y-87440000D01*
X116360054Y-90100000D02*
X116360054Y-96100000D01*
X117850054Y-87440000D02*
X112650054Y-87440000D01*
X116900054Y-90100000D02*
X116900054Y-96100000D01*
X117790054Y-84730000D02*
X117790054Y-86000000D01*
X116520054Y-84730000D02*
X117790054Y-84730000D01*
X116720054Y-90100000D02*
X116720054Y-96100000D01*
X112650054Y-90100000D02*
X117850054Y-90100000D01*
X116900054Y-87110000D02*
X116900054Y-87440000D01*
X116480054Y-90100000D02*
X116480054Y-96100000D01*
X116900054Y-96100000D02*
X116140054Y-96100000D01*
X113600054Y-96100000D02*
X113600054Y-90100000D01*
%TO.C,C1*%
X104437500Y-87847500D02*
X103650000Y-87847500D01*
X103410000Y-88345563D02*
X102345563Y-89410000D01*
X102345563Y-82590000D02*
X96590000Y-82590000D01*
X103410000Y-83654437D02*
X102345563Y-82590000D01*
X104043750Y-88241250D02*
X104043750Y-87453750D01*
X103410000Y-88345563D02*
X103410000Y-87060000D01*
X103410000Y-83654437D02*
X103410000Y-84940000D01*
X96590000Y-89410000D02*
X96590000Y-87060000D01*
X96590000Y-82590000D02*
X96590000Y-84940000D01*
X102345563Y-89410000D02*
X96590000Y-89410000D01*
%TO.C,G\u002A\u002A\u002A*%
G36*
X88589166Y-132815833D02*
G01*
X88577237Y-132834013D01*
X88536666Y-132836842D01*
X88493985Y-132827073D01*
X88512500Y-132812675D01*
X88575015Y-132807906D01*
X88589166Y-132815833D01*
G37*
G36*
X90000000Y-132900000D02*
G01*
X89980000Y-132920000D01*
X89960000Y-132900000D01*
X89980000Y-132880000D01*
X90000000Y-132900000D01*
G37*
G36*
X89158372Y-131389036D02*
G01*
X89160000Y-131400000D01*
X89146352Y-131438960D01*
X89142360Y-131440000D01*
X89108209Y-131411970D01*
X89100000Y-131400000D01*
X89103171Y-131363140D01*
X89117639Y-131360000D01*
X89158372Y-131389036D01*
G37*
G36*
X87298323Y-133874126D02*
G01*
X87650142Y-133874126D01*
X87656406Y-133870000D01*
X87719853Y-133850271D01*
X87825148Y-133840297D01*
X87846711Y-133840000D01*
X87943285Y-133835664D01*
X87977786Y-133813573D01*
X87968033Y-133760098D01*
X87964396Y-133750000D01*
X87901686Y-133674251D01*
X87815685Y-133652826D01*
X87757076Y-133653501D01*
X87767869Y-133664694D01*
X87774043Y-133666538D01*
X87815171Y-133685822D01*
X87806662Y-133719203D01*
X87742795Y-133784166D01*
X87732449Y-133793711D01*
X87669844Y-133852611D01*
X87650142Y-133874126D01*
X87298323Y-133874126D01*
X87313035Y-133802947D01*
X87337415Y-133700000D01*
X87640000Y-133700000D01*
X87660000Y-133720000D01*
X87680000Y-133700000D01*
X87660000Y-133680000D01*
X87640000Y-133700000D01*
X87337415Y-133700000D01*
X87357828Y-133613805D01*
X87365554Y-133584365D01*
X88924909Y-133584365D01*
X88934839Y-133639685D01*
X88946666Y-133653333D01*
X89005213Y-133678812D01*
X89038658Y-133637180D01*
X89040000Y-133620000D01*
X89007981Y-133566969D01*
X88980000Y-133560000D01*
X88924909Y-133584365D01*
X87365554Y-133584365D01*
X87394351Y-133474639D01*
X87720000Y-133474639D01*
X87752135Y-133509561D01*
X87825005Y-133541802D01*
X87903300Y-133560091D01*
X87951715Y-133553160D01*
X87954166Y-133549375D01*
X87957262Y-133491746D01*
X87948410Y-133387005D01*
X87941715Y-133337499D01*
X87916754Y-133222906D01*
X87880187Y-133170072D01*
X87837549Y-133160000D01*
X87773413Y-133178469D01*
X87770003Y-133237365D01*
X87827452Y-133341916D01*
X87842723Y-133363825D01*
X87886590Y-133438973D01*
X87890735Y-133478313D01*
X87885084Y-133480000D01*
X87828278Y-133450759D01*
X87819596Y-133439347D01*
X87773117Y-133418504D01*
X87727753Y-133447134D01*
X87720000Y-133474639D01*
X87394351Y-133474639D01*
X87407582Y-133424224D01*
X87457543Y-133253176D01*
X87502960Y-133119632D01*
X87539081Y-133042564D01*
X87540964Y-133040000D01*
X87573364Y-132982576D01*
X87947362Y-132982576D01*
X87971669Y-132981851D01*
X88140076Y-132946176D01*
X88354488Y-132919960D01*
X88600808Y-132902959D01*
X88864940Y-132894928D01*
X89132788Y-132895622D01*
X89390255Y-132904795D01*
X89623247Y-132922203D01*
X89817666Y-132947600D01*
X89959417Y-132980741D01*
X90030993Y-133017660D01*
X90035520Y-133063438D01*
X90032156Y-133171084D01*
X90022446Y-133323023D01*
X90007936Y-133501681D01*
X89990170Y-133689482D01*
X89970694Y-133868854D01*
X89951052Y-134022222D01*
X89933205Y-134130000D01*
X89927817Y-134211817D01*
X89963400Y-134239393D01*
X89975336Y-134240000D01*
X90031302Y-134270037D01*
X90040000Y-134300000D01*
X90074762Y-134339345D01*
X90162694Y-134358843D01*
X90279261Y-134357673D01*
X90399927Y-134335017D01*
X90457349Y-134313929D01*
X90541185Y-134254513D01*
X90581495Y-134195289D01*
X90588491Y-134100948D01*
X90574418Y-133948590D01*
X90543177Y-133756201D01*
X90498672Y-133541768D01*
X90444805Y-133323275D01*
X90385480Y-133118708D01*
X90324600Y-132946053D01*
X90296067Y-132880000D01*
X90199947Y-132685448D01*
X90118178Y-132552322D01*
X90036070Y-132467504D01*
X89938933Y-132417876D01*
X89812080Y-132390321D01*
X89737535Y-132381212D01*
X89601301Y-132361135D01*
X89499104Y-132335870D01*
X89455747Y-132313119D01*
X89417502Y-132316579D01*
X89344013Y-132366758D01*
X89251027Y-132448734D01*
X89154294Y-132547585D01*
X89069564Y-132648389D01*
X89015764Y-132730000D01*
X88960610Y-132805342D01*
X88881719Y-132835925D01*
X88803870Y-132840000D01*
X88685314Y-132824514D01*
X88604929Y-132785299D01*
X88600000Y-132780000D01*
X88530433Y-132728441D01*
X88468184Y-132728447D01*
X88440038Y-132779623D01*
X88440000Y-132782360D01*
X88419194Y-132822869D01*
X88396185Y-132817642D01*
X88332033Y-132814848D01*
X88253584Y-132843433D01*
X88176687Y-132875349D01*
X88133261Y-132858939D01*
X88118011Y-132838151D01*
X88088240Y-132802025D01*
X88080670Y-132839308D01*
X88080612Y-132843887D01*
X88047979Y-132909663D01*
X87990000Y-132955124D01*
X87947362Y-132982576D01*
X87573364Y-132982576D01*
X87579215Y-132972205D01*
X87632164Y-132856336D01*
X87679490Y-132740000D01*
X87754264Y-132564797D01*
X87828743Y-132450239D01*
X87921899Y-132379329D01*
X88052705Y-132335067D01*
X88154109Y-132314764D01*
X88291503Y-132286868D01*
X88363569Y-132260151D01*
X88384566Y-132227692D01*
X88379671Y-132205290D01*
X88352686Y-132116976D01*
X88350395Y-132107226D01*
X88666106Y-132107226D01*
X88673418Y-132150068D01*
X88725136Y-132223277D01*
X88746923Y-132247226D01*
X88877344Y-132339327D01*
X89015465Y-132351853D01*
X89160633Y-132284788D01*
X89196930Y-132256444D01*
X89237754Y-132218541D01*
X89460162Y-132218541D01*
X89484852Y-132211118D01*
X89486737Y-132209262D01*
X89514935Y-132140113D01*
X89511510Y-132114531D01*
X89490901Y-132105245D01*
X89469248Y-132156793D01*
X89460162Y-132218541D01*
X89237754Y-132218541D01*
X89288307Y-132171605D01*
X89311377Y-132126568D01*
X89264931Y-132119691D01*
X89147759Y-132149330D01*
X89123652Y-132156939D01*
X89012163Y-132198275D01*
X88974054Y-132228401D01*
X88993652Y-132247188D01*
X89023295Y-132267338D01*
X88978399Y-132276328D01*
X88956420Y-132277188D01*
X88859099Y-132250640D01*
X88807278Y-132180000D01*
X88750310Y-132094685D01*
X88691391Y-132087834D01*
X88666106Y-132107226D01*
X88350395Y-132107226D01*
X88331920Y-132028610D01*
X88330868Y-132024505D01*
X88933749Y-132024505D01*
X88940000Y-132040000D01*
X88975944Y-132078159D01*
X88982360Y-132080000D01*
X88999541Y-132049052D01*
X89000000Y-132040000D01*
X88984010Y-132020000D01*
X89520000Y-132020000D01*
X89540000Y-132040000D01*
X89560000Y-132020000D01*
X89540000Y-132000000D01*
X89520000Y-132020000D01*
X88984010Y-132020000D01*
X88969249Y-132001537D01*
X88957639Y-132000000D01*
X88933749Y-132024505D01*
X88330868Y-132024505D01*
X88316348Y-131967875D01*
X88287541Y-131936946D01*
X88225283Y-131929381D01*
X88109353Y-131938740D01*
X88064722Y-131943495D01*
X87932992Y-131957851D01*
X87836518Y-131968764D01*
X87800000Y-131973334D01*
X87750940Y-131968303D01*
X87658630Y-131951255D01*
X87650000Y-131949450D01*
X87552757Y-131912411D01*
X87542775Y-131893333D01*
X88013333Y-131893333D01*
X88018824Y-131917113D01*
X88040000Y-131920000D01*
X88072924Y-131905364D01*
X88066666Y-131893333D01*
X88019196Y-131888546D01*
X88013333Y-131893333D01*
X87542775Y-131893333D01*
X87530794Y-131870436D01*
X88137348Y-131870436D01*
X88176666Y-131876842D01*
X88228547Y-131869487D01*
X88228977Y-131860000D01*
X88320000Y-131860000D01*
X88340000Y-131880000D01*
X88360000Y-131860000D01*
X88340000Y-131840000D01*
X88320000Y-131860000D01*
X88228977Y-131860000D01*
X88229166Y-131855833D01*
X88175631Y-131846284D01*
X88152500Y-131852675D01*
X88137348Y-131870436D01*
X87530794Y-131870436D01*
X87520236Y-131850257D01*
X87519999Y-131842407D01*
X87543120Y-131769422D01*
X87619756Y-131716395D01*
X87760822Y-131677233D01*
X87840000Y-131663742D01*
X88046185Y-131627295D01*
X88190523Y-131585068D01*
X88250917Y-131550436D01*
X88457348Y-131550436D01*
X88496666Y-131556842D01*
X88548547Y-131549487D01*
X88549166Y-131535833D01*
X88495631Y-131526284D01*
X88472500Y-131532675D01*
X88457348Y-131550436D01*
X88250917Y-131550436D01*
X88291076Y-131527407D01*
X88348395Y-131464020D01*
X88597550Y-131464020D01*
X88652860Y-131470333D01*
X88680000Y-131470719D01*
X88752772Y-131466549D01*
X88761349Y-131456166D01*
X88750000Y-131452426D01*
X88648550Y-131446206D01*
X88610000Y-131452426D01*
X88597550Y-131464020D01*
X88348395Y-131464020D01*
X88365902Y-131444659D01*
X88419257Y-131354139D01*
X88423742Y-131345159D01*
X89002434Y-131345159D01*
X89026855Y-131430815D01*
X89066438Y-131477273D01*
X89158299Y-131524090D01*
X89243065Y-131504011D01*
X89296610Y-131428304D01*
X89303985Y-131366319D01*
X89291287Y-131294341D01*
X89244266Y-131265007D01*
X89160547Y-131260000D01*
X89049000Y-131283600D01*
X89002434Y-131345159D01*
X88423742Y-131345159D01*
X88475610Y-131241301D01*
X88512485Y-131157759D01*
X88520780Y-131130158D01*
X88536238Y-131049620D01*
X88570246Y-130980979D01*
X88598494Y-130960000D01*
X88624488Y-130924728D01*
X88647504Y-130837249D01*
X88651708Y-130810000D01*
X88677284Y-130666587D01*
X88713060Y-130515406D01*
X88717348Y-130500000D01*
X88746720Y-130367326D01*
X88772572Y-130201012D01*
X88783584Y-130100000D01*
X88812489Y-129867762D01*
X88853554Y-129710212D01*
X88908478Y-129622728D01*
X88967381Y-129600000D01*
X89026351Y-129619273D01*
X89029128Y-129650635D01*
X89024215Y-129733248D01*
X89043382Y-129867658D01*
X89080495Y-130032250D01*
X89129416Y-130205405D01*
X89184012Y-130365508D01*
X89238147Y-130490942D01*
X89285686Y-130560089D01*
X89287681Y-130561609D01*
X89309729Y-130608642D01*
X89340703Y-130713235D01*
X89374511Y-130854373D01*
X89380119Y-130880567D01*
X89421975Y-131047124D01*
X89472223Y-131200889D01*
X89520172Y-131309254D01*
X89521334Y-131311244D01*
X89572716Y-131411674D01*
X89599078Y-131489286D01*
X89600000Y-131499184D01*
X89628505Y-131544233D01*
X89718147Y-131588268D01*
X89875111Y-131633518D01*
X90105584Y-131682215D01*
X90110000Y-131683053D01*
X90238776Y-131711170D01*
X90329030Y-131737992D01*
X90360000Y-131756303D01*
X90323715Y-131845260D01*
X90229404Y-131928766D01*
X90098883Y-131996339D01*
X89953967Y-132037495D01*
X89816472Y-132041752D01*
X89780958Y-132034549D01*
X89693467Y-132017505D01*
X89639415Y-132037923D01*
X89594332Y-132111184D01*
X89569649Y-132167378D01*
X89524104Y-132274756D01*
X89752052Y-132301613D01*
X89893942Y-132325702D01*
X90013776Y-132358751D01*
X90063965Y-132381203D01*
X90156390Y-132473704D01*
X90253951Y-132630571D01*
X90351394Y-132836850D01*
X90443461Y-133077585D01*
X90524898Y-133337822D01*
X90590448Y-133602605D01*
X90634856Y-133856979D01*
X90652083Y-134054665D01*
X90660000Y-134279863D01*
X90830000Y-134279931D01*
X90937130Y-134284714D01*
X90986381Y-134307564D01*
X90999708Y-134361405D01*
X91000000Y-134380000D01*
X91000000Y-134480000D01*
X90266523Y-134480000D01*
X90031618Y-134480917D01*
X89735155Y-134483508D01*
X89395552Y-134487528D01*
X89031227Y-134492733D01*
X88660598Y-134498880D01*
X88302085Y-134505724D01*
X88263236Y-134506528D01*
X86993427Y-134533057D01*
X87006713Y-134416528D01*
X87028986Y-134333336D01*
X87087758Y-134296891D01*
X87150123Y-134287456D01*
X87237663Y-134271730D01*
X87264657Y-134235104D01*
X87255929Y-134178022D01*
X87257333Y-134104027D01*
X87270348Y-134021123D01*
X87666761Y-134021123D01*
X87685069Y-134022681D01*
X87700000Y-134017814D01*
X87798464Y-133987186D01*
X87900000Y-133959146D01*
X87975807Y-133937833D01*
X87977462Y-133928608D01*
X87920000Y-133925511D01*
X87810024Y-133944678D01*
X87720000Y-133984180D01*
X87666761Y-134021123D01*
X87270348Y-134021123D01*
X87277953Y-133972678D01*
X87298323Y-133874126D01*
G37*
G36*
X89520000Y-132820000D02*
G01*
X89500000Y-132840000D01*
X89480000Y-132820000D01*
X89500000Y-132800000D01*
X89520000Y-132820000D01*
G37*
G36*
X90160000Y-133380000D02*
G01*
X90140000Y-133400000D01*
X90120000Y-133380000D01*
X90140000Y-133360000D01*
X90160000Y-133380000D01*
G37*
G36*
X90000000Y-132740000D02*
G01*
X89980000Y-132760000D01*
X89960000Y-132740000D01*
X89980000Y-132720000D01*
X90000000Y-132740000D01*
G37*
G36*
X89266666Y-131333333D02*
G01*
X89261175Y-131357113D01*
X89240000Y-131360000D01*
X89207075Y-131345364D01*
X89213333Y-131333333D01*
X89260803Y-131328546D01*
X89266666Y-131333333D01*
G37*
D10*
%TO.C,REF\u002A\u002A*%
X84540000Y-132000000D02*
G75*
G03*
X84540000Y-132000000I-2540000J0D01*
G01*
D14*
%TO.C,R4*%
X116272936Y-124735000D02*
X116727064Y-124735000D01*
X116272936Y-123265000D02*
X116727064Y-123265000D01*
D10*
%TO.C,REF\u002A\u002A*%
X120540000Y-68000000D02*
G75*
G03*
X120540000Y-68000000I-2540000J0D01*
G01*
D14*
%TO.C,D3*%
X90450000Y-73100000D02*
X90450000Y-67700000D01*
X87150000Y-73100000D02*
X87150000Y-67700000D01*
X87150000Y-73100000D02*
X90450000Y-73100000D01*
D15*
%TO.C,MOD-1*%
X113010387Y-79937467D02*
X113010387Y-80247467D01*
X113010387Y-66687467D02*
X113010387Y-66247467D01*
X113010387Y-66687467D02*
X113010387Y-66687467D01*
X91820387Y-68437467D02*
X91820387Y-77937467D01*
X94840387Y-66247467D02*
X94090387Y-66247467D01*
X96340387Y-66247467D02*
X108340387Y-66247467D01*
X112590387Y-66247467D02*
X113010387Y-66247467D01*
X113010387Y-80247467D02*
X113010387Y-79937467D01*
X94090387Y-80247467D02*
X94090387Y-80247467D01*
X110340387Y-80247467D02*
X110590387Y-80247467D01*
X94590387Y-80247467D02*
X94090387Y-80247467D01*
X91820387Y-66247467D02*
X91820387Y-66247467D01*
X91820387Y-80247467D02*
X91820387Y-80247467D01*
X110840387Y-66247467D02*
X110840387Y-66247467D01*
X91820387Y-79937467D02*
X91820387Y-80247467D01*
X91820387Y-80247467D02*
X92340387Y-80247467D01*
X113010387Y-77937467D02*
X113010387Y-77937467D01*
X108340387Y-66247467D02*
X96340387Y-66247467D01*
X91820387Y-66687467D02*
X91820387Y-66687467D01*
X91820387Y-66687467D02*
X91820387Y-66247467D01*
X94840387Y-66247467D02*
X94840387Y-66247467D01*
X96840387Y-80247467D02*
X108340387Y-80247467D01*
X113010387Y-66247467D02*
X113010387Y-66247467D01*
X110340387Y-80247467D02*
X110340387Y-80247467D01*
X110590387Y-80247467D02*
X110340387Y-80247467D01*
D16*
X93090387Y-80837467D02*
X93090387Y-80837467D01*
D15*
X112590387Y-66247467D02*
X112590387Y-66247467D01*
X94090387Y-66247467D02*
X94840387Y-66247467D01*
X112590387Y-80247467D02*
X113010387Y-80247467D01*
X110090387Y-66247467D02*
X110090387Y-66247467D01*
X92090387Y-66247467D02*
X91840387Y-66247467D01*
X110840387Y-66247467D02*
X110090387Y-66247467D01*
X110590387Y-80247467D02*
X110590387Y-80247467D01*
D16*
X93090387Y-80837467D02*
X93090387Y-80837467D01*
D15*
X91840387Y-66247467D02*
X91840387Y-66247467D01*
X110090387Y-66247467D02*
X110840387Y-66247467D01*
X92340387Y-80247467D02*
X91820387Y-80247467D01*
X113010387Y-79937467D02*
X113010387Y-79937467D01*
X91820387Y-80247467D02*
X91820387Y-79937467D01*
X113010387Y-80247467D02*
X112590387Y-80247467D01*
X113010387Y-77937467D02*
X113010387Y-68437467D01*
X96340387Y-66247467D02*
X96340387Y-66247467D01*
X91820387Y-77937467D02*
X91820387Y-77937467D01*
X108340387Y-80247467D02*
X96840387Y-80247467D01*
X94590387Y-80247467D02*
X94590387Y-80247467D01*
X91820387Y-80247467D02*
X91820387Y-80247467D01*
X91820387Y-77937467D02*
X91820387Y-68437467D01*
X91820387Y-68437467D02*
X91820387Y-68437467D01*
X94090387Y-80247467D02*
X94590387Y-80247467D01*
X113010387Y-66247467D02*
X113010387Y-66247467D01*
X96840387Y-80247467D02*
X96840387Y-80247467D01*
X91820387Y-79937467D02*
X91820387Y-79937467D01*
X113010387Y-66247467D02*
X113010387Y-66687467D01*
X91840387Y-66247467D02*
X92090387Y-66247467D01*
X94090387Y-66247467D02*
X94090387Y-66247467D01*
X113010387Y-80247467D02*
X113010387Y-80247467D01*
X108340387Y-80247467D02*
X108340387Y-80247467D01*
X112590387Y-80247467D02*
X112590387Y-80247467D01*
X113010387Y-68437467D02*
X113010387Y-68437467D01*
X91820387Y-66247467D02*
X91820387Y-66687467D01*
X92090387Y-66247467D02*
X92090387Y-66247467D01*
X113010387Y-68437467D02*
X113010387Y-77937467D01*
X108340387Y-66247467D02*
X108340387Y-66247467D01*
X113010387Y-66247467D02*
X112590387Y-66247467D01*
X113010387Y-80247467D02*
X113010387Y-80247467D01*
X92340387Y-80247467D02*
X92340387Y-80247467D01*
D16*
X93090387Y-80937467D02*
X93090387Y-80937467D01*
X93090387Y-80837467D02*
G75*
G03*
X93090387Y-80937467I0J-50000D01*
G01*
X93090387Y-80937467D02*
G75*
G03*
X93090387Y-80837467I0J50000D01*
G01*
X93090387Y-80837467D02*
G75*
G03*
X93090387Y-80937467I0J-50000D01*
G01*
D14*
%TO.C,C3*%
X107726851Y-89735000D02*
X107204347Y-89735000D01*
X107726851Y-88265000D02*
X107204347Y-88265000D01*
%TO.C,D1*%
X85030000Y-75800000D02*
X85030000Y-80200000D01*
X90030000Y-75800000D02*
X90030000Y-80200000D01*
X86730000Y-75800000D02*
X88330000Y-75800000D01*
X90030000Y-80200000D02*
X89230000Y-80200000D01*
X85830000Y-75800000D02*
X85030000Y-75800000D01*
X89230000Y-75800000D02*
X90030000Y-75800000D01*
X85530000Y-80200000D02*
X85530000Y-81600000D01*
X86730000Y-80200000D02*
X88330000Y-80200000D01*
X85030000Y-80200000D02*
X85530000Y-80200000D01*
%TO.C,R3*%
X116727064Y-73735000D02*
X116272936Y-73735000D01*
X116727064Y-72265000D02*
X116272936Y-72265000D01*
%TO.C,TR3*%
X97420000Y-119340000D02*
X98985000Y-119340000D01*
X97420000Y-126660000D02*
X98985000Y-126660000D01*
X112740000Y-123000000D02*
X112740000Y-126660000D01*
X111175000Y-119340000D02*
X111175000Y-117300000D01*
X112740000Y-119340000D02*
X111175000Y-119340000D01*
X97420000Y-123000000D02*
X97420000Y-119340000D01*
X112740000Y-126660000D02*
X111175000Y-126660000D01*
X97420000Y-123000000D02*
X97420000Y-126660000D01*
X112740000Y-123000000D02*
X112740000Y-119340000D01*
D10*
%TO.C,REF\u002A\u002A*%
X84540000Y-68000000D02*
G75*
G03*
X84540000Y-68000000I-2540000J0D01*
G01*
D14*
%TO.C,D4*%
X114815000Y-121040000D02*
X114815000Y-122960000D01*
X117500000Y-121040000D02*
X114815000Y-121040000D01*
X114815000Y-122960000D02*
X117500000Y-122960000D01*
%TO.C,REF\u002A\u002A*%
G36*
X110942831Y-133565743D02*
G01*
X110963316Y-133546083D01*
X110971824Y-133538453D01*
X110987853Y-133525309D01*
X111055564Y-133525309D01*
X111061605Y-133527561D01*
X111076142Y-133529181D01*
X111100829Y-133530287D01*
X111137325Y-133530998D01*
X111187284Y-133531433D01*
X111247500Y-133531693D01*
X111499707Y-133537765D01*
X111757499Y-133553982D01*
X112013661Y-133579818D01*
X112147500Y-133597403D01*
X112198840Y-133604698D01*
X112244932Y-133611196D01*
X112283086Y-133616521D01*
X112310613Y-133620298D01*
X112324821Y-133622153D01*
X112325765Y-133622254D01*
X112330467Y-133620080D01*
X112333413Y-133610936D01*
X112333908Y-133604152D01*
X112444354Y-133604152D01*
X112444892Y-133626728D01*
X112446525Y-133637585D01*
X112446692Y-133637802D01*
X112457586Y-133642603D01*
X112478144Y-133648312D01*
X112501557Y-133653273D01*
X112520710Y-133655813D01*
X112530593Y-133654314D01*
X112529440Y-133645098D01*
X112525992Y-133637916D01*
X112516689Y-133621760D01*
X112501289Y-133596990D01*
X112483026Y-133568802D01*
X112481949Y-133567175D01*
X112447500Y-133515184D01*
X112445031Y-133574429D01*
X112444354Y-133604152D01*
X112333908Y-133604152D01*
X112334760Y-133592466D01*
X112334667Y-133562314D01*
X112333291Y-133518121D01*
X112333092Y-133512916D01*
X112330664Y-133463129D01*
X112327317Y-133425262D01*
X112322304Y-133394567D01*
X112314877Y-133366298D01*
X112305878Y-133340000D01*
X112289463Y-133291884D01*
X112280498Y-133255992D01*
X112278738Y-133229761D01*
X112283943Y-133210629D01*
X112292534Y-133199132D01*
X112318082Y-133183766D01*
X112346863Y-133184544D01*
X112360269Y-133190144D01*
X112371140Y-133200377D01*
X112388223Y-133221465D01*
X112408964Y-133250091D01*
X112426065Y-133275560D01*
X112449677Y-133311721D01*
X112472975Y-133347049D01*
X112492654Y-133376548D01*
X112501779Y-133390000D01*
X112521080Y-133418631D01*
X112543242Y-133452268D01*
X112556862Y-133473333D01*
X112586185Y-133519166D01*
X112580817Y-133460833D01*
X112566779Y-133357496D01*
X112544253Y-133265603D01*
X112512196Y-133181687D01*
X112476291Y-133113395D01*
X112456672Y-133082575D01*
X112441589Y-133064658D01*
X112428876Y-133057291D01*
X112424211Y-133056767D01*
X112409768Y-133058156D01*
X112382303Y-133061912D01*
X112345212Y-133067533D01*
X112301889Y-133074513D01*
X112280833Y-133078038D01*
X112235510Y-133085712D01*
X112194617Y-133092633D01*
X112161636Y-133098212D01*
X112140048Y-133101860D01*
X112135000Y-133102710D01*
X112114153Y-133106892D01*
X112081024Y-133114317D01*
X112039471Y-133124070D01*
X111993352Y-133135240D01*
X111946526Y-133146911D01*
X111923711Y-133152737D01*
X111890945Y-133162387D01*
X111870265Y-133172166D01*
X111857250Y-133184476D01*
X111852878Y-133191196D01*
X111841521Y-133210959D01*
X111825627Y-133238751D01*
X111810818Y-133264719D01*
X111789360Y-133298403D01*
X111762703Y-133334837D01*
X111741912Y-133360016D01*
X111690628Y-133406598D01*
X111634281Y-133438295D01*
X111574789Y-133454975D01*
X111514070Y-133456506D01*
X111454044Y-133442755D01*
X111396630Y-133413590D01*
X111361524Y-133386218D01*
X111327873Y-133355817D01*
X111277791Y-133381098D01*
X111248298Y-133397421D01*
X111211455Y-133419860D01*
X111173338Y-133444655D01*
X111156608Y-133456124D01*
X111124150Y-133478484D01*
X111094342Y-133498401D01*
X111071353Y-133513119D01*
X111062337Y-133518433D01*
X111056360Y-133522306D01*
X111055564Y-133525309D01*
X110987853Y-133525309D01*
X111025244Y-133494649D01*
X111087456Y-133451181D01*
X111111477Y-133435833D01*
X111126009Y-133425659D01*
X111146771Y-133409966D01*
X111155113Y-133403422D01*
X111178073Y-133387273D01*
X111209302Y-133367929D01*
X111242106Y-133349532D01*
X111242632Y-133349255D01*
X111284858Y-133327035D01*
X111410000Y-133327035D01*
X111416632Y-133333104D01*
X111433867Y-133344545D01*
X111453750Y-133356419D01*
X111502349Y-133377191D01*
X111549109Y-133381824D01*
X111596347Y-133370318D01*
X111624473Y-133356482D01*
X111659523Y-133330845D01*
X111695695Y-133295211D01*
X111727928Y-133255062D01*
X111747631Y-133223078D01*
X111759263Y-133200586D01*
X111689619Y-133220200D01*
X111648536Y-133232520D01*
X111603733Y-133247207D01*
X111557949Y-133263213D01*
X111513922Y-133279492D01*
X111474391Y-133294998D01*
X111442097Y-133308682D01*
X111419779Y-133319500D01*
X111410175Y-133326405D01*
X111410000Y-133327035D01*
X111284858Y-133327035D01*
X111299812Y-133319166D01*
X111267470Y-133265678D01*
X111218351Y-133169423D01*
X111179624Y-133060498D01*
X111151388Y-132939340D01*
X111140119Y-132854441D01*
X111194319Y-132854441D01*
X111195123Y-132881074D01*
X111199523Y-132902754D01*
X111208149Y-132925255D01*
X111208355Y-132925722D01*
X111230169Y-132965087D01*
X111254381Y-132991816D01*
X111279358Y-133004986D01*
X111303468Y-133003674D01*
X111322333Y-132990184D01*
X111331215Y-132973026D01*
X111340091Y-132943381D01*
X111348171Y-132905408D01*
X111354665Y-132863269D01*
X111358782Y-132821123D01*
X111359833Y-132792722D01*
X111352978Y-132749809D01*
X111332374Y-132716067D01*
X111298510Y-132692255D01*
X111293664Y-132690136D01*
X111263500Y-132682510D01*
X111239537Y-132687837D01*
X111221208Y-132706857D01*
X111207947Y-132740309D01*
X111199189Y-132788934D01*
X111196480Y-132817079D01*
X111194319Y-132854441D01*
X111140119Y-132854441D01*
X111133741Y-132806387D01*
X111126782Y-132662077D01*
X111126667Y-132640000D01*
X111129942Y-132551203D01*
X111199230Y-132551203D01*
X111224747Y-132533033D01*
X111266732Y-132512367D01*
X111310471Y-132507687D01*
X111353620Y-132518825D01*
X111393355Y-132545177D01*
X111433632Y-132590720D01*
X111461771Y-132644177D01*
X111478036Y-132706647D01*
X111482692Y-132779225D01*
X111476003Y-132863011D01*
X111473756Y-132878454D01*
X111459534Y-132949524D01*
X111440385Y-133007116D01*
X111415194Y-133053976D01*
X111389595Y-133085950D01*
X111369712Y-133104405D01*
X111350980Y-133112867D01*
X111324984Y-133114994D01*
X111322708Y-133115000D01*
X111298596Y-133116092D01*
X111288080Y-133120051D01*
X111287813Y-133126978D01*
X111292865Y-133142460D01*
X111299611Y-133165778D01*
X111301247Y-133171776D01*
X111311417Y-133196305D01*
X111328552Y-133225714D01*
X111343693Y-133246806D01*
X111377302Y-133289017D01*
X111429956Y-133265393D01*
X111457775Y-133253910D01*
X111496733Y-133239162D01*
X111542069Y-133222894D01*
X111589024Y-133206845D01*
X111598388Y-133203750D01*
X111643189Y-133189111D01*
X111685622Y-133175375D01*
X111721588Y-133163860D01*
X111746984Y-133155886D01*
X111751667Y-133154460D01*
X111769771Y-133148536D01*
X111782056Y-133141551D01*
X111791225Y-133129926D01*
X111799980Y-133110082D01*
X111811024Y-133078442D01*
X111812603Y-133073764D01*
X111830690Y-133017963D01*
X111844773Y-132968201D01*
X111855336Y-132921010D01*
X111862859Y-132872920D01*
X111867824Y-132820460D01*
X111870712Y-132760161D01*
X111872005Y-132688553D01*
X111872209Y-132644166D01*
X111872063Y-132574864D01*
X111871302Y-132519444D01*
X111869774Y-132475127D01*
X111867329Y-132439136D01*
X111863815Y-132408691D01*
X111859081Y-132381015D01*
X111857506Y-132373333D01*
X111830690Y-132265104D01*
X111798856Y-132169342D01*
X111762403Y-132086818D01*
X111721731Y-132018304D01*
X111677239Y-131964569D01*
X111629327Y-131926387D01*
X111624473Y-131923517D01*
X111574500Y-131903085D01*
X111525049Y-131899075D01*
X111476558Y-131911243D01*
X111429468Y-131939343D01*
X111384218Y-131983133D01*
X111341248Y-132042366D01*
X111310046Y-132098241D01*
X111276988Y-132174818D01*
X111248270Y-132262896D01*
X111225205Y-132357585D01*
X111209103Y-132453998D01*
X111205152Y-132489351D01*
X111199230Y-132551203D01*
X111129942Y-132551203D01*
X111132079Y-132493271D01*
X111148268Y-132358270D01*
X111175162Y-132235243D01*
X111212689Y-132124435D01*
X111260777Y-132026092D01*
X111319354Y-131940462D01*
X111337325Y-131919137D01*
X111388132Y-131872745D01*
X111444172Y-131841359D01*
X111503425Y-131824979D01*
X111563872Y-131823605D01*
X111623495Y-131837238D01*
X111680274Y-131865877D01*
X111732190Y-131909522D01*
X111741008Y-131919137D01*
X111797478Y-131993513D01*
X111845107Y-132078879D01*
X111884294Y-132176228D01*
X111915433Y-132286554D01*
X111938923Y-132410850D01*
X111939921Y-132417570D01*
X111946910Y-132483582D01*
X111950651Y-132560639D01*
X111951275Y-132644203D01*
X111948914Y-132729739D01*
X111943696Y-132812709D01*
X111935754Y-132888579D01*
X111925217Y-132952810D01*
X111924404Y-132956666D01*
X111913500Y-133004893D01*
X111903285Y-133042638D01*
X111891838Y-133075883D01*
X111877236Y-133110606D01*
X111869501Y-133127500D01*
X111871230Y-133130290D01*
X111877395Y-133126281D01*
X111890302Y-133120380D01*
X111915568Y-133112130D01*
X111949226Y-133102550D01*
X111987311Y-133092657D01*
X112025859Y-133083471D01*
X112060905Y-133076010D01*
X112088482Y-133071291D01*
X112094123Y-133070621D01*
X112116488Y-133067189D01*
X112131685Y-133062801D01*
X112132722Y-133062241D01*
X112143540Y-133059138D01*
X112167829Y-133054024D01*
X112202593Y-133047473D01*
X112244837Y-133040059D01*
X112273593Y-133035261D01*
X112318469Y-133027752D01*
X112357243Y-133020949D01*
X112387073Y-133015377D01*
X112405117Y-133011559D01*
X112409171Y-133010273D01*
X112405635Y-133003033D01*
X112393160Y-132987212D01*
X112374416Y-132966187D01*
X112373760Y-132965485D01*
X112357832Y-132945714D01*
X112521417Y-132945714D01*
X112528073Y-132959416D01*
X112535629Y-132968121D01*
X112548955Y-132979808D01*
X112563334Y-132985038D01*
X112584836Y-132985260D01*
X112601339Y-132983829D01*
X112630379Y-132980148D01*
X112654645Y-132975717D01*
X112664167Y-132973113D01*
X112667214Y-132969139D01*
X112654071Y-132965287D01*
X112624507Y-132961493D01*
X112622500Y-132961294D01*
X112590193Y-132957102D01*
X112562319Y-132951677D01*
X112545429Y-132946392D01*
X112527485Y-132940745D01*
X112521417Y-132945714D01*
X112357832Y-132945714D01*
X112347687Y-132933122D01*
X112336114Y-132906331D01*
X112338630Y-132883241D01*
X112351667Y-132865000D01*
X112360903Y-132857615D01*
X112373250Y-132852744D01*
X112392111Y-132849862D01*
X112420888Y-132848442D01*
X112462083Y-132847964D01*
X112555833Y-132847595D01*
X112523347Y-132829214D01*
X112501602Y-132815067D01*
X112472746Y-132793846D01*
X112442135Y-132769535D01*
X112434330Y-132763013D01*
X112429125Y-132758284D01*
X112632816Y-132758284D01*
X112639806Y-132767205D01*
X112646057Y-132770954D01*
X112660374Y-132778736D01*
X112665816Y-132781371D01*
X112664555Y-132774726D01*
X112659266Y-132758155D01*
X112658638Y-132756343D01*
X112651969Y-132739919D01*
X112646294Y-132737537D01*
X112638879Y-132745926D01*
X112632816Y-132758284D01*
X112429125Y-132758284D01*
X112401912Y-132733559D01*
X112377892Y-132705642D01*
X112357070Y-132672608D01*
X112343666Y-132646999D01*
X112340182Y-132640625D01*
X112464167Y-132640625D01*
X112497500Y-132670153D01*
X112525810Y-132693442D01*
X112557179Y-132716736D01*
X112567562Y-132723805D01*
X112589304Y-132737412D01*
X112601906Y-132742325D01*
X112609843Y-132739468D01*
X112614866Y-132733547D01*
X112619696Y-132724231D01*
X112614568Y-132718583D01*
X112596504Y-132714078D01*
X112590637Y-132713015D01*
X112559457Y-132702529D01*
X112540189Y-132685247D01*
X112535000Y-132667573D01*
X112540744Y-132658239D01*
X112553140Y-132657971D01*
X112564929Y-132666650D01*
X112565836Y-132668075D01*
X112578568Y-132679335D01*
X112592348Y-132685651D01*
X112604897Y-132688525D01*
X112609362Y-132683888D01*
X112607773Y-132667953D01*
X112606283Y-132659660D01*
X112600969Y-132638182D01*
X112628924Y-132638182D01*
X112629747Y-132642083D01*
X112633616Y-132664971D01*
X112634886Y-132685138D01*
X112635356Y-132700023D01*
X112638064Y-132704383D01*
X112645241Y-132697186D01*
X112659114Y-132677402D01*
X112662557Y-132672330D01*
X112674658Y-132653462D01*
X112677693Y-132643112D01*
X112672272Y-132636228D01*
X112667314Y-132632964D01*
X112645874Y-132623538D01*
X112632247Y-132625479D01*
X112628924Y-132638182D01*
X112600969Y-132638182D01*
X112599595Y-132632629D01*
X112590523Y-132620189D01*
X112576237Y-132620267D01*
X112561371Y-132626790D01*
X112536014Y-132635475D01*
X112505923Y-132640100D01*
X112499997Y-132640312D01*
X112464167Y-132640625D01*
X112340182Y-132640625D01*
X112325498Y-132613758D01*
X112308181Y-132587455D01*
X112294195Y-132571735D01*
X112291016Y-132569627D01*
X112275413Y-132553396D01*
X112269569Y-132527815D01*
X112270917Y-132517902D01*
X112413664Y-132517902D01*
X112418061Y-132538987D01*
X112434390Y-132573490D01*
X112460487Y-132599416D01*
X112492455Y-132613448D01*
X112507306Y-132615000D01*
X112531599Y-132611010D01*
X112554053Y-132596881D01*
X112565000Y-132586666D01*
X112584433Y-132563252D01*
X112592512Y-132540882D01*
X112593333Y-132528333D01*
X112590776Y-132506433D01*
X112582539Y-132498454D01*
X112580833Y-132498333D01*
X112569767Y-132492483D01*
X112568333Y-132487426D01*
X112563698Y-132472521D01*
X112556410Y-132460342D01*
X112549260Y-132451930D01*
X112546759Y-132454683D01*
X112548054Y-132470870D01*
X112549174Y-132479583D01*
X112551007Y-132502344D01*
X112547900Y-132512829D01*
X112540843Y-132515000D01*
X112529658Y-132507906D01*
X112525163Y-132496250D01*
X112518697Y-132482035D01*
X112501682Y-132475636D01*
X112495702Y-132474910D01*
X112476338Y-132475188D01*
X112466923Y-132483497D01*
X112463549Y-132493660D01*
X112460879Y-132526141D01*
X112471659Y-132548795D01*
X112495913Y-132561646D01*
X112524583Y-132564886D01*
X112540063Y-132570061D01*
X112543333Y-132578560D01*
X112540593Y-132586460D01*
X112529818Y-132589524D01*
X112507178Y-132588621D01*
X112501376Y-132588088D01*
X112467609Y-132581169D01*
X112447101Y-132566470D01*
X112437331Y-132541192D01*
X112435530Y-132515000D01*
X112438689Y-132481176D01*
X112449735Y-132460515D01*
X112471026Y-132450460D01*
X112496930Y-132448333D01*
X112519922Y-132447588D01*
X112528868Y-132444691D01*
X112526346Y-132438649D01*
X112525178Y-132437450D01*
X112501646Y-132423011D01*
X112477154Y-132425163D01*
X112451805Y-132443865D01*
X112426832Y-132477232D01*
X112415665Y-132498890D01*
X112413664Y-132517902D01*
X112270917Y-132517902D01*
X112273729Y-132497217D01*
X112285392Y-132470373D01*
X112297732Y-132451634D01*
X112307254Y-132440949D01*
X112309298Y-132440000D01*
X112317043Y-132433456D01*
X112332381Y-132415357D01*
X112353639Y-132388001D01*
X112379143Y-132353685D01*
X112407220Y-132314707D01*
X112436196Y-132273366D01*
X112464398Y-132231959D01*
X112490152Y-132192783D01*
X112495958Y-132183694D01*
X112529143Y-132128304D01*
X112566030Y-132061527D01*
X112604676Y-131987331D01*
X112643137Y-131909681D01*
X112679468Y-131832545D01*
X112711727Y-131759890D01*
X112737969Y-131695681D01*
X112747054Y-131671280D01*
X112794543Y-131523052D01*
X112835001Y-131364782D01*
X112867198Y-131202051D01*
X112889903Y-131040442D01*
X112893283Y-131007867D01*
X112897514Y-130948611D01*
X112900193Y-130876958D01*
X112901357Y-130797100D01*
X112901040Y-130713230D01*
X112899278Y-130629542D01*
X112896106Y-130550227D01*
X112891559Y-130479480D01*
X112888546Y-130446326D01*
X112867629Y-130285282D01*
X112838415Y-130123967D01*
X112801700Y-129965258D01*
X112758279Y-129812032D01*
X112708947Y-129667166D01*
X112654499Y-129533538D01*
X112611390Y-129443597D01*
X112570864Y-129365000D01*
X112699249Y-129365000D01*
X112733088Y-129437916D01*
X112806270Y-129612517D01*
X112869715Y-129799607D01*
X112923066Y-129997895D01*
X112965964Y-130206092D01*
X112990663Y-130365000D01*
X112995360Y-130410232D01*
X112999261Y-130468486D01*
X113002348Y-130536820D01*
X113004603Y-130612296D01*
X113006007Y-130691972D01*
X113006543Y-130772909D01*
X113006192Y-130852166D01*
X113004937Y-130926803D01*
X113002759Y-130993880D01*
X112999640Y-131050456D01*
X112995563Y-131093592D01*
X112995160Y-131096627D01*
X112959145Y-131310557D01*
X112910813Y-131514104D01*
X112849649Y-131708655D01*
X112775139Y-131895597D01*
X112686767Y-132076314D01*
X112584018Y-132252193D01*
X112541958Y-132316762D01*
X112493335Y-132389358D01*
X112524584Y-132398098D01*
X112564670Y-132417373D01*
X112594727Y-132448723D01*
X112613112Y-132489815D01*
X112618333Y-132530960D01*
X112619114Y-132556133D01*
X112623018Y-132569519D01*
X112632391Y-132575979D01*
X112641250Y-132578465D01*
X112662925Y-132588762D01*
X112682617Y-132605707D01*
X112695029Y-132618841D01*
X112700421Y-132619288D01*
X112701367Y-132612916D01*
X112706629Y-132600683D01*
X112716986Y-132599208D01*
X112725393Y-132607829D01*
X112726667Y-132615293D01*
X112722165Y-132635050D01*
X112713867Y-132651786D01*
X112705712Y-132666268D01*
X112707659Y-132673219D01*
X112713867Y-132676232D01*
X112725147Y-132687787D01*
X112726667Y-132694808D01*
X112722488Y-132704309D01*
X112707624Y-132703690D01*
X112706784Y-132703483D01*
X112690640Y-132702926D01*
X112682763Y-132714503D01*
X112682068Y-132716976D01*
X112682925Y-132738274D01*
X112690084Y-132755069D01*
X112698285Y-132772787D01*
X112699060Y-132784771D01*
X112702936Y-132794429D01*
X112716686Y-132806393D01*
X112734926Y-132817478D01*
X112752270Y-132824497D01*
X112763334Y-132824264D01*
X112764182Y-132823308D01*
X112762532Y-132815992D01*
X112757617Y-132815000D01*
X112741146Y-132807992D01*
X112726283Y-132791344D01*
X112718544Y-132771617D01*
X112718333Y-132768281D01*
X112724050Y-132746012D01*
X112738029Y-132726462D01*
X112755513Y-132715644D01*
X112760472Y-132715000D01*
X112774365Y-132719050D01*
X112773841Y-132730747D01*
X112759442Y-132748890D01*
X112748223Y-132763356D01*
X112749609Y-132774611D01*
X112752215Y-132778160D01*
X112764987Y-132784554D01*
X112777393Y-132777197D01*
X112785751Y-132758675D01*
X112786583Y-132754063D01*
X112794543Y-132738465D01*
X112803750Y-132733224D01*
X112814873Y-132737264D01*
X112818372Y-132753110D01*
X112814335Y-132777791D01*
X112802849Y-132808338D01*
X112801437Y-132811306D01*
X112784542Y-132846208D01*
X112814992Y-132876658D01*
X112833221Y-132896673D01*
X112841207Y-132912353D01*
X112841630Y-132929882D01*
X112840745Y-132936054D01*
X112836048Y-132965000D01*
X112937856Y-132965000D01*
X113064993Y-132970376D01*
X113198456Y-132985997D01*
X113332056Y-133011103D01*
X113353754Y-133016121D01*
X113403679Y-133028796D01*
X113438489Y-133039771D01*
X113459553Y-133049793D01*
X113468243Y-133059609D01*
X113465930Y-133069966D01*
X113461699Y-133074967D01*
X113451453Y-133077489D01*
X113429162Y-133075632D01*
X113393547Y-133069211D01*
X113343326Y-133058041D01*
X113341843Y-133057692D01*
X113174641Y-133025682D01*
X113010752Y-133009269D01*
X112918333Y-133006804D01*
X112862596Y-133007592D01*
X112801670Y-133009771D01*
X112739814Y-133013073D01*
X112681284Y-133017229D01*
X112630339Y-133021970D01*
X112591237Y-133027028D01*
X112587161Y-133027709D01*
X112560156Y-133032392D01*
X112590425Y-133092446D01*
X112631375Y-133184383D01*
X112660898Y-133276600D01*
X112680171Y-133373764D01*
X112690368Y-133480544D01*
X112690916Y-133491544D01*
X112692553Y-133546468D01*
X112691231Y-133587607D01*
X112686293Y-133617683D01*
X112677085Y-133639417D01*
X112662953Y-133655532D01*
X112649085Y-133665351D01*
X112624342Y-133680398D01*
X112656754Y-133688929D01*
X112676472Y-133694006D01*
X112708469Y-133702120D01*
X112748850Y-133712286D01*
X112793719Y-133723522D01*
X112810000Y-133727585D01*
X113009469Y-133783187D01*
X113212802Y-133851096D01*
X113415049Y-133929472D01*
X113611260Y-134016477D01*
X113686981Y-134053302D01*
X113761992Y-134091355D01*
X113838641Y-134131314D01*
X113914210Y-134171687D01*
X113985978Y-134210983D01*
X114051227Y-134247710D01*
X114107239Y-134280378D01*
X114151292Y-134307494D01*
X114155833Y-134310426D01*
X114239167Y-134364592D01*
X114197983Y-134364796D01*
X114175361Y-134363584D01*
X114154850Y-134358441D01*
X114131585Y-134347480D01*
X114100701Y-134328813D01*
X114093816Y-134324398D01*
X114049131Y-134297011D01*
X113992029Y-134264223D01*
X113925290Y-134227474D01*
X113851692Y-134188206D01*
X113774017Y-134147859D01*
X113695044Y-134107875D01*
X113617553Y-134069694D01*
X113544324Y-134034757D01*
X113478137Y-134004506D01*
X113468333Y-134000174D01*
X113377006Y-133961675D01*
X113275954Y-133921901D01*
X113171697Y-133883297D01*
X113070755Y-133848312D01*
X113018333Y-133831285D01*
X112988102Y-133822226D01*
X112947500Y-133810769D01*
X112898724Y-133797471D01*
X112843973Y-133782889D01*
X112785444Y-133767580D01*
X112725336Y-133752102D01*
X112665845Y-133737012D01*
X112609172Y-133722867D01*
X112557512Y-133710225D01*
X112513065Y-133699644D01*
X112478029Y-133691679D01*
X112454601Y-133686890D01*
X112444979Y-133685833D01*
X112444909Y-133685880D01*
X112442762Y-133694540D01*
X112438779Y-133716474D01*
X112433509Y-133748461D01*
X112427502Y-133787279D01*
X112426913Y-133791202D01*
X112416248Y-133855406D01*
X112405443Y-133904778D01*
X112393863Y-133941143D01*
X112380877Y-133966328D01*
X112365851Y-133982160D01*
X112359308Y-133986191D01*
X112322709Y-133998213D01*
X112290362Y-133994161D01*
X112262158Y-133973995D01*
X112239396Y-133940443D01*
X112228785Y-133923333D01*
X112220229Y-133915124D01*
X112219497Y-133915000D01*
X112214912Y-133922575D01*
X112207948Y-133942996D01*
X112199689Y-133972806D01*
X112193986Y-133996250D01*
X112185697Y-134031514D01*
X112178532Y-134060862D01*
X112173464Y-134080363D01*
X112171785Y-134085833D01*
X112176583Y-134093986D01*
X112192529Y-134106664D01*
X112211311Y-134118296D01*
X112233774Y-134131668D01*
X112266142Y-134151933D01*
X112305702Y-134177295D01*
X112349736Y-134205957D01*
X112395531Y-134236122D01*
X112440370Y-134265993D01*
X112481537Y-134293772D01*
X112516319Y-134317664D01*
X112541998Y-134335871D01*
X112554389Y-134345324D01*
X112577945Y-134365000D01*
X112543773Y-134365000D01*
X112529427Y-134363846D01*
X112513828Y-134359535D01*
X112494532Y-134350792D01*
X112469097Y-134336341D01*
X112435081Y-134314908D01*
X112390039Y-134285217D01*
X112386884Y-134283113D01*
X112328005Y-134244248D01*
X112275114Y-134210169D01*
X112229713Y-134181794D01*
X112193306Y-134160042D01*
X112167397Y-134145830D01*
X112153487Y-134140078D01*
X112152645Y-134140000D01*
X112145769Y-134146894D01*
X112135107Y-134164580D01*
X112127566Y-134179583D01*
X112093807Y-134234583D01*
X112051091Y-134276132D01*
X112000487Y-134303550D01*
X111943065Y-134316159D01*
X111911535Y-134316671D01*
X111858903Y-134314176D01*
X111863831Y-134266671D01*
X111866071Y-134240879D01*
X111865541Y-134229341D01*
X111861841Y-134229813D01*
X111858129Y-134234642D01*
X111847065Y-134250143D01*
X111830575Y-134272599D01*
X111820417Y-134286225D01*
X111805362Y-134307089D01*
X111795529Y-134322237D01*
X111793333Y-134327000D01*
X111788074Y-134335654D01*
X111776667Y-134348333D01*
X111761631Y-134358689D01*
X111739905Y-134363795D01*
X111711337Y-134365000D01*
X111683366Y-134364263D01*
X111667211Y-134360894D01*
X111658044Y-134353155D01*
X111653127Y-134344043D01*
X111638355Y-134324521D01*
X111623212Y-134313808D01*
X111606335Y-134309188D01*
X111590697Y-134314746D01*
X111580299Y-134322264D01*
X111551031Y-134337511D01*
X111523323Y-134336979D01*
X111501667Y-134323333D01*
X111486806Y-134299688D01*
X111487773Y-134273729D01*
X111504697Y-134244728D01*
X111518463Y-134229575D01*
X111551927Y-134196112D01*
X111610892Y-134200331D01*
X111654782Y-134206286D01*
X111687293Y-134218524D01*
X111713288Y-134239598D01*
X111732317Y-134264025D01*
X111750467Y-134290685D01*
X111782078Y-134234092D01*
X111806760Y-134195036D01*
X111834590Y-134159273D01*
X111862940Y-134129496D01*
X111889181Y-134108400D01*
X111910688Y-134098678D01*
X111914498Y-134098333D01*
X111940695Y-134105453D01*
X111958937Y-134123892D01*
X111966862Y-134149272D01*
X111962110Y-134177213D01*
X111959707Y-134182214D01*
X111955476Y-134195334D01*
X111962066Y-134197217D01*
X111978196Y-134188082D01*
X111993059Y-134176451D01*
X112011107Y-134157406D01*
X112029140Y-134132405D01*
X112043684Y-134106997D01*
X112051264Y-134086729D01*
X112051667Y-134082861D01*
X112044555Y-134075834D01*
X112024594Y-134062477D01*
X111993841Y-134043910D01*
X111954354Y-134021251D01*
X111908192Y-133995622D01*
X111857412Y-133968143D01*
X111804074Y-133939933D01*
X111750236Y-133912113D01*
X111697955Y-133885803D01*
X111649291Y-133862123D01*
X111625467Y-133850929D01*
X111543539Y-133813711D01*
X111472733Y-133783201D01*
X111409585Y-133758045D01*
X111350631Y-133736889D01*
X111292406Y-133718380D01*
X111268333Y-133711353D01*
X111227310Y-133699264D01*
X111177392Y-133683973D01*
X111125474Y-133667618D01*
X111086655Y-133655046D01*
X111044505Y-133641360D01*
X111015327Y-133632602D01*
X110996329Y-133628294D01*
X110984718Y-133627959D01*
X110977702Y-133631121D01*
X110973604Y-133635731D01*
X110958020Y-133648109D01*
X110943111Y-133645653D01*
X110932020Y-133630015D01*
X110928188Y-133611865D01*
X110927824Y-133594331D01*
X110931020Y-133583273D01*
X111029382Y-133583273D01*
X111041724Y-133590964D01*
X111068336Y-133601900D01*
X111109690Y-133616257D01*
X111166260Y-133634210D01*
X111238519Y-133655934D01*
X111243333Y-133657352D01*
X111293317Y-133672545D01*
X111346152Y-133689409D01*
X111395528Y-133705886D01*
X111435000Y-133719868D01*
X111469112Y-133733636D01*
X111515210Y-133753839D01*
X111570535Y-133779140D01*
X111632328Y-133808200D01*
X111697832Y-133839682D01*
X111764288Y-133872250D01*
X111828939Y-133904565D01*
X111889026Y-133935290D01*
X111941790Y-133963088D01*
X111980777Y-133984520D01*
X112014233Y-134003194D01*
X112042319Y-134018372D01*
X112061920Y-134028402D01*
X112069770Y-134031666D01*
X112074302Y-134024212D01*
X112080215Y-134004885D01*
X112085003Y-133983750D01*
X112092972Y-133946427D01*
X112104014Y-133898497D01*
X112116823Y-133845431D01*
X112130097Y-133792704D01*
X112135140Y-133773333D01*
X112147237Y-133745215D01*
X112166293Y-133719091D01*
X112188301Y-133699300D01*
X112209255Y-133690179D01*
X112212104Y-133690000D01*
X112231308Y-133693036D01*
X112247294Y-133703825D01*
X112262251Y-133724891D01*
X112278365Y-133758753D01*
X112284377Y-133773333D01*
X112296045Y-133801603D01*
X112305070Y-133822119D01*
X112309961Y-133831544D01*
X112310412Y-133831666D01*
X112312826Y-133817071D01*
X112316314Y-133792324D01*
X112320338Y-133761739D01*
X112324360Y-133729632D01*
X112327841Y-133700315D01*
X112330244Y-133678103D01*
X112331031Y-133667312D01*
X112330959Y-133666914D01*
X112322538Y-133665172D01*
X112299986Y-133661544D01*
X112265686Y-133656385D01*
X112222023Y-133650050D01*
X112171379Y-133642895D01*
X112146637Y-133639460D01*
X112064021Y-133628587D01*
X111980404Y-133618735D01*
X111892789Y-133609615D01*
X111798179Y-133600938D01*
X111693577Y-133592417D01*
X111575985Y-133583762D01*
X111547500Y-133581772D01*
X111506847Y-133579489D01*
X111457391Y-133577555D01*
X111401650Y-133575986D01*
X111342143Y-133574798D01*
X111281386Y-133574005D01*
X111221897Y-133573623D01*
X111166194Y-133573667D01*
X111116795Y-133574152D01*
X111076216Y-133575093D01*
X111046976Y-133576506D01*
X111031592Y-133578405D01*
X111030835Y-133578652D01*
X111029382Y-133583273D01*
X110931020Y-133583273D01*
X110931853Y-133580391D01*
X110942831Y-133565743D01*
G37*
G36*
X111434053Y-131386365D02*
G01*
X111444041Y-131387845D01*
X111521232Y-131408097D01*
X111593754Y-131443802D01*
X111660643Y-131494165D01*
X111720931Y-131558389D01*
X111773652Y-131635677D01*
X111796667Y-131678554D01*
X111823388Y-131735106D01*
X111841037Y-131778618D01*
X111849809Y-131809906D01*
X111849898Y-131829783D01*
X111841497Y-131839063D01*
X111835112Y-131840000D01*
X111819133Y-131832111D01*
X111805945Y-131809815D01*
X111797851Y-131788982D01*
X111793547Y-131775055D01*
X111793333Y-131773400D01*
X111789142Y-131760392D01*
X111777912Y-131736936D01*
X111761661Y-131706574D01*
X111742407Y-131672850D01*
X111722166Y-131639308D01*
X111702957Y-131609490D01*
X111688197Y-131588739D01*
X111650165Y-131543930D01*
X111610938Y-131508670D01*
X111564767Y-131478292D01*
X111528324Y-131458961D01*
X111494360Y-131443070D01*
X111467356Y-131433870D01*
X111439937Y-131429550D01*
X111404726Y-131428302D01*
X111403324Y-131428292D01*
X111363038Y-131429475D01*
X111332663Y-131434417D01*
X111305649Y-131444283D01*
X111301119Y-131446436D01*
X111268220Y-131460440D01*
X111247170Y-131464186D01*
X111236713Y-131457714D01*
X111235000Y-131448525D01*
X111241369Y-131431440D01*
X111261251Y-131416281D01*
X111295809Y-131402367D01*
X111330000Y-131392844D01*
X111367153Y-131385152D01*
X111398604Y-131383135D01*
X111434053Y-131386365D01*
G37*
G36*
X110562706Y-133968451D02*
G01*
X110534527Y-133952345D01*
X110514158Y-133935122D01*
X110496141Y-133911413D01*
X110483297Y-133890309D01*
X110460455Y-133847063D01*
X110443190Y-133806387D01*
X110432484Y-133771314D01*
X110429318Y-133744877D01*
X110432317Y-133732797D01*
X110448122Y-133720902D01*
X110470956Y-133716239D01*
X110492296Y-133720052D01*
X110497468Y-133723307D01*
X110507262Y-133737847D01*
X110514658Y-133759325D01*
X110524581Y-133790333D01*
X110540447Y-133825033D01*
X110558915Y-133857003D01*
X110576649Y-133879822D01*
X110577946Y-133881069D01*
X110597031Y-133893946D01*
X110623641Y-133906411D01*
X110634241Y-133910210D01*
X110653468Y-133915580D01*
X110671817Y-133918028D01*
X110692659Y-133917175D01*
X110719362Y-133912639D01*
X110755294Y-133904039D01*
X110803597Y-133891057D01*
X110846802Y-133881515D01*
X110892392Y-133875156D01*
X110924615Y-133873333D01*
X110956447Y-133874130D01*
X110977902Y-133877761D01*
X110995241Y-133886087D01*
X111013115Y-133899637D01*
X111046247Y-133920547D01*
X111083790Y-133929657D01*
X111085803Y-133929860D01*
X111106506Y-133931115D01*
X111123078Y-133929001D01*
X111140145Y-133921711D01*
X111162335Y-133907438D01*
X111185133Y-133891056D01*
X111223717Y-133865332D01*
X111253137Y-133851647D01*
X111275162Y-133849459D01*
X111291558Y-133858225D01*
X111291667Y-133858333D01*
X111301612Y-133878108D01*
X111295472Y-133900985D01*
X111273425Y-133926432D01*
X111266420Y-133932355D01*
X111218034Y-133968651D01*
X111177498Y-133993169D01*
X111145796Y-134005354D01*
X111134710Y-134006666D01*
X111110000Y-134006666D01*
X111110000Y-134093424D01*
X111106146Y-134166900D01*
X111094794Y-134228579D01*
X111076260Y-134277234D01*
X111054818Y-134307726D01*
X111040683Y-134320799D01*
X111026392Y-134327891D01*
X111006344Y-134330666D01*
X110977191Y-134330829D01*
X110942781Y-134329208D01*
X110910065Y-134325874D01*
X110891120Y-134322599D01*
X110838818Y-134304890D01*
X110796935Y-134278079D01*
X110764449Y-134240752D01*
X110740339Y-134191498D01*
X110723584Y-134128902D01*
X110716162Y-134080460D01*
X110706549Y-134000086D01*
X110658804Y-133996633D01*
X110646899Y-133994182D01*
X110786827Y-133994182D01*
X110787242Y-134018614D01*
X110790552Y-134050885D01*
X110796138Y-134086841D01*
X110803385Y-134122326D01*
X110811674Y-134153187D01*
X110817925Y-134170174D01*
X110831335Y-134197457D01*
X110840961Y-134209240D01*
X110847256Y-134205260D01*
X110850673Y-134185250D01*
X110851667Y-134150491D01*
X110852984Y-134110943D01*
X110857696Y-134085308D01*
X110866944Y-134070989D01*
X110881867Y-134065385D01*
X110889167Y-134065000D01*
X110905191Y-134067317D01*
X110916003Y-134075978D01*
X110922553Y-134093543D01*
X110925790Y-134122572D01*
X110926666Y-134165626D01*
X110926667Y-134166055D01*
X110926947Y-134204922D01*
X110928886Y-134230181D01*
X110934128Y-134244890D01*
X110944317Y-134252107D01*
X110961099Y-134254892D01*
X110974879Y-134255699D01*
X110988278Y-134252799D01*
X110999901Y-134240305D01*
X111011961Y-134217083D01*
X111021093Y-134193299D01*
X111026707Y-134167502D01*
X111029567Y-134134651D01*
X111030415Y-134095088D01*
X111030234Y-134056501D01*
X111028853Y-134031212D01*
X111025721Y-134015866D01*
X111020288Y-134007107D01*
X111015371Y-134003421D01*
X110999284Y-133992614D01*
X110977489Y-133976616D01*
X110969614Y-133970566D01*
X110945910Y-133955098D01*
X110924943Y-133950089D01*
X110910077Y-133951111D01*
X110871465Y-133957600D01*
X110836089Y-133965351D01*
X110808081Y-133973309D01*
X110791577Y-133980420D01*
X110789924Y-133981742D01*
X110786827Y-133994182D01*
X110646899Y-133994182D01*
X110601821Y-133984901D01*
X110562706Y-133968451D01*
G37*
G36*
X108591789Y-133612681D02*
G01*
X108634798Y-133607301D01*
X108640712Y-133606597D01*
X108678772Y-133601946D01*
X108702994Y-133598146D01*
X108716106Y-133594195D01*
X108720834Y-133589088D01*
X108719904Y-133581825D01*
X108718518Y-133577987D01*
X108714013Y-133562761D01*
X108707020Y-133535189D01*
X108698508Y-133499228D01*
X108689722Y-133460108D01*
X108680898Y-133419805D01*
X108673056Y-133384025D01*
X108667065Y-133356727D01*
X108663840Y-133342083D01*
X108662655Y-133337838D01*
X108776667Y-133337838D01*
X108778544Y-133350466D01*
X108783584Y-133375436D01*
X108790897Y-133408927D01*
X108799597Y-133447115D01*
X108808792Y-133486175D01*
X108817596Y-133522285D01*
X108825120Y-133551621D01*
X108830474Y-133570359D01*
X108831194Y-133572463D01*
X108836434Y-133577996D01*
X108849074Y-133580628D01*
X108872168Y-133580585D01*
X108908121Y-133578144D01*
X108943091Y-133575517D01*
X108989485Y-133572364D01*
X109042079Y-133569024D01*
X109095655Y-133565835D01*
X109114167Y-133564790D01*
X109159987Y-133562737D01*
X109218439Y-133560873D01*
X109285489Y-133559284D01*
X109357103Y-133558056D01*
X109429246Y-133557272D01*
X109482301Y-133557025D01*
X109717102Y-133556666D01*
X109742082Y-133492083D01*
X109748358Y-133475858D01*
X109862578Y-133475858D01*
X109870079Y-133486886D01*
X109881252Y-133486825D01*
X109888943Y-133487854D01*
X109887851Y-133494591D01*
X109888448Y-133505031D01*
X109892442Y-133506666D01*
X109898969Y-133513891D01*
X109901667Y-133531156D01*
X109902248Y-133541109D01*
X109905424Y-133548665D01*
X109913339Y-133554320D01*
X109928139Y-133558569D01*
X109951967Y-133561909D01*
X109986970Y-133564837D01*
X110035293Y-133567848D01*
X110068333Y-133569721D01*
X110116819Y-133573044D01*
X110168801Y-133577590D01*
X110216476Y-133582637D01*
X110239167Y-133585522D01*
X110276640Y-133590387D01*
X110311302Y-133594283D01*
X110337336Y-133596574D01*
X110343333Y-133596879D01*
X110361977Y-133596955D01*
X110366072Y-133594191D01*
X110357712Y-133586632D01*
X110355833Y-133585206D01*
X110333917Y-133573094D01*
X110318333Y-133567772D01*
X110303430Y-133563739D01*
X110275848Y-133555752D01*
X110238834Y-133544771D01*
X110195635Y-133531756D01*
X110168333Y-133523442D01*
X110117915Y-133508432D01*
X110066792Y-133493914D01*
X110019842Y-133481230D01*
X109981945Y-133471718D01*
X109970417Y-133469102D01*
X109939183Y-133461574D01*
X109915365Y-133454343D01*
X109902743Y-133448616D01*
X109901667Y-133447127D01*
X109895963Y-133440009D01*
X109883284Y-133440813D01*
X109870279Y-133447860D01*
X109864190Y-133456592D01*
X109862578Y-133475858D01*
X109748358Y-133475858D01*
X109767063Y-133427500D01*
X109719781Y-133417567D01*
X109673241Y-133409004D01*
X109625888Y-133401761D01*
X109894190Y-133401761D01*
X109894564Y-133402342D01*
X109903431Y-133405528D01*
X109925641Y-133412048D01*
X109958391Y-133421117D01*
X109998872Y-133431953D01*
X110026964Y-133439303D01*
X110074282Y-133451737D01*
X110118926Y-133463755D01*
X110157032Y-133474298D01*
X110184738Y-133482304D01*
X110193333Y-133484976D01*
X110221224Y-133493722D01*
X110236637Y-133497409D01*
X110242759Y-133496672D01*
X110243333Y-133494958D01*
X110236350Y-133488652D01*
X110217129Y-133476152D01*
X110188261Y-133458873D01*
X110152336Y-133438229D01*
X110111946Y-133415633D01*
X110069682Y-133392500D01*
X110028134Y-133370242D01*
X109989894Y-133350275D01*
X109957552Y-133334013D01*
X109933700Y-133322868D01*
X109920929Y-133318256D01*
X109919677Y-133318336D01*
X109913494Y-133328138D01*
X109906053Y-133347406D01*
X109899155Y-133370116D01*
X109894600Y-133390242D01*
X109894190Y-133401761D01*
X109625888Y-133401761D01*
X109612786Y-133399757D01*
X109541136Y-133390117D01*
X109461015Y-133380374D01*
X109375145Y-133370819D01*
X109286249Y-133361742D01*
X109197047Y-133353433D01*
X109110264Y-133346183D01*
X109028620Y-133340282D01*
X108955833Y-133336069D01*
X108912201Y-133333745D01*
X108870554Y-133331186D01*
X108836046Y-133328726D01*
X108816250Y-133326974D01*
X108792160Y-133325255D01*
X108780370Y-133327581D01*
X108776769Y-133335082D01*
X108776667Y-133337838D01*
X108662655Y-133337838D01*
X108662118Y-133335912D01*
X108658645Y-133331270D01*
X108651295Y-133327939D01*
X108637943Y-133325701D01*
X108616467Y-133324339D01*
X108584741Y-133323635D01*
X108540640Y-133323372D01*
X108482041Y-133323333D01*
X108301667Y-133323333D01*
X108301667Y-133281666D01*
X108476667Y-133281666D01*
X108528639Y-133281354D01*
X108574473Y-133280483D01*
X108611734Y-133279147D01*
X108637989Y-133277444D01*
X108650803Y-133275467D01*
X108651667Y-133274783D01*
X108650569Y-133264149D01*
X108647600Y-133240739D01*
X108643244Y-133208277D01*
X108639205Y-133179128D01*
X108634414Y-133139440D01*
X108629397Y-133088381D01*
X108624613Y-133031231D01*
X108620521Y-132973271D01*
X108618750Y-132943334D01*
X108616000Y-132895674D01*
X108613395Y-132855603D01*
X108723731Y-132855603D01*
X108724260Y-132879583D01*
X108727115Y-132931014D01*
X108731186Y-132988924D01*
X108736099Y-133049144D01*
X108741480Y-133107504D01*
X108746955Y-133159834D01*
X108752150Y-133201966D01*
X108754733Y-133219166D01*
X108764427Y-133277500D01*
X108818463Y-133283338D01*
X108840923Y-133285447D01*
X108877285Y-133288480D01*
X108924820Y-133292226D01*
X108980803Y-133296475D01*
X109042506Y-133301018D01*
X109107203Y-133305643D01*
X109114167Y-133306132D01*
X109197806Y-133312512D01*
X109284358Y-133320045D01*
X109371039Y-133328422D01*
X109455068Y-133337333D01*
X109533663Y-133346469D01*
X109604041Y-133355521D01*
X109663420Y-133364180D01*
X109709019Y-133372137D01*
X109710000Y-133372333D01*
X109743945Y-133378766D01*
X109765579Y-133379910D01*
X109778996Y-133373433D01*
X109788286Y-133357002D01*
X109797542Y-133328285D01*
X109799634Y-133321250D01*
X109806559Y-133299059D01*
X109811127Y-133282147D01*
X109811735Y-133268727D01*
X109806780Y-133257014D01*
X109794659Y-133245223D01*
X109773767Y-133231568D01*
X109742502Y-133214263D01*
X109699260Y-133191524D01*
X109668762Y-133175511D01*
X109499482Y-133091576D01*
X109332892Y-133020070D01*
X109163722Y-132958780D01*
X109115075Y-132943117D01*
X109062822Y-132926563D01*
X109015206Y-132911159D01*
X108974792Y-132897761D01*
X108944142Y-132887223D01*
X108925820Y-132880401D01*
X108922500Y-132878895D01*
X108905580Y-132872344D01*
X108896991Y-132871588D01*
X108885650Y-132869826D01*
X108862589Y-132863643D01*
X108831805Y-132854162D01*
X108814178Y-132848337D01*
X108780884Y-132837400D01*
X108753199Y-132828891D01*
X108735157Y-132824023D01*
X108730958Y-132823333D01*
X108725679Y-132831451D01*
X108723731Y-132855603D01*
X108613395Y-132855603D01*
X108613297Y-132854102D01*
X108610843Y-132821344D01*
X108608842Y-132800128D01*
X108607623Y-132793178D01*
X108598956Y-132790682D01*
X108577073Y-132785648D01*
X108545117Y-132778726D01*
X108506232Y-132770565D01*
X108463560Y-132761813D01*
X108420245Y-132753120D01*
X108379431Y-132745135D01*
X108344259Y-132738506D01*
X108332916Y-132736458D01*
X108312036Y-132730961D01*
X108303190Y-132721951D01*
X108301667Y-132709945D01*
X108302687Y-132697502D01*
X108308630Y-132692189D01*
X108323815Y-132692336D01*
X108341250Y-132694648D01*
X108364264Y-132698494D01*
X108399160Y-132704995D01*
X108441524Y-132713303D01*
X108486944Y-132722566D01*
X108495372Y-132724325D01*
X108536913Y-132732973D01*
X108572349Y-132740237D01*
X108598622Y-132745499D01*
X108612675Y-132748141D01*
X108614122Y-132748333D01*
X108615987Y-132740624D01*
X108617428Y-132719990D01*
X108618234Y-132690171D01*
X108618333Y-132674216D01*
X108622209Y-132571045D01*
X108633352Y-132457111D01*
X108651032Y-132336277D01*
X108674519Y-132212404D01*
X108703086Y-132089352D01*
X108736002Y-131970984D01*
X108771140Y-131865000D01*
X108843142Y-131685013D01*
X108925436Y-131514844D01*
X109020500Y-131349595D01*
X109073561Y-131267334D01*
X109098027Y-131229784D01*
X109118744Y-131196241D01*
X109134065Y-131169512D01*
X109142344Y-131152402D01*
X109143333Y-131148514D01*
X109148039Y-131132583D01*
X109160896Y-131106308D01*
X109180009Y-131072648D01*
X109203485Y-131034559D01*
X109229432Y-130995000D01*
X109255956Y-130956927D01*
X109281164Y-130923298D01*
X109303163Y-130897071D01*
X109306738Y-130893259D01*
X109353662Y-130850517D01*
X109402601Y-130819224D01*
X109415071Y-130813030D01*
X109440969Y-130801211D01*
X109462178Y-130793448D01*
X109483430Y-130788918D01*
X109509460Y-130786795D01*
X109545004Y-130786253D01*
X109568333Y-130786321D01*
X109614562Y-130787154D01*
X109649771Y-130789645D01*
X109679584Y-130794597D01*
X109709625Y-130802813D01*
X109729023Y-130809270D01*
X109824062Y-130847873D01*
X109917747Y-130897907D01*
X109975112Y-130934296D01*
X110043269Y-130979915D01*
X110163955Y-130941207D01*
X110211634Y-130925550D01*
X110245154Y-130913548D01*
X110266404Y-130904363D01*
X110277274Y-130897155D01*
X110279654Y-130891087D01*
X110279305Y-130890000D01*
X110272824Y-130864971D01*
X110269548Y-130832912D01*
X110270211Y-130803275D01*
X110271828Y-130793875D01*
X110288136Y-130760260D01*
X110318800Y-130727246D01*
X110361544Y-130696513D01*
X110414092Y-130669745D01*
X110464522Y-130651439D01*
X110502434Y-130643645D01*
X110552231Y-130638705D01*
X110609381Y-130636614D01*
X110669348Y-130637371D01*
X110727599Y-130640971D01*
X110779599Y-130647413D01*
X110801667Y-130651660D01*
X110944367Y-130691925D01*
X111086281Y-130748669D01*
X111227071Y-130821714D01*
X111366402Y-130910876D01*
X111503939Y-131015978D01*
X111547834Y-131053223D01*
X111606502Y-131104226D01*
X111595576Y-131040863D01*
X111586084Y-130969466D01*
X111579630Y-130885728D01*
X111576206Y-130793696D01*
X111575803Y-130697415D01*
X111578413Y-130600931D01*
X111584026Y-130508288D01*
X111592634Y-130423534D01*
X111596966Y-130392407D01*
X111633795Y-130195421D01*
X111684230Y-130000374D01*
X111748886Y-129805340D01*
X111828378Y-129608392D01*
X111889756Y-129475416D01*
X111943191Y-129365000D01*
X112005762Y-129365000D01*
X112035653Y-129365254D01*
X112057762Y-129365928D01*
X112068023Y-129366886D01*
X112068298Y-129367083D01*
X112064727Y-129374824D01*
X112054848Y-129394999D01*
X112039871Y-129425166D01*
X112021007Y-129462884D01*
X112003187Y-129498333D01*
X111911020Y-129697120D01*
X111833604Y-129897980D01*
X111771340Y-130099613D01*
X111724626Y-130300721D01*
X111693862Y-130500005D01*
X111693109Y-130506666D01*
X111688954Y-130556825D01*
X111686126Y-130618101D01*
X111684625Y-130686034D01*
X111684453Y-130756166D01*
X111685613Y-130824038D01*
X111688105Y-130885190D01*
X111691932Y-130935163D01*
X111692947Y-130944166D01*
X111721733Y-131115331D01*
X111765603Y-131280283D01*
X111824312Y-131438338D01*
X111897614Y-131588812D01*
X111964608Y-131700244D01*
X111995531Y-131751760D01*
X112013761Y-131792686D01*
X112019295Y-131823237D01*
X112012134Y-131843626D01*
X111992274Y-131854066D01*
X111963390Y-131855121D01*
X111949295Y-131853066D01*
X111937450Y-131847964D01*
X111925302Y-131837346D01*
X111910295Y-131818745D01*
X111889876Y-131789691D01*
X111878771Y-131773333D01*
X111843460Y-131717147D01*
X111805745Y-131650351D01*
X111767994Y-131577698D01*
X111732573Y-131503941D01*
X111701850Y-131433834D01*
X111678193Y-131372130D01*
X111676468Y-131367083D01*
X111664147Y-131332407D01*
X111653062Y-131304500D01*
X111644575Y-131286602D01*
X111640538Y-131281666D01*
X111631934Y-131276299D01*
X111614023Y-131261745D01*
X111589554Y-131240325D01*
X111565473Y-131218285D01*
X111442094Y-131109958D01*
X111318801Y-131014938D01*
X111196322Y-130933594D01*
X111075388Y-130866297D01*
X110956726Y-130813415D01*
X110841065Y-130775316D01*
X110729135Y-130752371D01*
X110630833Y-130744968D01*
X110559365Y-130748011D01*
X110496570Y-130758082D01*
X110444673Y-130774629D01*
X110405898Y-130797097D01*
X110399583Y-130802560D01*
X110381919Y-130822203D01*
X110378479Y-130837573D01*
X110389188Y-130852960D01*
X110398570Y-130861005D01*
X110413658Y-130877605D01*
X110421776Y-130900532D01*
X110424461Y-130919975D01*
X110425221Y-130950231D01*
X110420021Y-130967198D01*
X110417141Y-130970138D01*
X110406337Y-130975041D01*
X110381970Y-130984228D01*
X110346346Y-130996892D01*
X110301771Y-131012224D01*
X110250550Y-131029415D01*
X110210000Y-131042767D01*
X110092875Y-131082350D01*
X109992104Y-131119239D01*
X109907600Y-131153472D01*
X109839274Y-131185084D01*
X109787039Y-131214112D01*
X109778526Y-131219603D01*
X109753952Y-131236216D01*
X109741581Y-131246305D01*
X109739685Y-131252494D01*
X109746536Y-131257408D01*
X109751995Y-131259895D01*
X109768227Y-131263219D01*
X109799141Y-131265848D01*
X109842763Y-131267684D01*
X109897117Y-131268630D01*
X109930833Y-131268736D01*
X110009740Y-131267555D01*
X110076586Y-131263845D01*
X110135867Y-131256993D01*
X110192079Y-131246388D01*
X110249718Y-131231416D01*
X110285937Y-131220375D01*
X110321519Y-131213018D01*
X110346118Y-131217701D01*
X110360866Y-131235014D01*
X110366705Y-131262621D01*
X110366624Y-131286869D01*
X110360270Y-131301449D01*
X110349910Y-131310020D01*
X110328655Y-131319943D01*
X110294591Y-131331259D01*
X110251417Y-131343053D01*
X110202830Y-131354414D01*
X110152530Y-131364428D01*
X110104213Y-131372182D01*
X110091353Y-131373847D01*
X110043467Y-131378009D01*
X109987949Y-131380175D01*
X109928529Y-131380465D01*
X109868940Y-131378998D01*
X109812910Y-131375894D01*
X109764171Y-131371272D01*
X109726454Y-131365250D01*
X109712867Y-131361744D01*
X109670254Y-131341795D01*
X109639664Y-131313935D01*
X109622267Y-131280371D01*
X109619236Y-131243309D01*
X109630704Y-131206916D01*
X109651714Y-131179179D01*
X109686412Y-131148717D01*
X109732387Y-131117130D01*
X109787231Y-131086014D01*
X109848533Y-131056968D01*
X109870749Y-131047715D01*
X109918999Y-131028323D01*
X109887416Y-131008712D01*
X109830121Y-130976006D01*
X109768843Y-130945930D01*
X109709448Y-130921175D01*
X109662670Y-130905725D01*
X109590993Y-130892673D01*
X109525859Y-130894849D01*
X109466699Y-130912409D01*
X109412941Y-130945511D01*
X109371522Y-130985463D01*
X109350821Y-131010919D01*
X109339681Y-131030755D01*
X109335406Y-131050646D01*
X109335000Y-131062330D01*
X109334049Y-131077169D01*
X109330200Y-131091870D01*
X109321955Y-131109102D01*
X109307817Y-131131532D01*
X109286288Y-131161830D01*
X109257393Y-131200641D01*
X109137106Y-131373596D01*
X109031744Y-131552532D01*
X108941635Y-131736733D01*
X108867103Y-131925483D01*
X108808476Y-132118065D01*
X108776696Y-132256666D01*
X108760208Y-132349134D01*
X108746035Y-132447202D01*
X108734874Y-132545007D01*
X108727424Y-132636690D01*
X108724847Y-132692112D01*
X108722500Y-132773392D01*
X108760000Y-132785486D01*
X108777152Y-132790946D01*
X108807938Y-132800670D01*
X108850085Y-132813944D01*
X108901322Y-132830053D01*
X108959376Y-132848282D01*
X109021975Y-132867918D01*
X109051667Y-132877224D01*
X109177635Y-132918028D01*
X109290722Y-132957688D01*
X109394507Y-132997673D01*
X109492569Y-133039451D01*
X109588487Y-133084489D01*
X109685841Y-133134254D01*
X109710000Y-133147162D01*
X109830833Y-133212225D01*
X109853518Y-133119862D01*
X109876082Y-133018535D01*
X109897307Y-132904990D01*
X109916564Y-132783664D01*
X109933223Y-132658991D01*
X109946656Y-132535406D01*
X109950134Y-132492532D01*
X110077032Y-132492532D01*
X110077586Y-132575875D01*
X110080488Y-132655205D01*
X110085738Y-132725616D01*
X110089584Y-132758463D01*
X110111033Y-132882125D01*
X110139550Y-132992985D01*
X110174871Y-133090218D01*
X110216734Y-133172997D01*
X110226935Y-133189404D01*
X110264240Y-133237905D01*
X110303010Y-133270699D01*
X110342660Y-133287568D01*
X110382603Y-133288296D01*
X110422254Y-133272664D01*
X110432654Y-133265741D01*
X110457153Y-133245351D01*
X110478704Y-133223108D01*
X110484365Y-133215890D01*
X110502588Y-133190299D01*
X110471972Y-133163419D01*
X110429004Y-133115479D01*
X110399865Y-133060101D01*
X110393162Y-133039092D01*
X110384741Y-133010038D01*
X110373692Y-132974989D01*
X110366584Y-132953738D01*
X110359462Y-132930530D01*
X110354888Y-132907566D01*
X110352506Y-132880693D01*
X110351989Y-132847645D01*
X110485984Y-132847645D01*
X110486199Y-132892823D01*
X110492587Y-132937161D01*
X110501386Y-132966893D01*
X110516241Y-132997819D01*
X110534643Y-133024258D01*
X110553435Y-133042357D01*
X110568173Y-133048333D01*
X110573136Y-133040936D01*
X110580870Y-133021371D01*
X110589854Y-132993572D01*
X110591510Y-132987916D01*
X110605213Y-132937343D01*
X110616454Y-132889930D01*
X110624774Y-132848252D01*
X110629717Y-132814885D01*
X110630827Y-132792405D01*
X110627769Y-132783423D01*
X110618846Y-132773511D01*
X110618333Y-132770006D01*
X110611281Y-132759062D01*
X110593875Y-132746350D01*
X110571741Y-132734841D01*
X110550503Y-132727505D01*
X110536771Y-132726937D01*
X110517336Y-132741273D01*
X110502057Y-132768450D01*
X110491438Y-132805047D01*
X110485984Y-132847645D01*
X110351989Y-132847645D01*
X110351960Y-132845759D01*
X110352895Y-132798611D01*
X110352996Y-132795107D01*
X110354598Y-132749126D01*
X110356734Y-132715813D01*
X110360101Y-132691169D01*
X110365396Y-132671195D01*
X110373315Y-132651894D01*
X110380526Y-132637170D01*
X110404921Y-132598485D01*
X110433487Y-132567947D01*
X110438672Y-132563836D01*
X110458116Y-132550360D01*
X110474716Y-132543210D01*
X110494655Y-132540923D01*
X110524115Y-132542037D01*
X110529389Y-132542384D01*
X110560992Y-132545274D01*
X110582149Y-132550382D01*
X110599078Y-132560188D01*
X110617997Y-132577173D01*
X110618973Y-132578124D01*
X110651667Y-132610049D01*
X110651667Y-132487951D01*
X110648584Y-132382876D01*
X110639659Y-132281238D01*
X110625381Y-132184317D01*
X110606235Y-132093395D01*
X110582708Y-132009753D01*
X110555288Y-131934670D01*
X110524460Y-131869427D01*
X110490713Y-131815307D01*
X110454532Y-131773588D01*
X110416405Y-131745552D01*
X110376819Y-131732480D01*
X110364167Y-131731666D01*
X110324665Y-131739809D01*
X110286046Y-131763480D01*
X110248893Y-131801545D01*
X110213786Y-131852869D01*
X110181308Y-131916315D01*
X110152041Y-131990749D01*
X110126567Y-132075036D01*
X110105467Y-132168040D01*
X110089469Y-132267510D01*
X110082972Y-132333442D01*
X110078827Y-132410085D01*
X110077032Y-132492532D01*
X109950134Y-132492532D01*
X109956232Y-132417344D01*
X109958439Y-132380361D01*
X109961895Y-132326203D01*
X109965989Y-132286605D01*
X109971325Y-132259459D01*
X109978508Y-132242659D01*
X109988142Y-132234097D01*
X110000830Y-132231667D01*
X110001071Y-132231666D01*
X110008662Y-132228165D01*
X110015329Y-132215903D01*
X110022069Y-132192243D01*
X110029462Y-132156754D01*
X110052963Y-132053520D01*
X110081845Y-131959522D01*
X110115461Y-131876007D01*
X110153166Y-131804222D01*
X110194313Y-131745414D01*
X110238256Y-131700831D01*
X110279579Y-131673940D01*
X110319311Y-131661384D01*
X110365526Y-131656776D01*
X110410637Y-131660383D01*
X110438514Y-131668356D01*
X110485199Y-131696347D01*
X110529556Y-131739663D01*
X110570995Y-131797056D01*
X110608930Y-131867275D01*
X110642771Y-131949072D01*
X110671931Y-132041196D01*
X110695820Y-132142399D01*
X110713850Y-132251430D01*
X110714162Y-132253798D01*
X110720106Y-132314070D01*
X110724102Y-132386233D01*
X110726151Y-132465628D01*
X110726252Y-132547594D01*
X110724405Y-132627472D01*
X110720610Y-132700600D01*
X110714868Y-132762318D01*
X110714162Y-132767867D01*
X110696261Y-132877049D01*
X110672489Y-132978429D01*
X110643435Y-133070758D01*
X110609686Y-133152785D01*
X110571832Y-133223260D01*
X110530459Y-133280936D01*
X110486158Y-133324561D01*
X110439516Y-133352887D01*
X110438514Y-133353309D01*
X110399001Y-133363081D01*
X110352844Y-133364444D01*
X110307632Y-133357664D01*
X110279579Y-133347726D01*
X110233102Y-133316666D01*
X110188997Y-133270210D01*
X110147919Y-133209539D01*
X110110522Y-133135834D01*
X110077463Y-133050277D01*
X110049396Y-132954049D01*
X110040552Y-132916626D01*
X110021450Y-132830752D01*
X110002958Y-132937990D01*
X109993091Y-132991293D01*
X109980983Y-133050903D01*
X109968376Y-133108492D01*
X109959799Y-133144697D01*
X109950268Y-133184112D01*
X109942451Y-133218305D01*
X109937146Y-133243659D01*
X109935148Y-133256557D01*
X109935147Y-133256666D01*
X109942253Y-133265967D01*
X109961806Y-133280565D01*
X109991186Y-133298639D01*
X110012165Y-133310245D01*
X110210401Y-133421622D01*
X110347500Y-133505561D01*
X110393172Y-133533628D01*
X110443155Y-133562991D01*
X110491332Y-133590128D01*
X110530833Y-133611134D01*
X110567829Y-133630389D01*
X110592164Y-133644581D01*
X110606331Y-133655583D01*
X110612822Y-133665271D01*
X110614167Y-133673798D01*
X110608154Y-133690935D01*
X110591081Y-133696962D01*
X110564398Y-133691787D01*
X110535980Y-133678909D01*
X110514183Y-133668986D01*
X110487439Y-133660914D01*
X110452259Y-133653903D01*
X110405154Y-133647163D01*
X110385000Y-133644697D01*
X110292518Y-133634081D01*
X110203461Y-133624528D01*
X110120758Y-133616323D01*
X110047341Y-133609752D01*
X109986143Y-133605098D01*
X109962838Y-133603676D01*
X109931579Y-133601776D01*
X109909205Y-133601563D01*
X109894086Y-133605341D01*
X109884590Y-133615412D01*
X109879089Y-133634078D01*
X109875951Y-133663643D01*
X109873545Y-133706409D01*
X109872207Y-133731666D01*
X109870029Y-133790791D01*
X109871098Y-133835116D01*
X109875710Y-133866245D01*
X109884165Y-133885779D01*
X109896758Y-133895325D01*
X109902833Y-133896683D01*
X109921150Y-133894097D01*
X109940288Y-133880103D01*
X109950423Y-133869310D01*
X109966033Y-133849119D01*
X109975431Y-133832312D01*
X109976667Y-133827210D01*
X109983784Y-133809236D01*
X110001090Y-133792697D01*
X110022515Y-133782694D01*
X110030833Y-133781666D01*
X110057371Y-133789008D01*
X110075864Y-133809534D01*
X110084559Y-133840995D01*
X110085000Y-133851166D01*
X110088116Y-133886432D01*
X110096613Y-133930422D01*
X110109211Y-133979135D01*
X110124631Y-134028566D01*
X110141594Y-134074711D01*
X110158819Y-134113566D01*
X110175029Y-134141129D01*
X110179337Y-134146416D01*
X110196551Y-134165332D01*
X110205359Y-134138261D01*
X110220287Y-134114415D01*
X110242955Y-134101352D01*
X110268693Y-134099170D01*
X110292833Y-134107964D01*
X110310706Y-134127830D01*
X110314167Y-134136017D01*
X110324561Y-134160390D01*
X110335137Y-134178664D01*
X110343090Y-134188598D01*
X110349937Y-134189687D01*
X110359567Y-134180334D01*
X110372637Y-134163260D01*
X110408877Y-134126838D01*
X110452177Y-134105444D01*
X110503344Y-134098682D01*
X110503418Y-134098682D01*
X110537737Y-134101720D01*
X110568374Y-134111626D01*
X110599586Y-134130481D01*
X110635632Y-134160368D01*
X110642577Y-134166723D01*
X110670633Y-134196746D01*
X110683809Y-134222086D01*
X110682575Y-134244543D01*
X110668333Y-134265000D01*
X110646650Y-134279261D01*
X110621960Y-134280327D01*
X110592639Y-134267783D01*
X110557063Y-134241212D01*
X110549559Y-134234630D01*
X110527479Y-134218195D01*
X110506842Y-134208140D01*
X110499043Y-134206666D01*
X110479725Y-134213942D01*
X110461231Y-134232221D01*
X110447742Y-134256183D01*
X110443333Y-134277541D01*
X110435753Y-134303710D01*
X110415994Y-134325184D01*
X110388523Y-134338032D01*
X110372331Y-134340000D01*
X110347692Y-134337826D01*
X110328364Y-134332539D01*
X110327301Y-134332006D01*
X110314713Y-134329228D01*
X110305395Y-134339630D01*
X110303028Y-134344506D01*
X110297239Y-134354725D01*
X110288774Y-134360830D01*
X110273729Y-134363873D01*
X110248199Y-134364906D01*
X110226968Y-134365000D01*
X110160245Y-134365000D01*
X110176758Y-134337916D01*
X110191191Y-134307528D01*
X110191782Y-134286131D01*
X110178491Y-134273371D01*
X110169016Y-134270553D01*
X110139704Y-134257853D01*
X110108942Y-134233153D01*
X110080733Y-134200202D01*
X110063245Y-134171515D01*
X110054561Y-134152321D01*
X110042984Y-134124012D01*
X110029993Y-134090560D01*
X110017066Y-134055935D01*
X110005679Y-134024112D01*
X109997310Y-133999060D01*
X109993439Y-133984753D01*
X109993333Y-133983600D01*
X109986890Y-133985342D01*
X109971139Y-133992726D01*
X109968747Y-133993952D01*
X109935289Y-134004352D01*
X109895059Y-134007031D01*
X109854985Y-134002281D01*
X109821992Y-133990392D01*
X109817482Y-133987612D01*
X109797033Y-133969287D01*
X109782068Y-133944155D01*
X109771675Y-133909541D01*
X109764942Y-133862773D01*
X109762148Y-133825531D01*
X109757741Y-133748562D01*
X109712502Y-133837996D01*
X109647205Y-133959858D01*
X109580018Y-134070006D01*
X109507697Y-134173335D01*
X109427002Y-134274744D01*
X109410801Y-134293796D01*
X109349676Y-134365000D01*
X109095060Y-134365000D01*
X109067737Y-134333881D01*
X109026482Y-134280952D01*
X108982924Y-134214216D01*
X108938315Y-134136148D01*
X108893909Y-134049223D01*
X108850958Y-133955917D01*
X108810715Y-133858705D01*
X108774432Y-133760062D01*
X108768527Y-133742671D01*
X108755814Y-133705375D01*
X108744771Y-133674168D01*
X108736568Y-133652278D01*
X108732376Y-133642933D01*
X108732343Y-133642898D01*
X108722866Y-133642368D01*
X108699610Y-133643919D01*
X108665284Y-133647210D01*
X108622598Y-133651900D01*
X108574263Y-133657648D01*
X108522989Y-133664114D01*
X108471485Y-133670957D01*
X108422462Y-133677837D01*
X108378630Y-133684413D01*
X108342699Y-133690345D01*
X108319834Y-133694746D01*
X108306234Y-133695657D01*
X108302365Y-133687045D01*
X108303167Y-133675721D01*
X108305833Y-133652500D01*
X108430833Y-133634552D01*
X108483725Y-133627116D01*
X108489632Y-133626314D01*
X108844932Y-133626314D01*
X108873663Y-133708855D01*
X108927536Y-133852305D01*
X108984480Y-133982177D01*
X109043999Y-134097416D01*
X109096322Y-134183191D01*
X109122448Y-134220436D01*
X109149560Y-134255437D01*
X109175401Y-134285634D01*
X109197713Y-134308469D01*
X109214240Y-134321384D01*
X109219959Y-134323333D01*
X109229212Y-134317785D01*
X109246661Y-134303048D01*
X109268985Y-134281982D01*
X109275580Y-134275416D01*
X109333089Y-134212787D01*
X109391890Y-134140158D01*
X109450073Y-134060545D01*
X109505726Y-133976963D01*
X109556939Y-133892429D01*
X109601803Y-133809958D01*
X109638405Y-133732568D01*
X109664836Y-133663273D01*
X109666316Y-133658612D01*
X109682636Y-133606390D01*
X109661597Y-133601110D01*
X109646391Y-133599606D01*
X109616763Y-133598702D01*
X109574943Y-133598350D01*
X109523163Y-133598504D01*
X109463654Y-133599115D01*
X109398647Y-133600137D01*
X109330374Y-133601522D01*
X109261066Y-133603223D01*
X109192954Y-133605192D01*
X109128269Y-133607381D01*
X109069243Y-133609745D01*
X109018107Y-133612235D01*
X108977092Y-133614804D01*
X108962883Y-133615942D01*
X108844932Y-133626314D01*
X108489632Y-133626314D01*
X108539404Y-133619556D01*
X108591789Y-133612681D01*
G37*
G36*
X111912972Y-130559429D02*
G01*
X111913132Y-130489029D01*
X111913814Y-130423904D01*
X111915028Y-130366013D01*
X111916786Y-130317316D01*
X111919098Y-130279771D01*
X111921975Y-130255336D01*
X111924727Y-130246500D01*
X111931524Y-130230562D01*
X111930800Y-130222085D01*
X111929202Y-130204151D01*
X111931994Y-130173426D01*
X111938454Y-130132979D01*
X111947861Y-130085882D01*
X111959493Y-130035206D01*
X111972627Y-129984023D01*
X111986542Y-129935402D01*
X112000516Y-129892415D01*
X112013826Y-129858134D01*
X112018896Y-129847362D01*
X112037242Y-129816657D01*
X112058831Y-129788447D01*
X112079935Y-129767153D01*
X112094339Y-129757925D01*
X112099940Y-129753817D01*
X112099749Y-129745836D01*
X112092610Y-129731496D01*
X112077366Y-129708311D01*
X112059602Y-129683176D01*
X112032084Y-129642548D01*
X112015895Y-129612995D01*
X112010748Y-129593642D01*
X112016357Y-129583611D01*
X112026449Y-129581666D01*
X112038266Y-129588616D01*
X112057075Y-129608257D01*
X112081662Y-129638774D01*
X112110810Y-129678353D01*
X112143305Y-129725178D01*
X112177932Y-129777434D01*
X112213474Y-129833308D01*
X112248716Y-129890984D01*
X112282444Y-129948647D01*
X112313442Y-130004483D01*
X112327787Y-130031629D01*
X112342058Y-130058584D01*
X112353584Y-130079276D01*
X112360087Y-130089632D01*
X112360395Y-130089962D01*
X112365866Y-130099350D01*
X112375384Y-130119388D01*
X112384423Y-130140000D01*
X112395984Y-130167251D01*
X112411673Y-130204269D01*
X112429123Y-130245471D01*
X112440917Y-130273333D01*
X112508110Y-130451555D01*
X112560006Y-130631853D01*
X112596613Y-130813239D01*
X112617939Y-130994730D01*
X112623992Y-131175338D01*
X112614780Y-131354078D01*
X112590310Y-131529964D01*
X112550590Y-131702010D01*
X112495628Y-131869231D01*
X112426974Y-132027500D01*
X112393376Y-132092879D01*
X112358433Y-132155029D01*
X112323345Y-132212251D01*
X112289316Y-132262846D01*
X112257548Y-132305117D01*
X112229244Y-132337365D01*
X112205605Y-132357891D01*
X112187997Y-132365000D01*
X112173101Y-132357699D01*
X112162430Y-132342083D01*
X112157260Y-132326555D01*
X112149220Y-132297975D01*
X112139154Y-132259541D01*
X112127903Y-132214449D01*
X112119032Y-132177500D01*
X112065562Y-131938772D01*
X112020162Y-131709155D01*
X111981976Y-131483684D01*
X111950148Y-131257394D01*
X111929225Y-131077500D01*
X111925588Y-131035411D01*
X111922389Y-130982927D01*
X111919638Y-130922008D01*
X111917345Y-130854611D01*
X111915521Y-130782696D01*
X111914178Y-130708222D01*
X111913903Y-130684048D01*
X111952853Y-130684048D01*
X111953592Y-130762199D01*
X111955345Y-130833864D01*
X111958160Y-130896149D01*
X111959539Y-130917037D01*
X111979476Y-131134600D01*
X112007845Y-131362205D01*
X112044009Y-131595905D01*
X112087332Y-131831757D01*
X112137181Y-132065816D01*
X112160695Y-132165883D01*
X112195564Y-132310016D01*
X112216060Y-132285425D01*
X112229029Y-132268453D01*
X112248292Y-132241519D01*
X112271033Y-132208619D01*
X112289997Y-132180453D01*
X112359215Y-132064152D01*
X112421073Y-131935456D01*
X112474454Y-131797423D01*
X112518242Y-131653111D01*
X112551320Y-131505579D01*
X112563478Y-131431666D01*
X112580191Y-131258009D01*
X112580958Y-131081084D01*
X112565968Y-130901795D01*
X112535409Y-130721044D01*
X112489473Y-130539736D01*
X112428348Y-130358773D01*
X112352224Y-130179059D01*
X112264815Y-130007835D01*
X112244555Y-129970127D01*
X112227677Y-129936483D01*
X112215713Y-129910127D01*
X112210196Y-129894286D01*
X112210000Y-129892541D01*
X112203837Y-129875481D01*
X112188151Y-129853465D01*
X112167149Y-129830989D01*
X112145036Y-129812548D01*
X112126017Y-129802638D01*
X112125855Y-129802597D01*
X112110989Y-129801468D01*
X112098487Y-129808978D01*
X112083420Y-129828159D01*
X112082801Y-129829056D01*
X112053341Y-129882047D01*
X112026662Y-129951248D01*
X112002834Y-130036426D01*
X111981927Y-130137345D01*
X111971872Y-130198340D01*
X111966910Y-130240903D01*
X111962614Y-130297229D01*
X111959033Y-130364425D01*
X111956217Y-130439597D01*
X111954215Y-130519854D01*
X111953077Y-130602301D01*
X111952853Y-130684048D01*
X111913903Y-130684048D01*
X111913324Y-130633146D01*
X111912972Y-130559429D01*
G37*
G36*
X110632863Y-133348621D02*
G01*
X110645754Y-133327072D01*
X110655452Y-133316909D01*
X110665972Y-133310384D01*
X110681121Y-133306636D01*
X110704701Y-133304802D01*
X110740519Y-133304019D01*
X110747837Y-133303932D01*
X110794828Y-133303943D01*
X110846313Y-133304811D01*
X110893043Y-133306362D01*
X110904279Y-133306908D01*
X110939786Y-133309135D01*
X110962531Y-133311995D01*
X110976410Y-133316680D01*
X110985318Y-133324381D01*
X110991534Y-133333599D01*
X110998954Y-133347370D01*
X110999376Y-133357892D01*
X110991182Y-133370304D01*
X110974338Y-133388117D01*
X110956944Y-133407050D01*
X110945694Y-133421442D01*
X110943333Y-133426324D01*
X110938692Y-133436459D01*
X110927103Y-133453898D01*
X110922500Y-133460092D01*
X110909263Y-133480266D01*
X110902089Y-133496686D01*
X110901667Y-133499703D01*
X110896547Y-133512552D01*
X110883397Y-133532379D01*
X110871850Y-133546833D01*
X110852443Y-133567557D01*
X110836279Y-133577966D01*
X110817095Y-133581434D01*
X110807267Y-133581635D01*
X110777054Y-133577528D01*
X110749840Y-133567370D01*
X110747500Y-133565988D01*
X110714290Y-133539642D01*
X110679330Y-133502232D01*
X110648644Y-133460982D01*
X110631240Y-133423386D01*
X110627265Y-133394106D01*
X110701667Y-133394106D01*
X110707505Y-133407842D01*
X110714167Y-133415000D01*
X110724700Y-133428094D01*
X110726666Y-133434770D01*
X110732539Y-133444757D01*
X110747009Y-133460414D01*
X110765350Y-133477394D01*
X110782840Y-133491350D01*
X110794752Y-133497936D01*
X110795417Y-133498020D01*
X110801150Y-133491675D01*
X110801667Y-133487338D01*
X110806382Y-133475446D01*
X110818726Y-133454971D01*
X110835488Y-133431088D01*
X110869310Y-133385833D01*
X110829238Y-133380149D01*
X110796429Y-133377412D01*
X110763193Y-133377762D01*
X110733626Y-133380750D01*
X110711824Y-133385928D01*
X110701883Y-133392848D01*
X110701667Y-133394106D01*
X110627265Y-133394106D01*
X110625947Y-133384402D01*
X110632863Y-133348621D01*
G37*
G36*
X110351037Y-131421768D02*
G01*
X110397500Y-131429388D01*
X110431071Y-131437408D01*
X110451539Y-131444262D01*
X110462236Y-131451560D01*
X110466493Y-131460914D01*
X110466829Y-131462916D01*
X110466386Y-131473830D01*
X110459700Y-131479922D01*
X110444430Y-131481322D01*
X110418236Y-131478158D01*
X110378776Y-131470560D01*
X110368333Y-131468359D01*
X110308718Y-131460050D01*
X110248715Y-131459472D01*
X110193582Y-131466352D01*
X110150272Y-131479653D01*
X110109038Y-131501805D01*
X110073916Y-131529777D01*
X110043949Y-131565308D01*
X110018180Y-131610138D01*
X109995651Y-131666006D01*
X109975405Y-131734653D01*
X109956483Y-131817817D01*
X109952126Y-131839649D01*
X109943125Y-131884792D01*
X109936153Y-131916132D01*
X109930275Y-131936266D01*
X109924555Y-131947792D01*
X109918060Y-131953308D01*
X109910481Y-131955324D01*
X109899643Y-131956068D01*
X109894379Y-131951801D01*
X109893566Y-131938825D01*
X109896078Y-131913443D01*
X109896538Y-131909491D01*
X109902854Y-131867162D01*
X109912517Y-131816594D01*
X109924409Y-131762529D01*
X109937413Y-131709706D01*
X109950410Y-131662866D01*
X109962284Y-131626751D01*
X109964574Y-131620865D01*
X109999576Y-131552912D01*
X110044028Y-131497854D01*
X110097256Y-131456393D01*
X110144961Y-131433751D01*
X110185727Y-131423855D01*
X110237220Y-131418498D01*
X110294102Y-131417772D01*
X110351037Y-131421768D01*
G37*
%TO.C,R1*%
X116727064Y-79735000D02*
X116272936Y-79735000D01*
X116727064Y-78265000D02*
X116272936Y-78265000D01*
%TO.C,R2*%
X116272936Y-76265000D02*
X116727064Y-76265000D01*
X116272936Y-77735000D02*
X116727064Y-77735000D01*
%TO.C,L1*%
X106215599Y-87400000D02*
X108715599Y-87400000D01*
X107465599Y-84600000D02*
X108715599Y-84600000D01*
%TO.C,C2*%
X107204347Y-82265000D02*
X107726851Y-82265000D01*
X107204347Y-83735000D02*
X107726851Y-83735000D01*
%TD*%
M02*
