M48
; DRILL file {KiCad 6.0.11+dfsg-1~bpo11+1} date Thu 01 Feb 2024 05:53:21 PM
; FORMAT={-:-/ absolute / inch / decimal}
; #@! TF.CreationDate,2024-02-01T17:53:21-05:00
; #@! TF.GenerationSoftware,Kicad,Pcbnew,6.0.11+dfsg-1~bpo11+1
; #@! TF.FileFunction,Plated,1,2,PTH
FMAT,2
INCH
; #@! TA.AperFunction,Plated,PTH,ViaDrill
T1C0.0118
; #@! TA.AperFunction,Plated,PTH,ComponentDrill
T2C0.0350
; #@! TA.AperFunction,Plated,PTH,ComponentDrill
T3C0.0394
; #@! TA.AperFunction,Plated,PTH,ComponentDrill
T4C0.0433
%
G90
G05
T1
X3.8976Y-3.3858
X4.0386Y-4.6921
X4.078Y-4.6921
X4.1567Y-4.6921
X4.1961Y-4.6921
X4.2112Y-3.5039
X4.2506Y-3.2677
X4.2748Y-4.6921
X4.3142Y-4.6921
X4.5669Y-2.874
X4.5669Y-4.8031
X4.6063Y-3.0315
T2
X3.3246Y-4.7841
X3.3646Y-4.8541
X3.4046Y-4.7841
X3.4446Y-4.8541
X3.4846Y-4.7841
X3.5246Y-4.8541
X3.5646Y-4.7841
X3.6046Y-4.8541
T3
X4.4874Y-3.3858
X4.5874Y-3.3858
T4
X3.665Y-2.6597
X3.665Y-3.1078
X3.765Y-2.6597
X3.765Y-3.1078
X4.2992Y-2.6597
X4.2992Y-3.1078
X4.3992Y-2.6597
X4.3992Y-3.1078
T0
M30
