%TF.GenerationSoftware,KiCad,Pcbnew,6.0.11+dfsg-1~bpo11+1*%
%TF.CreationDate,2024-02-01T17:53:29-05:00*%
%TF.ProjectId,POE,504f452e-6b69-4636-9164-5f7063625858,1.0.0*%
%TF.SameCoordinates,Original*%
%TF.FileFunction,Soldermask,Top*%
%TF.FilePolarity,Negative*%
%FSLAX46Y46*%
G04 Gerber Fmt 4.6, Leading zero omitted, Abs format (unit mm)*
G04 Created by KiCad (PCBNEW 6.0.11+dfsg-1~bpo11+1) date 2024-02-01 17:53:29*
%MOMM*%
%LPD*%
G01*
G04 APERTURE LIST*
G04 Aperture macros list*
%AMRoundRect*
0 Rectangle with rounded corners*
0 $1 Rounding radius*
0 $2 $3 $4 $5 $6 $7 $8 $9 X,Y pos of 4 corners*
0 Add a 4 corners polygon primitive as box body*
4,1,4,$2,$3,$4,$5,$6,$7,$8,$9,$2,$3,0*
0 Add four circle primitives for the rounded corners*
1,1,$1+$1,$2,$3*
1,1,$1+$1,$4,$5*
1,1,$1+$1,$6,$7*
1,1,$1+$1,$8,$9*
0 Add four rect primitives between the rounded corners*
20,1,$1+$1,$2,$3,$4,$5,0*
20,1,$1+$1,$4,$5,$6,$7,0*
20,1,$1+$1,$6,$7,$8,$9,0*
20,1,$1+$1,$8,$9,$2,$3,0*%
G04 Aperture macros list end*
%ADD10C,3.200000*%
%ADD11C,3.251200*%
%ADD12C,1.625600*%
%ADD13R,0.800000X1.000000*%
%ADD14R,1.700000X1.700000*%
%ADD15O,1.700000X1.700000*%
%ADD16RoundRect,0.250000X1.500000X0.550000X-1.500000X0.550000X-1.500000X-0.550000X1.500000X-0.550000X0*%
%ADD17RoundRect,0.250000X-0.350000X-0.450000X0.350000X-0.450000X0.350000X0.450000X-0.350000X0.450000X0*%
%ADD18R,1.800000X2.500000*%
%ADD19C,1.650000*%
%ADD20RoundRect,0.250000X0.250000X0.475000X-0.250000X0.475000X-0.250000X-0.475000X0.250000X-0.475000X0*%
%ADD21RoundRect,0.250000X0.350000X0.450000X-0.350000X0.450000X-0.350000X-0.450000X0.350000X-0.450000X0*%
%ADD22RoundRect,0.195000X-0.195000X0.805000X-0.195000X-0.805000X0.195000X-0.805000X0.195000X0.805000X0*%
%ADD23RoundRect,0.243750X-0.243750X-0.456250X0.243750X-0.456250X0.243750X0.456250X-0.243750X0.456250X0*%
%ADD24R,1.250000X2.500000*%
%ADD25RoundRect,0.250000X-0.250000X-0.475000X0.250000X-0.475000X0.250000X0.475000X-0.250000X0.475000X0*%
G04 APERTURE END LIST*
D10*
%TO.C,REF\u002A\u002A*%
X118000000Y-132000000D03*
%TD*%
D11*
%TO.C,J1*%
X81650000Y-118975000D03*
X94350000Y-118975000D03*
D12*
X84444000Y-121515000D03*
X85460000Y-123293000D03*
X86476000Y-121515000D03*
X87492000Y-123293000D03*
X88508000Y-121515000D03*
X89524000Y-123293000D03*
X90540000Y-121515000D03*
X91556000Y-123293000D03*
%TD*%
D13*
%TO.C,D2*%
X86260000Y-89075000D03*
X88800000Y-89075000D03*
X88800000Y-82925000D03*
X86260000Y-82925000D03*
%TD*%
D14*
%TO.C,J2*%
X116520054Y-86000000D03*
D15*
X113980054Y-86000000D03*
%TD*%
D16*
%TO.C,C1*%
X102800000Y-86000000D03*
X97200000Y-86000000D03*
%TD*%
D10*
%TO.C,REF\u002A\u002A*%
X82000000Y-132000000D03*
%TD*%
D17*
%TO.C,R4*%
X115500000Y-124000000D03*
X117500000Y-124000000D03*
%TD*%
D10*
%TO.C,REF\u002A\u002A*%
X118000000Y-68000000D03*
%TD*%
D18*
%TO.C,D3*%
X88800000Y-71700000D03*
X88800000Y-67700000D03*
%TD*%
D19*
%TO.C,MOD-1*%
X93090387Y-78937467D03*
X95630387Y-78937467D03*
X109200387Y-78937467D03*
X111740387Y-78937467D03*
X111740387Y-67557467D03*
X109200387Y-67557467D03*
X95630387Y-67557467D03*
X93090387Y-67557467D03*
%TD*%
D20*
%TO.C,C3*%
X108415599Y-89000000D03*
X106515599Y-89000000D03*
%TD*%
D13*
%TO.C,D1*%
X86260000Y-81075000D03*
X88800000Y-81075000D03*
X88800000Y-74925000D03*
X86260000Y-74925000D03*
%TD*%
D21*
%TO.C,R3*%
X117500000Y-73000000D03*
X115500000Y-73000000D03*
%TD*%
D22*
%TO.C,TR3*%
X110580000Y-118300000D03*
X109580000Y-118300000D03*
X108580000Y-118300000D03*
X107580000Y-118300000D03*
X106580000Y-118300000D03*
X105580000Y-118300000D03*
X104580000Y-118300000D03*
X103580000Y-118300000D03*
X102580000Y-118300000D03*
X101580000Y-118300000D03*
X100580000Y-118300000D03*
X99580000Y-118300000D03*
X99580000Y-127700000D03*
X100580000Y-127700000D03*
X101580000Y-127700000D03*
X102580000Y-127700000D03*
X103580000Y-127700000D03*
X104580000Y-127700000D03*
X105580000Y-127700000D03*
X106580000Y-127700000D03*
X107580000Y-127700000D03*
X108580000Y-127700000D03*
X109580000Y-127700000D03*
X110580000Y-127700000D03*
%TD*%
D10*
%TO.C,REF\u002A\u002A*%
X82000000Y-68000000D03*
%TD*%
D23*
%TO.C,D4*%
X115562500Y-122000000D03*
X117437500Y-122000000D03*
%TD*%
D21*
%TO.C,R1*%
X117500000Y-79000000D03*
X115500000Y-79000000D03*
%TD*%
D17*
%TO.C,R2*%
X115500000Y-77000000D03*
X117500000Y-77000000D03*
%TD*%
D24*
%TO.C,L1*%
X106340599Y-86000000D03*
X108590599Y-86000000D03*
%TD*%
D25*
%TO.C,C2*%
X106515599Y-83000000D03*
X108415599Y-83000000D03*
%TD*%
M02*
